SplineFontDB: 3.2
FontName: Alttp
FullName: ALTTP
FamilyName: Alttp
Weight: Book
Copyright: Copyright David Fens 2013
Version: 1.0
ItalicAngle: 0
UnderlinePosition: 26
UnderlineWidth: 51
Ascent: 819
Descent: 205
InvalidEm: 0
sfntRevision: 0x00010000
LayerCount: 2
Layer: 0 1 "Arri+AOgA-re" 1
Layer: 1 1 "Avant" 0
XUID: [1021 1008 565786683 18394]
StyleMap: 0x0040
FSType: 4
OS2Version: 2
OS2_WeightWidthSlopeOnly: 0
OS2_UseTypoMetrics: 0
CreationTime: 1379761758
ModificationTime: 1713457203
PfmFamily: 81
TTFWeight: 400
TTFWidth: 5
LineGap: 0
VLineGap: 0
Panose: 0 0 4 0 0 0 0 0 0 0
OS2TypoAscent: 1408
OS2TypoAOffset: 0
OS2TypoDescent: -128
OS2TypoDOffset: 0
OS2TypoLinegap: 0
OS2WinAscent: 1792
OS2WinAOffset: 0
OS2WinDescent: 256
OS2WinDOffset: 0
HheadAscent: 1792
HheadAOffset: 0
HheadDescent: -256
HheadDOffset: 0
OS2SubXSize: 512
OS2SubYSize: 512
OS2SubXOff: 0
OS2SubYOff: -64
OS2SupXSize: 512
OS2SupYSize: 512
OS2SupXOff: 0
OS2SupYOff: 512
OS2StrikeYSize: 51
OS2StrikeYPos: 204
OS2CapHeight: 1408
OS2XHeight: 896
OS2Vendor: 'FSTR'
OS2CodePages: 00000011.00000000
OS2UnicodeRanges: 80000007.00000000.00000000.00000000
MarkAttachClasses: 1
DEI: 91125
ShortTable: maxp 16
  1
  0
  195
  60
  12
  0
  0
  2
  0
  0
  0
  0
  0
  0
  0
  0
EndShort
LangName: 1033 "" "" "Regular" "FontForge 2.0 : ALTTP : 9-12-2018" "" "Version 1.0" "" "FontStruct is a trademark of FSI FontShop International GmbH" "http://fontstruct.com" "David Fens" "+IBoAxAD6-TLOZ Minish Cap/A Link to the Past/Four Sword+IBoAxAD5 was built with FontStruct+AAoA" "http://www.fontshop.com" "http://fontstruct.com/fontstructions/show/875429" "FontStruct Non-Commercial License" "" "" "" "" "" "Five big quacking zephyrs jolt my wax bed"
GaspTable: 1 65535 2 0
Encoding: UnicodeBmp
UnicodeInterp: none
NameList: AGL For New Fonts
DisplaySize: -128
AntiAlias: 1
FitToEm: 1
WinInfo: 154 14 6
Grid
-1024 1411.19999695 m 0
 2048 1411.19999695 l 1024
EndSplineSet
BeginChars: 65539 398

StartChar: exclam
Encoding: 33 33 4
Width: 896
GlyphClass: 2
Flags: W
LayerCount: 2
Fore
SplineSet
256 512 m 5,0,-1
 256 1408 l 5,1,-1
 384 1408 l 5,2,-1
 384 512 l 5,3,-1
 256 512 l 5,0,-1
256 0 m 5,4,-1
 256 256 l 5,5,-1
 384 256 l 5,6,-1
 384 0 l 5,7,-1
 256 0 l 5,4,-1
EndSplineSet
Validated: 1
EndChar

StartChar: quotedbl
Encoding: 34 34 5
Width: 896
GlyphClass: 2
Flags: W
LayerCount: 2
Fore
SplineSet
512 1024 m 1,0,-1
 512 1152 l 1,1,-1
 640 1152 l 1,2,-1
 640 1280 l 1,3,-1
 512 1280 l 1,4,-1
 512 1536 l 1,5,-1
 768 1536 l 1,6,-1
 768 1152 l 1,7,-1
 640 1152 l 1,8,-1
 640 1024 l 1,9,-1
 512 1024 l 1,0,-1
128 1024 m 1,10,-1
 128 1152 l 1,11,-1
 256 1152 l 1,12,-1
 256 1280 l 1,13,-1
 128 1280 l 1,14,-1
 128 1536 l 1,15,-1
 384 1536 l 1,16,-1
 384 1152 l 1,17,-1
 256 1152 l 1,18,-1
 256 1024 l 1,19,-1
 128 1024 l 1,10,-1
EndSplineSet
Validated: 5
EndChar

StartChar: numbersign
Encoding: 35 35 6
Width: 896
GlyphClass: 2
Flags: W
LayerCount: 2
Fore
SplineSet
768 768 m 1,0,-1
 512 768 l 1,1,-1
 512 512 l 1,2,-1
 768 512 l 1,3,-1
 768 768 l 1,0,-1
512 1280 m 1,4,-1
 640 1280 l 1,5,-1
 640 896 l 1,6,-1
 896 896 l 1,7,-1
 896 1280 l 1,8,-1
 1024 1280 l 1,9,-1
 1024 896 l 1,10,-1
 1152 896 l 1,11,-1
 1152 768 l 1,12,-1
 896 768 l 1,13,-1
 896 512 l 1,14,-1
 1024 512 l 1,15,-1
 1024 384 l 1,16,-1
 768 384 l 1,17,-1
 768 0 l 1,18,-1
 640 0 l 1,19,-1
 640 384 l 1,20,-1
 384 384 l 1,21,-1
 384 0 l 1,22,-1
 256 0 l 1,23,-1
 256 384 l 1,24,-1
 128 384 l 1,25,-1
 128 512 l 1,26,-1
 384 512 l 1,27,-1
 384 768 l 1,28,-1
 256 768 l 1,29,-1
 256 896 l 1,30,-1
 512 896 l 1,31,-1
 512 1280 l 1,4,-1
EndSplineSet
Validated: 1
EndChar

StartChar: dollar
Encoding: 36 36 7
Width: 896
GlyphClass: 2
Flags: W
LayerCount: 2
Fore
SplineSet
128 896 m 1,0,-1
 128 1152 l 1,1,-1
 256 1152 l 1,2,-1
 256 896 l 1,3,-1
 384 896 l 1,4,-1
 384 1152 l 1,5,-1
 256 1152 l 1,6,-1
 256 1280 l 1,7,-1
 384 1280 l 1,8,-1
 384 1408 l 1,9,-1
 512 1408 l 1,10,-1
 512 1280 l 1,11,-1
 640 1280 l 1,12,-1
 640 1152 l 1,13,-1
 768 1152 l 1,14,-1
 768 896 l 1,15,-1
 640 896 l 1,16,-1
 640 1152 l 1,17,-1
 512 1152 l 1,18,-1
 512 640 l 1,19,-1
 640 640 l 1,20,-1
 640 512 l 1,21,-1
 768 512 l 1,22,-1
 768 256 l 1,23,-1
 640 256 l 1,24,-1
 640 128 l 1,25,-1
 512 128 l 1,26,-1
 512 0 l 1,27,-1
 384 0 l 1,28,-1
 384 128 l 1,29,-1
 256 128 l 1,30,-1
 256 256 l 1,31,-1
 384 256 l 1,32,-1
 384 768 l 1,33,-1
 256 768 l 1,34,-1
 256 896 l 1,35,-1
 128 896 l 1,0,-1
256 256 m 1,36,-1
 128 256 l 1,37,-1
 128 512 l 1,38,-1
 256 512 l 1,39,-1
 256 256 l 1,36,-1
640 256 m 1,40,-1
 640 512 l 1,41,-1
 512 512 l 1,42,-1
 512 256 l 1,43,-1
 640 256 l 1,40,-1
EndSplineSet
Validated: 5
EndChar

StartChar: percent
Encoding: 37 37 8
Width: 896
GlyphClass: 2
Flags: W
LayerCount: 2
Fore
SplineSet
128 896 m 1,0,-1
 128 1152 l 1,1,-1
 256 1152 l 1,2,-1
 256 1280 l 1,3,-1
 512 1280 l 1,4,-1
 512 1152 l 1,5,-1
 256 1152 l 1,6,-1
 256 896 l 1,7,-1
 128 896 l 1,0,-1
384 128 m 1,8,-1
 384 384 l 1,9,-1
 512 384 l 1,10,-1
 512 128 l 1,11,-1
 384 128 l 1,8,-1
1024 384 m 1,12,-1
 768 384 l 1,13,-1
 768 512 l 1,14,-1
 1024 512 l 1,15,-1
 1024 384 l 1,12,-1
1024 384 m 1,16,-1
 1152 384 l 1,17,-1
 1152 128 l 1,18,-1
 1024 128 l 1,19,-1
 1024 384 l 1,16,-1
768 384 m 1,20,-1
 768 128 l 1,21,-1
 640 128 l 1,22,-1
 640 384 l 1,23,-1
 768 384 l 1,20,-1
1024 128 m 1,24,-1
 1024 0 l 1,25,-1
 768 0 l 1,26,-1
 768 128 l 1,27,-1
 1024 128 l 1,24,-1
512 1152 m 1,28,-1
 640 1152 l 1,29,-1
 640 896 l 1,30,-1
 512 896 l 1,31,-1
 512 1152 l 1,28,-1
512 896 m 1,32,-1
 512 768 l 1,33,-1
 256 768 l 1,34,-1
 256 896 l 1,35,-1
 512 896 l 1,32,-1
640 384 m 1,36,-1
 512 384 l 1,37,-1
 512 640 l 1,38,-1
 640 640 l 1,39,-1
 640 384 l 1,36,-1
640 640 m 1,40,-1
 640 896 l 1,41,-1
 768 896 l 1,42,-1
 768 640 l 1,43,-1
 640 640 l 1,40,-1
768 896 m 1,44,-1
 768 1152 l 1,45,-1
 896 1152 l 1,46,-1
 896 896 l 1,47,-1
 768 896 l 1,44,-1
EndSplineSet
Validated: 5
EndChar

StartChar: ampersand
Encoding: 38 38 9
Width: 896
GlyphClass: 2
Flags: W
LayerCount: 2
Fore
SplineSet
512 384 m 1024,0,-1
640 128 m 1024,1,-1
768 384 m 1,2,-1
 896 384 l 1,3,-1
 896 256 l 1,4,-1
 768 256 l 1,5,-1
 768 384 l 1,2,-1
128 128 m 1,6,-1
 128 512 l 1,7,-1
 256 512 l 1,8,-1
 256 128 l 1,9,-1
 384 128 l 1,10,-1
 640 126 l 1,11,-1
 640 -2 l 1,12,-1
 384 0 l 1,13,-1
 256 0 l 1,14,-1
 256 128 l 1,15,-1
 128 128 l 1,6,-1
768 128 m 1,16,-1
 896 128 l 1,17,-1
 896 0 l 1,18,-1
 768 0 l 1,19,-1
 768 128 l 1,16,-1
768 128 m 1,20,-1
 640 128 l 1,21,-1
 640 256 l 1,22,-1
 768 256 l 1,23,-1
 768 128 l 1,20,-1
640 256 m 1,24,-1
 512 256 l 1,25,-1
 512 512 l 1,26,-1
 256 512 l 1,27,-1
 256 640 l 1,28,-1
 384 640 l 1,29,-1
 384 768 l 1,30,-1
 640 768 l 1,31,-1
 637 643 l 1,32,-1
 512 640 l 1,33,-1
 512 512 l 1,34,-1
 640 512 l 1,35,-1
 640 256 l 1,24,-1
640 768 m 1,36,-1
 640 1024 l 1,37,-1
 768 1024 l 1,38,-1
 768 768 l 1,39,-1
 640 768 l 1,36,-1
640 1024 m 1,40,-1
 384 1024 l 1,41,-1
 384 768 l 1,42,-1
 256 768 l 1,43,-1
 256 1024 l 1,44,-1
 384 1024 l 1,45,-1
 384 1152 l 1,46,-1
 640 1152 l 1,47,-1
 640 1024 l 1,40,-1
EndSplineSet
Validated: 5
EndChar

StartChar: quotesingle
Encoding: 39 39 10
Width: 896
GlyphClass: 2
Flags: W
LayerCount: 2
Fore
SplineSet
128 1024 m 1,0,-1
 128 1152 l 1,1,-1
 256 1152 l 1,2,-1
 256 1280 l 1,3,-1
 128 1280 l 1,4,-1
 128 1536 l 1,5,-1
 384 1536 l 1,6,-1
 384 1152 l 1,7,-1
 256 1152 l 1,8,-1
 256 1024 l 1,9,-1
 128 1024 l 1,0,-1
EndSplineSet
Validated: 5
EndChar

StartChar: parenleft
Encoding: 40 40 11
Width: 896
GlyphClass: 2
Flags: W
LayerCount: 2
Fore
SplineSet
512 1280 m 1024,0,-1
512 128 m 1024,1,-1
128 256 m 1,2,-1
 128 1152 l 1,3,-1
 256 1152 l 1,4,-1
 256 1280 l 1,5,-1
 384 1280 l 1,6,-1
 384 1408 l 1,7,-1
 512 1408 l 1,8,-1
 512 1280 l 1,9,-1
 384 1280 l 1,10,-1
 384 1152 l 1,11,-1
 256 1152 l 1,12,-1
 256 256 l 1,13,-1
 128 256 l 1,2,-1
256 256 m 1,14,-1
 384 256 l 1,15,-1
 384 128 l 1,16,-1
 256 128 l 1,17,-1
 256 256 l 1,14,-1
384 128 m 1,18,-1
 512 128 l 1,19,-1
 512 0 l 1,20,-1
 384 0 l 1,21,-1
 384 128 l 1,18,-1
EndSplineSet
Validated: 5
EndChar

StartChar: parenright
Encoding: 41 41 12
Width: 896
GlyphClass: 2
Flags: W
LayerCount: 2
Fore
SplineSet
128 1280 m 1024,0,-1
128 128 m 1024,1,-1
512 256 m 1,2,-1
 384 256 l 1,3,-1
 384 1152 l 1,4,-1
 256 1152 l 1,5,-1
 256 1280 l 1,6,-1
 128 1280 l 1,7,-1
 128 1408 l 1,8,-1
 256 1408 l 1,9,-1
 256 1280 l 1,10,-1
 384 1280 l 1,11,-1
 384 1152 l 1,12,-1
 512 1152 l 1,13,-1
 512 256 l 1,2,-1
384 256 m 1,14,-1
 384 128 l 1,15,-1
 256 128 l 1,16,-1
 256 256 l 1,17,-1
 384 256 l 1,14,-1
256 128 m 1,18,-1
 256 0 l 1,19,-1
 128 0 l 1,20,-1
 128 128 l 1,21,-1
 256 128 l 1,18,-1
EndSplineSet
Validated: 5
EndChar

StartChar: asterisk
Encoding: 42 42 13
Width: 896
GlyphClass: 2
Flags: W
LayerCount: 2
Fore
SplineSet
128 1280 m 1,0,-1
 384 1280 l 1,1,-1
 384 1152 l 1,2,-1
 128 1152 l 1,3,-1
 128 1280 l 1,0,-1
768 1280 m 1,4,-1
 1024 1280 l 1,5,-1
 1024 1152 l 1,6,-1
 768 1152 l 1,7,-1
 768 1280 l 1,4,-1
512 1536 m 1,8,-1
 640 1536 l 1,9,-1
 640 1152 l 1,10,-1
 768 1152 l 1,11,-1
 768 896 l 1,12,-1
 896 896 l 1,13,-1
 896 768 l 1,14,-1
 768 768 l 1,15,-1
 768 896 l 1,16,-1
 640 896 l 1,17,-1
 640 1024 l 1,18,-1
 512 1024 l 1,19,-1
 512 896 l 1,20,-1
 384 896 l 1,21,-1
 384 768 l 1,22,-1
 256 768 l 1,23,-1
 256 896 l 1,24,-1
 384 896 l 1,25,-1
 384 1152 l 1,26,-1
 512 1152 l 1,27,-1
 512 1536 l 1,8,-1
EndSplineSet
Validated: 5
EndChar

StartChar: plus
Encoding: 43 43 14
Width: 896
GlyphClass: 2
Flags: W
LayerCount: 2
Fore
SplineSet
128 640 m 1,0,-1
 128 768 l 1,1,-1
 384 768 l 1,2,-1
 384 1024 l 1,3,-1
 512 1024 l 1,4,-1
 512 768 l 1,5,-1
 768 768 l 1,6,-1
 768 640 l 1,7,-1
 512 640 l 1,8,-1
 512 384 l 1,9,-1
 384 384 l 1,10,-1
 384 640 l 1,11,-1
 128 640 l 1,0,-1
EndSplineSet
Validated: 1
EndChar

StartChar: comma
Encoding: 44 44 15
Width: 896
GlyphClass: 2
Flags: W
LayerCount: 2
Fore
SplineSet
128 -128 m 1,0,-1
 128 0 l 1,1,-1
 256 0 l 1,2,-1
 256 128 l 1,3,-1
 128 128 l 1,4,-1
 128 384 l 1,5,-1
 384 384 l 1,6,-1
 384 0 l 1,7,-1
 256 0 l 1,8,-1
 256 -128 l 1,9,-1
 128 -128 l 1,0,-1
EndSplineSet
Validated: 5
EndChar

StartChar: hyphen
Encoding: 45 45 16
Width: 896
GlyphClass: 2
Flags: W
LayerCount: 2
Fore
SplineSet
128 640 m 1,0,-1
 128 768 l 1,1,-1
 768 768 l 1,2,-1
 768 640 l 1,3,-1
 128 640 l 1,0,-1
EndSplineSet
Validated: 1
EndChar

StartChar: period
Encoding: 46 46 17
Width: 896
GlyphClass: 2
Flags: W
LayerCount: 2
Fore
SplineSet
128 0 m 1,0,-1
 128 256 l 1,1,-1
 384 256 l 1,2,-1
 384 0 l 1,3,-1
 128 0 l 1,0,-1
EndSplineSet
Validated: 1
EndChar

StartChar: slash
Encoding: 47 47 18
Width: 896
GlyphClass: 2
Flags: W
LayerCount: 2
Fore
SplineSet
896 1408 m 1,0,-1
 896 1152 l 1,1,-1
 768 1152 l 1,2,-1
 768 1408 l 1,3,-1
 896 1408 l 1,0,-1
256 128 m 1,4,-1
 256 384 l 1,5,-1
 384 384 l 1,6,-1
 384 640 l 1,7,-1
 512 640 l 1,8,-1
 512 896 l 1,9,-1
 640 896 l 1,10,-1
 640 1152 l 1,11,-1
 768 1152 l 1,12,-1
 768 896 l 1,13,-1
 640 896 l 1,14,-1
 640 640 l 1,15,-1
 512 640 l 1,16,-1
 512 384 l 1,17,-1
 384 384 l 1,18,-1
 384 128 l 1,19,-1
 256 128 l 1,4,-1
256 128 m 1,20,-1
 256 -128 l 1,21,-1
 128 -128 l 1,22,-1
 128 128 l 1,23,-1
 256 128 l 1,20,-1
EndSplineSet
Validated: 5
EndChar

StartChar: zero
Encoding: 48 48 19
Width: 896
GlyphClass: 2
Flags: W
LayerCount: 2
Fore
SplineSet
128 128 m 1,0,-1
 128 1280 l 1,1,-1
 256 1280 l 1,2,-1
 256 1408 l 1,3,-1
 640 1408 l 1,4,-1
 640 1280 l 1,5,-1
 256 1280 l 1,6,-1
 256 128 l 1,7,-1
 128 128 l 1,0,-1
640 1280 m 1,8,-1
 768 1280 l 1,9,-1
 768 128 l 1,10,-1
 640 128 l 1,11,-1
 640 1280 l 1,8,-1
640 128 m 1,12,-1
 640 0 l 1,13,-1
 256 0 l 1,14,-1
 256 128 l 1,15,-1
 640 128 l 1,12,-1
EndSplineSet
Validated: 5
EndChar

StartChar: one
Encoding: 49 49 20
Width: 896
GlyphClass: 2
Flags: W
LayerCount: 2
Fore
SplineSet
128 0 m 1,0,-1
 128 128 l 1,1,-1
 256 128 l 1,2,-1
 256 1024 l 1,3,-1
 128 1024 l 1,4,-1
 128 1152 l 1,5,-1
 256 1152 l 1,6,-1
 256 1408 l 1,7,-1
 384 1408 l 1,8,-1
 384 128 l 1,9,-1
 512 128 l 1,10,-1
 512 0 l 1,11,-1
 128 0 l 1,0,-1
EndSplineSet
Validated: 1
EndChar

StartChar: two
Encoding: 50 50 21
Width: 896
GlyphClass: 2
Flags: W
LayerCount: 2
Fore
SplineSet
128 896 m 1,0,-1
 128 1280 l 1,1,-1
 256 1280 l 1,2,-1
 256 1408 l 1,3,-1
 640 1408 l 1,4,-1
 640 1280 l 1,5,-1
 256 1280 l 1,6,-1
 256 896 l 1,7,-1
 128 896 l 1,0,-1
128 0 m 1,8,-1
 128 256 l 1,9,-1
 256 256 l 1,10,-1
 256 512 l 1,11,-1
 384 512 l 1,12,-1
 384 640 l 1,13,-1
 512 640 l 1,14,-1
 512 896 l 1,15,-1
 640 896 l 1,16,-1
 640 1280 l 1,17,-1
 768 1280 l 1,18,-1
 768 896 l 1,19,-1
 640 896 l 1,20,-1
 640 640 l 1,21,-1
 512 640 l 1,22,-1
 512 512 l 1,23,-1
 384 512 l 1,24,-1
 384 256 l 1,25,-1
 256 256 l 1,26,-1
 256 128 l 1,27,-1
 768 128 l 1,28,-1
 768 0 l 1,29,-1
 128 0 l 1,8,-1
EndSplineSet
Validated: 5
EndChar

StartChar: three
Encoding: 51 51 22
Width: 896
GlyphClass: 2
Flags: W
LayerCount: 2
Fore
SplineSet
128 1024 m 1,0,-1
 128 1280 l 1,1,-1
 256 1280 l 1,2,-1
 256 1408 l 1,3,-1
 640 1408 l 1,4,-1
 640 1280 l 1,5,-1
 256 1280 l 1,6,-1
 256 1024 l 1,7,-1
 128 1024 l 1,0,-1
384 640 m 1,8,-1
 384 768 l 1,9,-1
 640 768 l 1,10,-1
 640 1280 l 1,11,-1
 768 1280 l 1,12,-1
 768 768 l 1,13,-1
 640 768 l 1,14,-1
 640 640 l 1,15,-1
 384 640 l 1,8,-1
128 128 m 1,16,-1
 128 384 l 1,17,-1
 256 384 l 1,18,-1
 256 128 l 1,19,-1
 128 128 l 1,16,-1
640 640 m 1,20,-1
 768 640 l 1,21,-1
 768 128 l 1,22,-1
 640 128 l 1,23,-1
 640 640 l 1,20,-1
640 128 m 1,24,-1
 640 0 l 1,25,-1
 256 0 l 1,26,-1
 256 128 l 1,27,-1
 640 128 l 1,24,-1
EndSplineSet
Validated: 5
EndChar

StartChar: four
Encoding: 52 52 23
Width: 896
GlyphClass: 2
Flags: W
LayerCount: 2
Fore
SplineSet
640 0 m 1,0,-1
 640 384 l 1,1,-1
 128 384 l 1,2,-1
 128 640 l 1,3,-1
 256 640 l 1,4,-1
 256 512 l 1,5,-1
 640 512 l 1,6,-1
 640 1024 l 1,7,-1
 512 1024 l 1,8,-1
 512 1280 l 1,9,-1
 640 1280 l 1,10,-1
 640 1408 l 1,11,-1
 768 1408 l 1,12,-1
 768 512 l 1,13,-1
 896 512 l 1,14,-1
 896 384 l 1,15,-1
 768 384 l 1,16,-1
 768 0 l 1,17,-1
 640 0 l 1,0,-1
512 1024 m 1,18,-1
 512 896 l 1,19,-1
 384 896 l 1,20,-1
 384 1024 l 1,21,-1
 512 1024 l 1,18,-1
384 896 m 1,22,-1
 384 640 l 1,23,-1
 256 640 l 1,24,-1
 256 896 l 1,25,-1
 384 896 l 1,22,-1
EndSplineSet
Validated: 5
EndChar

StartChar: five
Encoding: 53 53 24
Width: 896
GlyphClass: 2
Flags: W
LayerCount: 2
Fore
SplineSet
128 512 m 1,0,-1
 128 1408 l 1,1,-1
 640 1408 l 1,2,-1
 640 1280 l 1,3,-1
 256 1280 l 1,4,-1
 256 768 l 1,5,-1
 384 768 l 1,6,-1
 384 640 l 1,7,-1
 256 640 l 1,8,-1
 256 512 l 1,9,-1
 128 512 l 1,0,-1
128 128 m 1,10,-1
 128 256 l 1,11,-1
 256 256 l 1,12,-1
 256 128 l 1,13,-1
 128 128 l 1,10,-1
384 768 m 1,14,-1
 384 896 l 1,15,-1
 640 896 l 1,16,-1
 640 768 l 1,17,-1
 384 768 l 1,14,-1
640 768 m 1,18,-1
 768 768 l 1,19,-1
 768 128 l 1,20,-1
 640 128 l 1,21,-1
 640 768 l 1,18,-1
640 128 m 1,22,-1
 640 0 l 1,23,-1
 256 0 l 1,24,-1
 256 128 l 1,25,-1
 640 128 l 1,22,-1
EndSplineSet
Validated: 5
EndChar

StartChar: six
Encoding: 54 54 25
Width: 896
GlyphClass: 2
Flags: W
LayerCount: 2
Fore
SplineSet
128 128 m 1,0,-1
 128 1280 l 1,1,-1
 256 1280 l 1,2,-1
 256 1408 l 1,3,-1
 640 1408 l 1,4,-1
 640 1280 l 1,5,-1
 256 1280 l 1,6,-1
 256 768 l 1,7,-1
 640 768 l 1,8,-1
 640 640 l 1,9,-1
 256 640 l 1,10,-1
 256 128 l 1,11,-1
 128 128 l 1,0,-1
640 1280 m 1,12,-1
 768 1280 l 1,13,-1
 768 1152 l 1,14,-1
 640 1152 l 1,15,-1
 640 1280 l 1,12,-1
640 640 m 1,16,-1
 768 640 l 1,17,-1
 768 128 l 1,18,-1
 640 128 l 1,19,-1
 640 640 l 1,16,-1
640 128 m 1,20,-1
 640 0 l 1,21,-1
 256 0 l 1,22,-1
 256 128 l 1,23,-1
 640 128 l 1,20,-1
EndSplineSet
Validated: 5
EndChar

StartChar: seven
Encoding: 55 55 26
Width: 896
GlyphClass: 2
Flags: W
LayerCount: 2
Fore
SplineSet
256 0 m 1,0,-1
 256 384 l 1,1,-1
 384 384 l 1,2,-1
 384 0 l 1,3,-1
 256 0 l 1,0,-1
640 1024 m 1,4,-1
 640 768 l 1,5,-1
 512 768 l 1,6,-1
 512 384 l 1,7,-1
 384 384 l 1,8,-1
 384 768 l 1,9,-1
 512 768 l 1,10,-1
 512 1024 l 1,11,-1
 640 1024 l 1,4,-1
640 1024 m 1,12,-1
 640 1280 l 1,13,-1
 128 1280 l 1,14,-1
 128 1408 l 1,15,-1
 768 1408 l 1,16,-1
 768 1024 l 1,17,-1
 640 1024 l 1,12,-1
EndSplineSet
Validated: 5
EndChar

StartChar: eight
Encoding: 56 56 27
Width: 896
GlyphClass: 2
Flags: W
LayerCount: 2
Fore
SplineSet
128 896 m 1,0,-1
 128 1152 l 1,1,-1
 256 1152 l 1,2,-1
 256 1280 l 1,3,-1
 384 1280 l 1,4,-1
 384 1408 l 1,5,-1
 640 1408 l 1,6,-1
 640 1280 l 1,7,-1
 384 1280 l 1,8,-1
 384 1152 l 1,9,-1
 256 1152 l 1,10,-1
 256 896 l 1,11,-1
 128 896 l 1,0,-1
128 256 m 1,12,-1
 128 512 l 1,13,-1
 256 512 l 1,14,-1
 256 640 l 1,15,-1
 384 640 l 1,16,-1
 384 768 l 1,17,-1
 256 768 l 1,18,-1
 256 896 l 1,19,-1
 384 896 l 1,20,-1
 384 768 l 1,21,-1
 640 768 l 1,22,-1
 640 896 l 1,23,-1
 768 896 l 1,24,-1
 768 1152 l 1,25,-1
 640 1152 l 1,26,-1
 640 1280 l 1,27,-1
 768 1280 l 1,28,-1
 768 1152 l 1,29,-1
 896 1152 l 1,30,-1
 896 896 l 1,31,-1
 768 896 l 1,32,-1
 768 768 l 1,33,-1
 640 768 l 1,34,-1
 640 640 l 1,35,-1
 384 640 l 1,36,-1
 384 512 l 1,37,-1
 256 512 l 1,38,-1
 256 256 l 1,39,-1
 128 256 l 1,12,-1
640 640 m 1,40,-1
 768 640 l 1,41,-1
 768 512 l 1,42,-1
 640 512 l 1,43,-1
 640 640 l 1,40,-1
768 512 m 1,44,-1
 896 512 l 1,45,-1
 896 256 l 1,46,-1
 768 256 l 1,47,-1
 768 512 l 1,44,-1
768 256 m 1,48,-1
 768 128 l 1,49,-1
 640 128 l 1,50,-1
 640 256 l 1,51,-1
 768 256 l 1,48,-1
256 256 m 1,52,-1
 384 256 l 1,53,-1
 384 128 l 1,54,-1
 256 128 l 1,55,-1
 256 256 l 1,52,-1
640 128 m 1,56,-1
 640 0 l 1,57,-1
 384 0 l 1,58,-1
 384 128 l 1,59,-1
 640 128 l 1,56,-1
EndSplineSet
Validated: 5
EndChar

StartChar: nine
Encoding: 57 57 28
Width: 896
GlyphClass: 2
Flags: W
LayerCount: 2
Fore
SplineSet
128 640 m 1,0,-1
 128 1280 l 1,1,-1
 256 1280 l 1,2,-1
 256 1408 l 1,3,-1
 640 1408 l 1,4,-1
 640 1280 l 1,5,-1
 256 1280 l 1,6,-1
 256 640 l 1,7,-1
 128 640 l 1,0,-1
128 128 m 1,8,-1
 128 256 l 1,9,-1
 256 256 l 1,10,-1
 256 128 l 1,11,-1
 128 128 l 1,8,-1
640 1280 m 1,12,-1
 768 1280 l 1,13,-1
 768 128 l 1,14,-1
 640 128 l 1,15,-1
 640 640 l 1,16,-1
 512 640 l 1,17,-1
 512 768 l 1,18,-1
 640 768 l 1,19,-1
 640 1280 l 1,12,-1
512 640 m 1,20,-1
 512 512 l 1,21,-1
 256 512 l 1,22,-1
 256 640 l 1,23,-1
 512 640 l 1,20,-1
640 128 m 1,24,-1
 640 0 l 1,25,-1
 256 0 l 1,26,-1
 256 128 l 1,27,-1
 640 128 l 1,24,-1
EndSplineSet
Validated: 5
EndChar

StartChar: colon
Encoding: 58 58 29
Width: 896
GlyphClass: 2
Flags: W
LayerCount: 2
Fore
SplineSet
256 128 m 1,0,-1
 256 384 l 1,1,-1
 512 384 l 1,2,-1
 512 128 l 1,3,-1
 256 128 l 1,0,-1
256 640 m 1,4,-1
 256 896 l 1,5,-1
 512 896 l 1,6,-1
 512 640 l 1,7,-1
 256 640 l 1,4,-1
EndSplineSet
Validated: 1
EndChar

StartChar: semicolon
Encoding: 59 59 30
Width: 896
GlyphClass: 2
Flags: W
LayerCount: 2
Fore
SplineSet
256 -128 m 1,0,-1
 256 0 l 1,1,-1
 384 0 l 1,2,-1
 384 -128 l 1,3,-1
 256 -128 l 1,0,-1
256 640 m 1,4,-1
 256 896 l 1,5,-1
 512 896 l 1,6,-1
 512 640 l 1,7,-1
 256 640 l 1,4,-1
384 0 m 1,8,-1
 384 128 l 1,9,-1
 256 128 l 1,10,-1
 256 384 l 1,11,-1
 512 384 l 1,12,-1
 512 0 l 1,13,-1
 384 0 l 1,8,-1
EndSplineSet
Validated: 5
EndChar

StartChar: less
Encoding: 60 60 31
Width: 896
GlyphClass: 2
Flags: W
LayerCount: 2
Fore
SplineSet
1024 896 m 1,0,-1
 1024 768 l 1,1,-1
 768 768 l 1,2,-1
 768 640 l 1,3,-1
 513 640 l 1,4,-1
 512 512 l 1,5,-1
 256 512 l 1,6,-1
 256 384 l 1,7,-1
 128 384 l 1,8,-1
 128 512 l 1,9,-1
 256 512 l 1,10,-1
 256 640 l 1,11,-1
 512 640 l 1,12,-1
 512 768 l 1,13,-1
 768 768 l 1,14,-1
 768 896 l 1,15,-1
 1024 896 l 1,0,-1
1024 128 m 1,16,-1
 1024 0 l 1,17,-1
 768 0 l 1,18,-1
 768 128 l 1,19,-1
 512 128 l 1,20,-1
 512 256 l 1,21,-1
 256 256 l 1,22,-1
 256 384 l 1,23,-1
 512 384 l 1,24,-1
 512 256 l 1,25,-1
 768 256 l 1,26,-1
 768 128 l 1,27,-1
 1024 128 l 1,16,-1
EndSplineSet
Validated: 5
EndChar

StartChar: equal
Encoding: 61 61 32
Width: 896
GlyphClass: 2
Flags: W
LayerCount: 2
Fore
SplineSet
128 640 m 1,0,-1
 128 768 l 1,1,-1
 768 768 l 1,2,-1
 768 640 l 1,3,-1
 128 640 l 1,0,-1
128 256 m 1,4,-1
 128 384 l 1,5,-1
 768 384 l 1,6,-1
 768 256 l 1,7,-1
 128 256 l 1,4,-1
EndSplineSet
Validated: 1
EndChar

StartChar: greater
Encoding: 62 62 33
Width: 896
GlyphClass: 2
Flags: W
LayerCount: 2
Fore
SplineSet
128 0 m 1,0,-1
 128 128 l 1,1,-1
 384 128 l 1,2,-1
 384 256 l 1,3,-1
 639 256 l 1,4,-1
 640 384 l 1,5,-1
 896 384 l 1,6,-1
 896 512 l 1,7,-1
 1024 512 l 1,8,-1
 1024 384 l 1,9,-1
 896 384 l 1,10,-1
 896 256 l 1,11,-1
 640 256 l 1,12,-1
 640 128 l 1,13,-1
 384 128 l 1,14,-1
 384 0 l 1,15,-1
 128 0 l 1,0,-1
128 768 m 1,16,-1
 128 896 l 1,17,-1
 384 896 l 1,18,-1
 384 768 l 1,19,-1
 640 768 l 1,20,-1
 640 640 l 1,21,-1
 896 640 l 1,22,-1
 896 512 l 1,23,-1
 640 512 l 1,24,-1
 640 640 l 1,25,-1
 384 640 l 1,26,-1
 384 768 l 1,27,-1
 128 768 l 1,16,-1
EndSplineSet
Validated: 5
EndChar

StartChar: question
Encoding: 63 63 34
Width: 896
GlyphClass: 2
Flags: W
LayerCount: 2
Fore
SplineSet
256 1408 m 1,0,-1
 640 1408 l 1,1,-1
 640 1280 l 1,2,-1
 256 1280 l 1,3,-1
 256 897 l 1,4,-1
 128 897 l 1,5,-1
 128 1280 l 1,6,-1
 256 1280 l 1,7,-1
 256 1408 l 1,0,-1
384 0 m 1,8,-1
 384 256 l 1,9,-1
 512 256 l 1,10,-1
 512 0 l 1,11,-1
 384 0 l 1,8,-1
384 512 m 1,12,-1
 384 768 l 1,13,-1
 512 768 l 1,14,-1
 512 896 l 1,15,-1
 640 896 l 1,16,-1
 640 1280 l 1,17,-1
 768 1280 l 1,18,-1
 768 896 l 1,19,-1
 640 896 l 1,20,-1
 640 768 l 1,21,-1
 512 768 l 1,22,-1
 512 512 l 1,23,-1
 384 512 l 1,12,-1
EndSplineSet
Validated: 5
EndChar

StartChar: at
Encoding: 64 64 35
Width: 896
GlyphClass: 2
Flags: W
LayerCount: 2
Fore
SplineSet
896 256 m 1024,0,-1
384 512 m 1,1,-1
 384 896 l 1,2,-1
 512 896 l 1,3,-1
 512 512 l 1,4,-1
 640 512 l 1,5,-1
 640 384 l 1,6,-1
 512 384 l 1,7,-1
 512 512 l 1,8,-1
 384 512 l 1,1,-1
128 256 m 1,9,-1
 128 1152 l 1,10,-1
 256 1152 l 1,11,-1
 256 256 l 1,12,-1
 384 256 l 1,13,-1
 384 128 l 1,14,-1
 768 128 l 1,15,-1
 768 0 l 1,16,-1
 384 0 l 1,17,-1
 384 128 l 1,18,-1
 256 128 l 1,19,-1
 256 256 l 1,20,-1
 128 256 l 1,9,-1
768 128 m 1,21,-1
 768 256 l 1,22,-1
 896 256 l 1,23,-1
 896 128 l 1,24,-1
 768 128 l 1,21,-1
896 512 m 1,25,-1
 896 1152 l 1,26,-1
 1024 1152 l 1,27,-1
 1024 512 l 1,28,-1
 896 512 l 1,25,-1
896 512 m 1,29,-1
 896 384 l 1,30,-1
 768 384 l 1,31,-1
 768 512 l 1,32,-1
 896 512 l 1,29,-1
896 1152 m 1,33,-1
 768 1152 l 1,34,-1
 768 1280 l 1,35,-1
 896 1280 l 1,36,-1
 896 1152 l 1,33,-1
640 512 m 1,37,-1
 640 896 l 1,38,-1
 512 896 l 1,39,-1
 512 1024 l 1,40,-1
 768 1024 l 1,41,-1
 768 512 l 1,42,-1
 640 512 l 1,37,-1
768 1280 m 1,43,-1
 384 1280 l 1,44,-1
 384 1152 l 1,45,-1
 256 1152 l 1,46,-1
 256 1280 l 1,47,-1
 384 1280 l 1,48,-1
 384 1408 l 1,49,-1
 768 1408 l 1,50,-1
 768 1280 l 1,43,-1
EndSplineSet
Validated: 5
EndChar

StartChar: A
Encoding: 65 65 36
Width: 896
GlyphClass: 2
Flags: W
LayerCount: 2
Fore
SplineSet
128 0 m 1,0,-1
 128 640 l 1,1,-1
 256 640 l 1,2,-1
 256 1152 l 1,3,-1
 384 1152 l 1,4,-1
 384 1408 l 1,5,-1
 512 1408 l 1,6,-1
 512 1152 l 1,7,-1
 384 1152 l 1,8,-1
 384 640 l 1,9,-1
 256 640 l 1,10,-1
 256 512 l 1,11,-1
 640 512 l 1,12,-1
 640 640 l 1,13,-1
 512 640 l 1,14,-1
 512 1152 l 1,15,-1
 640 1152 l 1,16,-1
 640 640 l 1,17,-1
 768 640 l 1,18,-1
 768 0 l 1,19,-1
 640 0 l 1,20,-1
 640 384 l 1,21,-1
 256 384 l 1,22,-1
 256 0 l 1,23,-1
 128 0 l 1,0,-1
EndSplineSet
Validated: 5
EndChar

StartChar: B
Encoding: 66 66 37
Width: 896
GlyphClass: 2
Flags: W
LayerCount: 2
Fore
SplineSet
128 0 m 1,0,-1
 128 1408 l 1,1,-1
 640 1408 l 1,2,-1
 640 1280 l 1,3,-1
 256 1280 l 1,4,-1
 256 768 l 1,5,-1
 640 768 l 1,6,-1
 640 640 l 1,7,-1
 256 640 l 1,8,-1
 256 128 l 1,9,-1
 640 128 l 1,10,-1
 640 0 l 1,11,-1
 128 0 l 1,0,-1
640 1280 m 1,12,-1
 768 1280 l 1,13,-1
 768 768 l 1,14,-1
 640 768 l 1,15,-1
 640 1280 l 1,12,-1
640 640 m 1,16,-1
 768 640 l 1,17,-1
 768 128 l 1,18,-1
 640 128 l 1,19,-1
 640 640 l 1,16,-1
EndSplineSet
Validated: 5
EndChar

StartChar: C
Encoding: 67 67 38
Width: 896
GlyphClass: 2
Flags: W
LayerCount: 2
Fore
SplineSet
128 256 m 1,0,-1
 128 1152 l 1,1,-1
 256 1152 l 1,2,-1
 256 1280 l 1,3,-1
 384 1280 l 1,4,-1
 384 1408 l 1,5,-1
 640 1408 l 1,6,-1
 640 1280 l 1,7,-1
 384 1280 l 1,8,-1
 384 1152 l 1,9,-1
 256 1152 l 1,10,-1
 256 256 l 1,11,-1
 128 256 l 1,0,-1
640 1280 m 1,12,-1
 768 1280 l 1,13,-1
 768 1152 l 1,14,-1
 640 1152 l 1,15,-1
 640 1280 l 1,12,-1
768 1152 m 1,16,-1
 896 1152 l 1,17,-1
 896 896 l 1,18,-1
 768 896 l 1,19,-1
 768 1152 l 1,16,-1
768 256 m 1,20,-1
 768 512 l 1,21,-1
 896 512 l 1,22,-1
 896 256 l 1,23,-1
 768 256 l 1,20,-1
768 256 m 1,24,-1
 768 128 l 1,25,-1
 640 128 l 1,26,-1
 640 256 l 1,27,-1
 768 256 l 1,24,-1
256 256 m 1,28,-1
 384 256 l 1,29,-1
 384 128 l 1,30,-1
 256 128 l 1,31,-1
 256 256 l 1,28,-1
640 128 m 1,32,-1
 640 0 l 1,33,-1
 384 0 l 1,34,-1
 384 128 l 1,35,-1
 640 128 l 1,32,-1
EndSplineSet
Validated: 5
EndChar

StartChar: D
Encoding: 68 68 39
Width: 896
GlyphClass: 2
Flags: W
LayerCount: 2
Fore
SplineSet
128 0 m 1,0,-1
 128 1408 l 1,1,-1
 512 1408 l 1,2,-1
 512 1280 l 1,3,-1
 256 1280 l 1,4,-1
 256 128 l 1,5,-1
 512 128 l 1,6,-1
 512 0 l 1,7,-1
 128 0 l 1,0,-1
512 1280 m 1,8,-1
 640 1280 l 1,9,-1
 640 1152 l 1,10,-1
 512 1152 l 1,11,-1
 512 1280 l 1,8,-1
640 1152 m 1,12,-1
 768 1152 l 1,13,-1
 768 256 l 1,14,-1
 640 256 l 1,15,-1
 640 1152 l 1,12,-1
640 256 m 1,16,-1
 640 128 l 1,17,-1
 512 128 l 1,18,-1
 512 256 l 1,19,-1
 640 256 l 1,16,-1
EndSplineSet
Validated: 5
EndChar

StartChar: E
Encoding: 69 69 40
Width: 896
GlyphClass: 2
Flags: W
LayerCount: 2
Fore
SplineSet
128 0 m 1,0,-1
 128 1408 l 1,1,-1
 768 1408 l 1,2,-1
 768 1280 l 1,3,-1
 256 1280 l 1,4,-1
 256 768 l 1,5,-1
 640 768 l 1,6,-1
 640 640 l 1,7,-1
 256 640 l 1,8,-1
 256 128 l 1,9,-1
 768 128 l 1,10,-1
 768 0 l 1,11,-1
 128 0 l 1,0,-1
EndSplineSet
Validated: 1
EndChar

StartChar: F
Encoding: 70 70 41
Width: 896
GlyphClass: 2
Flags: W
LayerCount: 2
Fore
SplineSet
128 0 m 1,0,-1
 128 1408 l 1,1,-1
 768 1408 l 1,2,-1
 768 1280 l 1,3,-1
 256 1280 l 1,4,-1
 256 768 l 1,5,-1
 640 768 l 1,6,-1
 640 640 l 1,7,-1
 256 640 l 1,8,-1
 256 0 l 1,9,-1
 128 0 l 1,0,-1
EndSplineSet
Validated: 1
EndChar

StartChar: G
Encoding: 71 71 42
Width: 896
GlyphClass: 2
Flags: W
LayerCount: 2
Fore
SplineSet
128 256 m 1,0,-1
 128 1152 l 1,1,-1
 256 1152 l 1,2,-1
 256 1280 l 1,3,-1
 384 1280 l 1,4,-1
 384 1408 l 1,5,-1
 640 1408 l 1,6,-1
 640 1280 l 1,7,-1
 384 1280 l 1,8,-1
 384 1152 l 1,9,-1
 256 1152 l 1,10,-1
 256 256 l 1,11,-1
 128 256 l 1,0,-1
768 0 m 1,12,-1
 768 128 l 1,13,-1
 640 128 l 1,14,-1
 640 256 l 1,15,-1
 768 256 l 1,16,-1
 768 640 l 1,17,-1
 512 640 l 1,18,-1
 512 768 l 1,19,-1
 896 768 l 1,20,-1
 896 0 l 1,21,-1
 768 0 l 1,12,-1
640 1280 m 1,22,-1
 768 1280 l 1,23,-1
 768 1152 l 1,24,-1
 640 1152 l 1,25,-1
 640 1280 l 1,22,-1
768 1152 m 1,26,-1
 896 1152 l 1,27,-1
 896 1024 l 1,28,-1
 768 1024 l 1,29,-1
 768 1152 l 1,26,-1
256 256 m 1,30,-1
 384 256 l 1,31,-1
 384 128 l 1,32,-1
 256 128 l 1,33,-1
 256 256 l 1,30,-1
640 128 m 1,34,-1
 640 0 l 1,35,-1
 384 0 l 1,36,-1
 384 128 l 1,37,-1
 640 128 l 1,34,-1
EndSplineSet
Validated: 5
EndChar

StartChar: H
Encoding: 72 72 43
Width: 896
GlyphClass: 2
Flags: W
LayerCount: 2
Fore
SplineSet
128 0 m 1,0,-1
 128 1408 l 1,1,-1
 256 1408 l 1,2,-1
 256 768 l 1,3,-1
 768 768 l 1,4,-1
 768 1408 l 1,5,-1
 896 1408 l 1,6,-1
 896 0 l 1,7,-1
 768 0 l 1,8,-1
 768 640 l 1,9,-1
 256 640 l 1,10,-1
 256 0 l 1,11,-1
 128 0 l 1,0,-1
EndSplineSet
Validated: 1
EndChar

StartChar: I
Encoding: 73 73 44
Width: 896
GlyphClass: 2
Flags: W
LayerCount: 2
Fore
SplineSet
256 0 m 1,0,-1
 256 128 l 1,1,-1
 384 128 l 1,2,-1
 384 1280 l 1,3,-1
 256 1280 l 1,4,-1
 256 1408 l 1,5,-1
 640 1408 l 1,6,-1
 640 1280 l 1,7,-1
 512 1280 l 1,8,-1
 512 128 l 1,9,-1
 640 128 l 1,10,-1
 640 0 l 1,11,-1
 256 0 l 1,0,-1
EndSplineSet
Validated: 1
EndChar

StartChar: J
Encoding: 74 74 45
Width: 896
GlyphClass: 2
Flags: W
LayerCount: 2
Fore
SplineSet
128 128 m 1,0,-1
 128 512 l 1,1,-1
 256 512 l 1,2,-1
 256 128 l 1,3,-1
 128 128 l 1,0,-1
640 128 m 1,4,-1
 640 1408 l 1,5,-1
 768 1408 l 1,6,-1
 768 128 l 1,7,-1
 640 128 l 1,4,-1
640 128 m 1,8,-1
 640 0 l 1,9,-1
 256 0 l 1,10,-1
 256 128 l 1,11,-1
 640 128 l 1,8,-1
EndSplineSet
Validated: 5
EndChar

StartChar: K
Encoding: 75 75 46
Width: 896
GlyphClass: 2
Flags: W
LayerCount: 2
Fore
SplineSet
128 0 m 1,0,-1
 128 1408 l 1,1,-1
 256 1408 l 1,2,-1
 256 640 l 1,3,-1
 384 640 l 1,4,-1
 384 512 l 1,5,-1
 256 512 l 1,6,-1
 256 0 l 1,7,-1
 128 0 l 1,0,-1
640 1152 m 1,8,-1
 640 1408 l 1,9,-1
 768 1408 l 1,10,-1
 768 1152 l 1,11,-1
 640 1152 l 1,8,-1
640 1152 m 1,12,-1
 640 896 l 1,13,-1
 512 896 l 1,14,-1
 512 1152 l 1,15,-1
 640 1152 l 1,12,-1
512 896 m 1,16,-1
 512 640 l 1,17,-1
 384 640 l 1,18,-1
 384 896 l 1,19,-1
 512 896 l 1,16,-1
512 640 m 1,20,-1
 640 640 l 1,21,-1
 640 512 l 1,22,-1
 512 512 l 1,23,-1
 512 640 l 1,20,-1
640 512 m 1,24,-1
 768 512 l 1,25,-1
 768 256 l 1,26,-1
 640 256 l 1,27,-1
 640 512 l 1,24,-1
768 256 m 1,28,-1
 896 256 l 1,29,-1
 896 0 l 1,30,-1
 768 0 l 1,31,-1
 768 256 l 1,28,-1
EndSplineSet
Validated: 5
EndChar

StartChar: L
Encoding: 76 76 47
Width: 896
GlyphClass: 2
Flags: W
LayerCount: 2
Fore
SplineSet
128 0 m 1,0,-1
 128 1408 l 1,1,-1
 256 1408 l 1,2,-1
 256 128 l 1,3,-1
 896 128 l 1,4,-1
 896 0 l 1,5,-1
 128 0 l 1,0,-1
EndSplineSet
Validated: 1
EndChar

StartChar: M
Encoding: 77 77 48
Width: 896
GlyphClass: 2
Flags: W
LayerCount: 2
Fore
SplineSet
640 0 m 1,0,-1
 640 640 l 1,1,-1
 512 640 l 1,2,-1
 512 1024 l 1,3,-1
 640 1024 l 1,4,-1
 640 1408 l 1,5,-1
 768 1408 l 1,6,-1
 768 0 l 1,7,-1
 640 0 l 1,0,-1
128 0 m 1,8,-1
 128 1408 l 1,9,-1
 256 1408 l 1,10,-1
 256 1024 l 1,11,-1
 384 1024 l 1,12,-1
 384 640 l 1,13,-1
 256 640 l 1,14,-1
 256 0 l 1,15,-1
 128 0 l 1,8,-1
512 640 m 1,16,-1
 512 0 l 1,17,-1
 384 0 l 1,18,-1
 384 640 l 1,19,-1
 512 640 l 1,16,-1
EndSplineSet
Validated: 5
EndChar

StartChar: N
Encoding: 78 78 49
Width: 896
GlyphClass: 2
Flags: W
LayerCount: 2
Fore
SplineSet
640 0 m 1,0,-1
 640 256 l 1,1,-1
 512 256 l 1,2,-1
 512 512 l 1,3,-1
 640 512 l 1,4,-1
 640 1408 l 1,5,-1
 768 1408 l 1,6,-1
 768 0 l 1,7,-1
 640 0 l 1,0,-1
128 0 m 1,8,-1
 128 1408 l 1,9,-1
 256 1408 l 1,10,-1
 256 1024 l 1,11,-1
 384 1024 l 1,12,-1
 384 768 l 1,13,-1
 256 768 l 1,14,-1
 256 0 l 1,15,-1
 128 0 l 1,8,-1
512 512 m 1,16,-1
 384 512 l 1,17,-1
 384 768 l 1,18,-1
 512 768 l 1,19,-1
 512 512 l 1,16,-1
EndSplineSet
Validated: 5
EndChar

StartChar: O
Encoding: 79 79 50
Width: 896
GlyphClass: 2
Flags: W
LayerCount: 2
Fore
SplineSet
128 256 m 1,0,-1
 128 1152 l 1,1,-1
 256 1152 l 1,2,-1
 256 1280 l 1,3,-1
 384 1280 l 1,4,-1
 384 1408 l 1,5,-1
 640 1408 l 1,6,-1
 640 1280 l 1,7,-1
 384 1280 l 1,8,-1
 384 1152 l 1,9,-1
 256 1152 l 1,10,-1
 256 256 l 1,11,-1
 128 256 l 1,0,-1
640 1280 m 1,12,-1
 768 1280 l 1,13,-1
 768 1152 l 1,14,-1
 640 1152 l 1,15,-1
 640 1280 l 1,12,-1
768 1152 m 1,16,-1
 896 1152 l 1,17,-1
 896 256 l 1,18,-1
 768 256 l 1,19,-1
 768 1152 l 1,16,-1
768 256 m 1,20,-1
 768 128 l 1,21,-1
 640 128 l 1,22,-1
 640 256 l 1,23,-1
 768 256 l 1,20,-1
256 256 m 1,24,-1
 384 256 l 1,25,-1
 384 128 l 1,26,-1
 256 128 l 1,27,-1
 256 256 l 1,24,-1
640 128 m 1,28,-1
 640 0 l 1,29,-1
 384 0 l 1,30,-1
 384 128 l 1,31,-1
 640 128 l 1,28,-1
EndSplineSet
Validated: 5
EndChar

StartChar: P
Encoding: 80 80 51
Width: 896
GlyphClass: 2
Flags: W
LayerCount: 2
Fore
SplineSet
128 0 m 1,0,-1
 128 1408 l 1,1,-1
 640 1408 l 1,2,-1
 640 1280 l 1,3,-1
 256 1280 l 1,4,-1
 256 768 l 1,5,-1
 640 768 l 1,6,-1
 640 640 l 1,7,-1
 256 640 l 1,8,-1
 256 0 l 1,9,-1
 128 0 l 1,0,-1
640 1280 m 1,10,-1
 768 1280 l 1,11,-1
 768 768 l 1,12,-1
 640 768 l 1,13,-1
 640 1280 l 1,10,-1
EndSplineSet
Validated: 5
EndChar

StartChar: Q
Encoding: 81 81 52
Width: 896
GlyphClass: 2
Flags: W
LayerCount: 2
Fore
SplineSet
128 256 m 1,0,-1
 128 1152 l 1,1,-1
 256 1152 l 1,2,-1
 256 1280 l 1,3,-1
 384 1280 l 1,4,-1
 384 1408 l 1,5,-1
 640 1408 l 1,6,-1
 640 1280 l 1,7,-1
 384 1280 l 1,8,-1
 384 1152 l 1,9,-1
 256 1152 l 1,10,-1
 256 256 l 1,11,-1
 128 256 l 1,0,-1
512 384 m 1,12,-1
 512 512 l 1,13,-1
 640 512 l 1,14,-1
 640 384 l 1,15,-1
 768 384 l 1,16,-1
 768 1152 l 1,17,-1
 640 1152 l 1,18,-1
 640 1280 l 1,19,-1
 768 1280 l 1,20,-1
 768 1152 l 1,21,-1
 896 1152 l 1,22,-1
 896 256 l 1,23,-1
 768 256 l 1,24,-1
 768 128 l 1,25,-1
 640 128 l 1,26,-1
 640 384 l 1,27,-1
 512 384 l 1,12,-1
256 256 m 1,28,-1
 384 256 l 1,29,-1
 384 128 l 1,30,-1
 256 128 l 1,31,-1
 256 256 l 1,28,-1
768 128 m 1,32,-1
 896 128 l 1,33,-1
 896 0 l 1,34,-1
 768 0 l 1,35,-1
 768 128 l 1,32,-1
640 128 m 1,36,-1
 640 0 l 1,37,-1
 384 0 l 1,38,-1
 384 128 l 1,39,-1
 640 128 l 1,36,-1
EndSplineSet
Validated: 5
EndChar

StartChar: R
Encoding: 82 82 53
Width: 896
GlyphClass: 2
Flags: W
LayerCount: 2
Fore
SplineSet
128 0 m 1,0,-1
 128 1408 l 1,1,-1
 640 1408 l 1,2,-1
 640 1280 l 1,3,-1
 256 1280 l 1,4,-1
 256 768 l 1,5,-1
 640 768 l 1,6,-1
 640 384 l 1,7,-1
 512 384 l 1,8,-1
 512 640 l 1,9,-1
 256 640 l 1,10,-1
 256 0 l 1,11,-1
 128 0 l 1,0,-1
640 1280 m 1,12,-1
 768 1280 l 1,13,-1
 768 768 l 1,14,-1
 640 768 l 1,15,-1
 640 1280 l 1,12,-1
640 384 m 1,16,-1
 768 384 l 1,17,-1
 768 0 l 1,18,-1
 640 0 l 1,19,-1
 640 384 l 1,16,-1
EndSplineSet
Validated: 5
EndChar

StartChar: S
Encoding: 83 83 54
Width: 896
GlyphClass: 2
Flags: W
LayerCount: 2
Fore
SplineSet
128 896 m 1,0,-1
 128 1280 l 1,1,-1
 256 1280 l 1,2,-1
 256 1408 l 1,3,-1
 640 1408 l 1,4,-1
 640 1280 l 1,5,-1
 256 1280 l 1,6,-1
 256 896 l 1,7,-1
 128 896 l 1,0,-1
128 128 m 1,8,-1
 128 512 l 1,9,-1
 256 512 l 1,10,-1
 256 128 l 1,11,-1
 128 128 l 1,8,-1
640 1280 m 1,12,-1
 768 1280 l 1,13,-1
 768 896 l 1,14,-1
 640 896 l 1,15,-1
 640 1280 l 1,12,-1
256 896 m 1,16,-1
 384 896 l 1,17,-1
 384 768 l 1,18,-1
 256 768 l 1,19,-1
 256 896 l 1,16,-1
384 768 m 1,20,-1
 512 768 l 1,21,-1
 512 640 l 1,22,-1
 384 640 l 1,23,-1
 384 768 l 1,20,-1
512 640 m 1,24,-1
 640 640 l 1,25,-1
 640 512 l 1,26,-1
 512 512 l 1,27,-1
 512 640 l 1,24,-1
640 512 m 1,28,-1
 768 512 l 1,29,-1
 768 128 l 1,30,-1
 640 128 l 1,31,-1
 640 512 l 1,28,-1
640 128 m 1,32,-1
 640 0 l 1,33,-1
 256 0 l 1,34,-1
 256 128 l 1,35,-1
 640 128 l 1,32,-1
EndSplineSet
Validated: 5
EndChar

StartChar: T
Encoding: 84 84 55
Width: 896
GlyphClass: 2
Flags: W
LayerCount: 2
Fore
SplineSet
384 0 m 1,0,-1
 384 1280 l 1,1,-1
 128 1280 l 1,2,-1
 128 1408 l 1,3,-1
 768 1408 l 1,4,-1
 768 1280 l 1,5,-1
 512 1280 l 1,6,-1
 512 0 l 1,7,-1
 384 0 l 1,0,-1
EndSplineSet
Validated: 1
EndChar

StartChar: U
Encoding: 85 85 56
Width: 896
GlyphClass: 2
Flags: W
LayerCount: 2
Fore
SplineSet
128 128 m 1,0,-1
 128 1408 l 1,1,-1
 256 1408 l 1,2,-1
 256 128 l 1,3,-1
 128 128 l 1,0,-1
640 128 m 1,4,-1
 640 1408 l 1,5,-1
 768 1408 l 1,6,-1
 768 128 l 1,7,-1
 640 128 l 1,4,-1
640 128 m 1,8,-1
 640 0 l 1,9,-1
 256 0 l 1,10,-1
 256 128 l 1,11,-1
 640 128 l 1,8,-1
EndSplineSet
Validated: 5
EndChar

StartChar: V
Encoding: 86 86 57
Width: 896
GlyphClass: 2
Flags: W
LayerCount: 2
Fore
SplineSet
128 896 m 1,0,-1
 128 1408 l 1,1,-1
 256 1408 l 1,2,-1
 256 896 l 1,3,-1
 128 896 l 1,0,-1
640 896 m 1,4,-1
 640 1408 l 1,5,-1
 768 1408 l 1,6,-1
 768 896 l 1,7,-1
 640 896 l 1,4,-1
640 896 m 1,8,-1
 640 384 l 1,9,-1
 512 384 l 1,10,-1
 512 896 l 1,11,-1
 640 896 l 1,8,-1
256 896 m 1,12,-1
 384 896 l 1,13,-1
 384 384 l 1,14,-1
 256 384 l 1,15,-1
 256 896 l 1,12,-1
512 384 m 1,16,-1
 512 0 l 1,17,-1
 384 0 l 1,18,-1
 384 384 l 1,19,-1
 512 384 l 1,16,-1
EndSplineSet
Validated: 5
EndChar

StartChar: W
Encoding: 87 87 58
Width: 896
GlyphClass: 2
Flags: W
LayerCount: 2
Fore
SplineSet
128 512 m 1,0,-1
 128 1408 l 1,1,-1
 256 1408 l 1,2,-1
 256 512 l 1,3,-1
 128 512 l 1,0,-1
640 512 m 1,4,-1
 640 1408 l 1,5,-1
 768 1408 l 1,6,-1
 768 512 l 1,7,-1
 640 512 l 1,4,-1
640 512 m 1,8,-1
 640 0 l 1,9,-1
 512 0 l 1,10,-1
 512 512 l 1,11,-1
 384 512 l 1,12,-1
 384 1408 l 1,13,-1
 512 1408 l 1,14,-1
 512 512 l 1,15,-1
 640 512 l 1,8,-1
384 512 m 1,16,-1
 384 0 l 1,17,-1
 256 0 l 1,18,-1
 256 512 l 1,19,-1
 384 512 l 1,16,-1
EndSplineSet
Validated: 5
EndChar

StartChar: X
Encoding: 88 88 59
Width: 896
GlyphClass: 2
Flags: W
LayerCount: 2
Fore
SplineSet
128 1152 m 1,0,-1
 128 1408 l 1,1,-1
 256 1408 l 1,2,-1
 256 1152 l 1,3,-1
 128 1152 l 1,0,-1
128 0 m 1,4,-1
 128 384 l 1,5,-1
 256 384 l 1,6,-1
 256 640 l 1,7,-1
 384 640 l 1,8,-1
 384 896 l 1,9,-1
 256 896 l 1,10,-1
 256 1152 l 1,11,-1
 384 1152 l 1,12,-1
 384 896 l 1,13,-1
 512 896 l 1,14,-1
 512 1152 l 1,15,-1
 640 1152 l 1,16,-1
 640 1408 l 1,17,-1
 768 1408 l 1,18,-1
 768 1152 l 1,19,-1
 640 1152 l 1,20,-1
 640 896 l 1,21,-1
 512 896 l 1,22,-1
 512 640 l 1,23,-1
 384 640 l 1,24,-1
 384 384 l 1,25,-1
 256 384 l 1,26,-1
 256 0 l 1,27,-1
 128 0 l 1,4,-1
512 640 m 1,28,-1
 640 640 l 1,29,-1
 640 384 l 1,30,-1
 512 384 l 1,31,-1
 512 640 l 1,28,-1
640 384 m 1,32,-1
 768 384 l 1,33,-1
 768 0 l 1,34,-1
 640 0 l 1,35,-1
 640 384 l 1,32,-1
EndSplineSet
Validated: 5
EndChar

StartChar: Y
Encoding: 89 89 60
Width: 896
GlyphClass: 2
Flags: W
LayerCount: 2
Fore
SplineSet
128 1024 m 1,0,-1
 128 1408 l 1,1,-1
 256 1408 l 1,2,-1
 256 1024 l 1,3,-1
 128 1024 l 1,0,-1
640 1024 m 1,4,-1
 640 1408 l 1,5,-1
 768 1408 l 1,6,-1
 768 1024 l 1,7,-1
 640 1024 l 1,4,-1
640 1024 m 1,8,-1
 640 768 l 1,9,-1
 512 768 l 1,10,-1
 512 1024 l 1,11,-1
 640 1024 l 1,8,-1
256 1024 m 1,12,-1
 384 1024 l 1,13,-1
 384 768 l 1,14,-1
 256 768 l 1,15,-1
 256 1024 l 1,12,-1
512 768 m 1,16,-1
 512 0 l 1,17,-1
 384 0 l 1,18,-1
 384 768 l 1,19,-1
 512 768 l 1,16,-1
EndSplineSet
Validated: 5
EndChar

StartChar: Z
Encoding: 90 90 61
Width: 896
GlyphClass: 2
Flags: W
LayerCount: 2
Fore
SplineSet
128 0 m 1,0,-1
 128 256 l 1,1,-1
 256 256 l 1,2,-1
 256 512 l 1,3,-1
 384 512 l 1,4,-1
 384 896 l 1,5,-1
 512 896 l 1,6,-1
 512 1152 l 1,7,-1
 640 1152 l 1,8,-1
 640 1280 l 1,9,-1
 128 1280 l 1,10,-1
 128 1408 l 1,11,-1
 768 1408 l 1,12,-1
 768 1152 l 1,13,-1
 640 1152 l 1,14,-1
 640 896 l 1,15,-1
 512 896 l 1,16,-1
 512 512 l 1,17,-1
 384 512 l 1,18,-1
 384 256 l 1,19,-1
 256 256 l 1,20,-1
 256 128 l 1,21,-1
 768 128 l 1,22,-1
 768 0 l 1,23,-1
 128 0 l 1,0,-1
EndSplineSet
Validated: 5
EndChar

StartChar: bracketleft
Encoding: 91 91 62
Width: 896
GlyphClass: 2
Flags: W
LayerCount: 2
Fore
SplineSet
256 1408 m 1,0,-1
 256 0 l 1,1,-1
 512 0 l 1,2,-1
 512 -128 l 1,3,-1
 128 -128 l 1,4,-1
 128 1536 l 1,5,-1
 512 1536 l 1,6,-1
 512 1408 l 1,7,-1
 256 1408 l 1,0,-1
EndSplineSet
Validated: 1
EndChar

StartChar: backslash
Encoding: 92 92 63
Width: 896
GlyphClass: 2
Flags: W
LayerCount: 2
Fore
SplineSet
128 1408 m 1,0,-1
 256 1408 l 1,1,-1
 256 1152 l 1,2,-1
 128 1152 l 1,3,-1
 128 1408 l 1,0,-1
768 128 m 1,4,-1
 640 128 l 1,5,-1
 640 384 l 1,6,-1
 512 384 l 1,7,-1
 512 640 l 1,8,-1
 384 640 l 1,9,-1
 384 896 l 1,10,-1
 256 896 l 1,11,-1
 256 1152 l 1,12,-1
 384 1152 l 1,13,-1
 384 896 l 1,14,-1
 512 896 l 1,15,-1
 512 640 l 1,16,-1
 640 640 l 1,17,-1
 640 384 l 1,18,-1
 768 384 l 1,19,-1
 768 128 l 1,4,-1
768 128 m 1,20,-1
 896 128 l 1,21,-1
 896 -128 l 1,22,-1
 768 -128 l 1,23,-1
 768 128 l 1,20,-1
EndSplineSet
Validated: 5
EndChar

StartChar: bracketright
Encoding: 93 93 64
Width: 896
GlyphClass: 2
Flags: W
LayerCount: 2
Fore
SplineSet
384 0 m 1,0,-1
 384 1408 l 1,1,-1
 128 1408 l 1,2,-1
 128 1536 l 1,3,-1
 512 1536 l 1,4,-1
 512 -128 l 1,5,-1
 128 -128 l 1,6,-1
 128 0 l 1,7,-1
 384 0 l 1,0,-1
EndSplineSet
Validated: 1
EndChar

StartChar: asciicircum
Encoding: 94 94 65
Width: 896
GlyphClass: 2
Flags: W
LayerCount: 2
Fore
SplineSet
128 1408 m 1,0,-1
 128 1536 l 1,1,-1
 256 1536 l 1,2,-1
 256 1664 l 1,3,-1
 384 1664 l 1,4,-1
 384 1536 l 1,5,-1
 256 1536 l 1,6,-1
 256 1408 l 1,7,-1
 128 1408 l 1,0,-1
384 1536 m 1,8,-1
 512 1536 l 1,9,-1
 512 1408 l 1,10,-1
 384 1408 l 1,11,-1
 384 1536 l 1,8,-1
EndSplineSet
Validated: 5
EndChar

StartChar: underscore
Encoding: 95 95 66
Width: 896
GlyphClass: 2
Flags: W
LayerCount: 2
Fore
SplineSet
128 -128 m 1,0,-1
 128 0 l 1,1,-1
 896 0 l 1,2,-1
 896 -128 l 1,3,-1
 128 -128 l 1,0,-1
EndSplineSet
Validated: 1
EndChar

StartChar: grave
Encoding: 96 96 67
Width: 896
GlyphClass: 2
Flags: W
LayerCount: 2
Fore
SplineSet
128 1536 m 1,0,-1
 128 1664 l 1,1,-1
 256 1664 l 1,2,-1
 256 1536 l 1,3,-1
 128 1536 l 1,0,-1
256 1536 m 1,4,-1
 384 1536 l 1,5,-1
 384 1408 l 1,6,-1
 256 1408 l 1,7,-1
 256 1536 l 1,4,-1
EndSplineSet
Validated: 5
EndChar

StartChar: a
Encoding: 97 97 68
Width: 896
GlyphClass: 2
Flags: W
LayerCount: 2
Fore
SplineSet
128 768 m 1,0,-1
 256 768 l 1,1,-1
 256 1024 l 1,2,3
 256 1024 256 1024 385 1024 c 1,4,5
 385 1024 385 1024 512 1024 c 1,6,-1
 512 896 l 1,7,-1
 256 896 l 1,8,9
 256 896 256 896 128 896 c 1025,10,-1
512 640 m 1,11,-1
 512 896 l 1,12,-1
 640 896 l 1,13,-1
 640 0 l 0,14,15
 640 0 640 0 512 0 c 1,16,-1
 511 128 l 0,17,18
 511 128 511 128 384 128 c 1,19,-1
 384 256 l 0,20,21
 384 256 384 256 512 256 c 0,22,23
 514 256 514 256 512 768 c 1,24,-1
 383.750976562 768 l 1,25,26
 383.750976562 768 383.750976562 768 383 511 c 1,27,28
 383 511 383 511 256 512 c 1,29,-1
 256 128 l 1,30,-1
 128 128 l 1,31,-1
 128 512 l 1,32,-1
 256 512 l 1,33,-1
 256 640 l 1025,34,-1
384 128 m 1,35,-1
 384 0 l 1,36,-1
 256 0 l 1,37,-1
 256 128 l 1,38,-1
 384 128 l 1,35,-1
EndSplineSet
EndChar

StartChar: b
Encoding: 98 98 69
Width: 896
GlyphClass: 2
Flags: W
LayerCount: 2
Fore
SplineSet
128 0 m 1,0,-1
 128 1536 l 5,1,-1
 256 1536 l 5,2,-1
 256 896 l 5,3,-1
 384 896 l 5,4,-1
 384 768 l 5,5,-1
 256 768 l 5,6,-1
 256 256 l 1,7,-1
 384 256 l 1,8,-1
 384 128 l 1,9,-1
 256 128 l 1,10,-1
 256 0 l 1,11,-1
 128 0 l 1,0,-1
384 896 m 5,12,-1
 384 1024 l 5,13,-1
 512 1024 l 5,14,-1
 512 896 l 5,15,-1
 384 896 l 5,12,-1
512 896 m 5,16,-1
 640 896 l 5,17,-1
 640 128 l 1,18,-1
 512 128 l 1,19,-1
 512 896 l 5,16,-1
512 128 m 1,20,-1
 512 0 l 1,21,-1
 384 0 l 1,22,-1
 384 128 l 1,23,-1
 512 128 l 1,20,-1
EndSplineSet
EndChar

StartChar: c
Encoding: 99 99 70
Width: 896
GlyphClass: 2
Flags: W
LayerCount: 2
Fore
SplineSet
128 128 m 1,0,-1
 128 896 l 1,1,-1
 256 896 l 1,2,-1
 256 1024 l 1,3,-1
 512 1024 l 1,4,-1
 512 896 l 1,5,-1
 256 896 l 1,6,-1
 256 128 l 1,7,-1
 128 128 l 1,0,-1
512 896 m 1,8,-1
 640 896 l 1,9,-1
 640 640 l 1,10,-1
 512 640 l 1,11,-1
 512 896 l 1,8,-1
512 128 m 1,12,-1
 512 384 l 1,13,-1
 640 384 l 1,14,-1
 640 128 l 1,15,-1
 512 128 l 1,12,-1
512 128 m 1,16,-1
 512 0 l 1,17,-1
 256 0 l 1,18,-1
 256 128 l 1,19,-1
 512 128 l 1,16,-1
EndSplineSet
EndChar

StartChar: d
Encoding: 100 100 71
Width: 896
GlyphClass: 2
Flags: W
LayerCount: 2
Fore
SplineSet
512 0 m 1,0,-1
 512 128 l 1,1,-1
 384 128 l 1,2,-1
 384 256 l 1,3,-1
 512 256 l 1,4,-1
 512 768 l 1,5,-1
 384 768 l 1,6,-1
 384 896 l 1,7,-1
 512 896 l 1,8,-1
 512 1536 l 1,9,-1
 640 1536 l 1,10,-1
 640 0 l 1,11,-1
 512 0 l 1,0,-1
128 128 m 1,12,-1
 128 896 l 1,13,-1
 256 896 l 1,14,-1
 256 1024 l 1,15,-1
 384 1024 l 1,16,-1
 384 896 l 1,17,-1
 256 896 l 1,18,-1
 256 128 l 1,19,-1
 128 128 l 1,12,-1
384 128 m 1,20,-1
 384 0 l 1,21,-1
 256 0 l 1,22,-1
 256 128 l 1,23,-1
 384 128 l 1,20,-1
EndSplineSet
EndChar

StartChar: e
Encoding: 101 101 72
Width: 896
GlyphClass: 2
Flags: W
LayerCount: 2
Fore
SplineSet
128 128 m 1,0,-1
 128 896 l 1,1,-1
 256 896 l 1,2,-1
 256 1024 l 1,3,-1
 512 1024 l 1,4,-1
 512 896 l 1,5,-1
 256 896 l 1,6,-1
 256 640 l 1,7,-1
 512 640 l 1,8,-1
 512 896 l 1,9,-1
 640 896 l 1,10,-1
 640 512 l 1,11,-1
 256 512 l 1,12,-1
 256 128 l 1,13,-1
 128 128 l 1,0,-1
512 128 m 1,14,-1
 512 256 l 1,15,-1
 640 256 l 1,16,-1
 640 128 l 1,17,-1
 512 128 l 1,14,-1
512 128 m 1,18,-1
 512 0 l 1,19,-1
 256 0 l 1,20,-1
 256 128 l 1,21,-1
 512 128 l 1,18,-1
EndSplineSet
EndChar

StartChar: f
Encoding: 102 102 73
Width: 896
GlyphClass: 2
Flags: W
LayerCount: 2
Fore
SplineSet
256 0 m 1,0,-1
 256 640 l 5,1,-1
 128 640 l 5,2,-1
 128 768 l 5,3,-1
 256 768 l 5,4,-1
 256 1280 l 1,5,-1
 384 1280 l 1,6,-1
 384 1408 l 1,7,-1
 640 1408 l 1,8,-1
 640 1280 l 1,9,-1
 384 1280 l 1,10,-1
 384 768 l 5,11,-1
 640 768 l 5,12,-1
 640 640 l 5,13,-1
 384 640 l 5,14,-1
 384 0 l 1,15,-1
 256 0 l 1,0,-1
EndSplineSet
EndChar

StartChar: g
Encoding: 103 103 74
Width: 896
GlyphClass: 2
Flags: W
LayerCount: 2
Fore
SplineSet
128 256 m 1,0,-1
 512 256 l 1,1,-1
 512 0 l 0,2,-1
 512 -128 l 1,3,-1
 128 -128 l 1,4,-1
 128 0 l 1,5,-1
 640 0 l 25,6,-1
 640 1152 l 1,7,-1
 512 1152 l 25,8,-1
 512 1024 l 1,9,-1
 512 896 l 1,10,-1
 384 896 l 1,11,-1
 384 1152 l 1,12,-1
 256 1152 l 1,13,-1
 256 1024 l 1,14,-1
 512 1024 l 1,15,-1
 512 384 l 1,16,-1
 384 384 l 1,17,-1
 384 128 l 1,18,-1
 256 128 l 1,19,-1
 255 385 l 1,20,-1
 256 1024 l 1,21,-1
 128 1024 l 1,22,-1
 128 256 l 1,0,-1
EndSplineSet
EndChar

StartChar: h
Encoding: 104 104 75
Width: 896
GlyphClass: 2
Flags: W
LayerCount: 2
Fore
SplineSet
128 0 m 1,0,-1
 128 1408 l 1,1,-1
 256 1408 l 1,2,-1
 256 896 l 1,3,-1
 384 896 l 1,4,-1
 384 768 l 1,5,-1
 256 768 l 1,6,-1
 256 0 l 1,7,-1
 128 0 l 1,0,-1
384 896 m 1,8,-1
 384 1024 l 1,9,-1
 512 1024 l 1,10,-1
 512 896 l 1,11,-1
 384 896 l 1,8,-1
512 896 m 1,12,-1
 640 896 l 1,13,-1
 640 0 l 1,14,-1
 512 0 l 1,15,-1
 512 896 l 1,12,-1
EndSplineSet
EndChar

StartChar: i
Encoding: 105 105 76
Width: 896
GlyphClass: 2
Flags: W
LayerCount: 2
Fore
SplineSet
384 1152 m 1,0,-1
 384 1408 l 1,1,-1
 512 1408 l 1,2,-1
 512 1152 l 1,3,-1
 384 1152 l 1,0,-1
384 0 m 1,4,-1
 384 1024 l 1,5,-1
 512 1024 l 1,6,-1
 512 0 l 1,7,-1
 384 0 l 1,4,-1
EndSplineSet
EndChar

StartChar: j
Encoding: 106 106 77
Width: 896
GlyphClass: 2
Flags: W
LayerCount: 2
Fore
SplineSet
384 1280 m 1,0,-1
 384 1536 l 1,1,-1
 512 1536 l 1,2,-1
 512 1280 l 1,3,-1
 384 1280 l 1,0,-1
128 -128 m 1,4,-1
 128 0 l 1,5,-1
 384 0 l 1,6,-1
 384 1152 l 1,7,-1
 512 1152 l 5,8,-1
 512 0 l 5,9,-1
 384 0 l 1,10,-1
 384 -128 l 1,11,-1
 128 -128 l 1,4,-1
EndSplineSet
EndChar

StartChar: k
Encoding: 107 107 78
Width: 896
GlyphClass: 2
Flags: W
LayerCount: 2
Fore
SplineSet
383.75 258.5 m 16,0,-1
 500 258.38832853 l 1,1,2
 500 258.38832853 500 258.38832853 512 258.376801153 c 1,3,4
 512 258.376801153 512 258.376801153 644 258.25 c 8,5,6
 685 175 685 175 640.5 0 c 24,7,8
 632 -32 632 -32 562 -63 c 24,9,-1
 576 448 l 25,10,-1
 256 512 l 1,11,-1
 256 0 l 1,12,-1
 128 0 l 1,13,-1
 128 1408 l 1,14,-1
 256 1408 l 1,15,-1
 256 640 l 1,16,-1
 384 640 l 1025,17,-1
384.5 256 m 1048,18,-1
383.5 641 m 24,19,-1
 384 256 l 1033,20,-1
640 896 m 1025,21,-1
640 896 m 1,22,-1
 640 768 l 1,23,-1
 512 768 l 1,24,-1
 512 896 l 1,25,-1
 640 896 l 1,22,-1
512 768 m 1,26,-1
 512 640 l 1,27,-1
 384 640 l 1,28,-1
 384 768 l 1,29,-1
 512 768 l 1,26,-1
EndSplineSet
EndChar

StartChar: l
Encoding: 108 108 79
Width: 896
GlyphClass: 2
Flags: W
LayerCount: 2
Fore
SplineSet
256 0 m 1,0,-1
 256 1408 l 1,1,-1
 384 1408 l 1,2,-1
 384 0 l 1,3,-1
 256 0 l 1,0,-1
EndSplineSet
Validated: 1
EndChar

StartChar: m
Encoding: 109 109 80
Width: 896
GlyphClass: 2
Flags: W
LayerCount: 2
Fore
SplineSet
128 0 m 1,0,-1
 128 896 l 1,1,-1
 384 896 l 1,2,-1
 384 768 l 1,3,-1
 256 768 l 1,4,-1
 256 0 l 1,5,-1
 128 0 l 1,0,-1
640 768 m 1,6,-1
 512 768 l 1,7,-1
 512 896 l 1,8,-1
 640 896 l 1,9,-1
 640 768 l 1,6,-1
640 768 m 1,10,-1
 768 768 l 1,11,-1
 768 0 l 1,12,-1
 640 0 l 1,13,-1
 640 768 l 1,10,-1
512 768 m 1,14,-1
 512 0 l 1,15,-1
 384 0 l 1,16,-1
 384 768 l 1,17,-1
 512 768 l 1,14,-1
EndSplineSet
Validated: 5
EndChar

StartChar: n
Encoding: 110 110 81
Width: 896
GlyphClass: 2
Flags: W
LayerCount: 2
Fore
SplineSet
128 0 m 1,0,-1
 128 896 l 1,1,-1
 256 896 l 1,2,-1
 256 768 l 1,3,-1
 384 768 l 1,4,-1
 384 896 l 1,5,-1
 640 896 l 1,6,-1
 640 768 l 1,7,-1
 384 768 l 1,8,-1
 384 640 l 1,9,-1
 256 640 l 1,10,-1
 256 0 l 1,11,-1
 128 0 l 1,0,-1
640 768 m 1,12,-1
 768 768 l 1,13,-1
 768 0 l 1,14,-1
 640 0 l 1,15,-1
 640 768 l 1,12,-1
EndSplineSet
Validated: 5
EndChar

StartChar: o
Encoding: 111 111 82
Width: 896
GlyphClass: 2
Flags: W
LayerCount: 2
Fore
SplineSet
128 128 m 1,0,-1
 128 768 l 1,1,-1
 256 768 l 1,2,-1
 256 896 l 1,3,-1
 640 896 l 1,4,-1
 640 768 l 1,5,-1
 256 768 l 1,6,-1
 256 128 l 1,7,-1
 128 128 l 1,0,-1
640 768 m 1,8,-1
 768 768 l 1,9,-1
 768 128 l 1,10,-1
 640 128 l 1,11,-1
 640 768 l 1,8,-1
640 128 m 1,12,-1
 640 0 l 1,13,-1
 256 0 l 1,14,-1
 256 128 l 1,15,-1
 640 128 l 1,12,-1
EndSplineSet
Validated: 5
EndChar

StartChar: p
Encoding: 112 112 83
Width: 896
GlyphClass: 2
Flags: W
LayerCount: 2
Fore
SplineSet
128 -128 m 1,0,-1
 128 1152 l 1,1,-1
 256 1152 l 1,2,-1
 256 1024 l 1,3,-1
 384 1024 l 1,4,-1
 384 1152 l 1,5,-1
 512 1152 l 1,6,-1
 512 1024 l 1,7,-1
 384 1024 l 1,8,-1
 384 896 l 1,9,-1
 256 896 l 1,10,-1
 256 384 l 1,11,-1
 384 384 l 1,12,-1
 384 256 l 1,13,-1
 256 256 l 1,14,-1
 256 -128 l 1,15,-1
 128 -128 l 1,0,-1
512 1024 m 1,16,-1
 640 1024 l 1,17,-1
 640 256 l 1,18,-1
 512 256 l 1,19,-1
 512 1024 l 1,16,-1
512 256 m 1,20,-1
 512 128 l 1,21,-1
 384 128 l 1,22,-1
 384 256 l 1,23,-1
 512 256 l 1,20,-1
EndSplineSet
EndChar

StartChar: q
Encoding: 113 113 84
Width: 896
GlyphClass: 2
Flags: W
LayerCount: 2
Fore
SplineSet
510 -128 m 1,0,-1
 510 256 l 1,1,-1
 382 256 l 1,2,-1
 382 384 l 1,3,-1
 510 384 l 1,4,-1
 510 640 l 1,5,-1
 382 640 l 1,6,-1
 382 768 l 1,7,-1
 510 768 l 1,8,-1
 510 896 l 1,9,-1
 638 896 l 1,10,-1
 638 -128 l 1,11,-1
 510 -128 l 1,0,-1
128 256 m 1,12,-1
 128 768 l 1,13,-1
 256 768 l 1,14,-1
 256 896 l 1,15,-1
 382 896 l 1,16,-1
 382 768 l 1,17,-1
 256 768 l 1,18,-1
 256 256 l 1,19,-1
 128 256 l 1,12,-1
382 256 m 1,20,-1
 382 128 l 1,21,-1
 256 128 l 1,22,-1
 256 256 l 1,23,-1
 382 256 l 1,20,-1
EndSplineSet
EndChar

StartChar: r
Encoding: 114 114 85
Width: 896
GlyphClass: 2
Flags: W
LayerCount: 2
Fore
SplineSet
256 0 m 1,0,-1
 256 896 l 1,1,-1
 384 896 l 1,2,-1
 384 768 l 1,3,-1
 512 768 l 1,4,-1
 512 896 l 1,5,-1
 768 896 l 1,6,-1
 768 768 l 1,7,-1
 512 768 l 1,8,-1
 512 640 l 1,9,-1
 384 640 l 1,10,-1
 384 0 l 1,11,-1
 256 0 l 1,0,-1
EndSplineSet
Validated: 5
EndChar

StartChar: s
Encoding: 115 115 86
Width: 896
GlyphClass: 2
Flags: W
LayerCount: 2
Fore
SplineSet
128 512 m 1,0,-1
 128 768 l 1,1,-1
 256 768 l 1,2,-1
 256 896 l 1,3,-1
 640 896 l 1,4,-1
 640 768 l 1,5,-1
 256 768 l 1,6,-1
 256 512 l 1,7,-1
 128 512 l 1,0,-1
128 128 m 1,8,-1
 128 256 l 1,9,-1
 256 256 l 1,10,-1
 256 128 l 1,11,-1
 128 128 l 1,8,-1
640 768 m 1,12,-1
 768 768 l 1,13,-1
 768 640 l 1,14,-1
 640 640 l 1,15,-1
 640 768 l 1,12,-1
256 512 m 1,16,-1
 640 512 l 1,17,-1
 640 384 l 1,18,-1
 256 384 l 1,19,-1
 256 512 l 1,16,-1
640 384 m 1,20,-1
 768 384 l 1,21,-1
 768 128 l 1,22,-1
 640 128 l 1,23,-1
 640 384 l 1,20,-1
640 128 m 1,24,-1
 640 0 l 1,25,-1
 256 0 l 1,26,-1
 256 128 l 1,27,-1
 640 128 l 1,24,-1
EndSplineSet
Validated: 5
EndChar

StartChar: t
Encoding: 116 116 87
Width: 896
GlyphClass: 2
Flags: W
LayerCount: 2
Fore
SplineSet
256 128 m 1,0,-1
 256 768 l 1,1,-1
 128 768 l 1,2,-1
 128 896 l 1,3,-1
 256 896 l 1,4,-1
 256 1280 l 1,5,-1
 384 1280 l 1,6,-1
 384 896 l 1,7,-1
 512 896 l 1,8,-1
 512 768 l 1,9,-1
 384 768 l 1,10,-1
 384 128 l 1,11,-1
 256 128 l 1,0,-1
384 128 m 1,12,-1
 640 128 l 1,13,-1
 640 0 l 1,14,-1
 384 0 l 1,15,-1
 384 128 l 1,12,-1
EndSplineSet
Validated: 5
EndChar

StartChar: u
Encoding: 117 117 88
Width: 896
GlyphClass: 2
Flags: W
LayerCount: 2
Fore
SplineSet
640 0 m 1,0,-1
 640 128 l 1,1,-1
 512 128 l 1,2,-1
 512 256 l 1,3,-1
 640 256 l 1,4,-1
 640 896 l 1,5,-1
 768 896 l 1,6,-1
 768 0 l 1,7,-1
 640 0 l 1,0,-1
128 128 m 1,8,-1
 128 896 l 1,9,-1
 256 896 l 1,10,-1
 256 128 l 1,11,-1
 128 128 l 1,8,-1
512 128 m 1,12,-1
 512 0 l 1,13,-1
 256 0 l 1,14,-1
 256 128 l 1,15,-1
 512 128 l 1,12,-1
EndSplineSet
Validated: 5
EndChar

StartChar: v
Encoding: 118 118 89
Width: 896
GlyphClass: 2
Flags: W
LayerCount: 2
Fore
SplineSet
128 640 m 1,0,-1
 128 896 l 1,1,-1
 256 896 l 1,2,-1
 256 640 l 1,3,-1
 128 640 l 1,0,-1
640 640 m 1,4,-1
 640 896 l 1,5,-1
 768 896 l 1,6,-1
 768 640 l 1,7,-1
 640 640 l 1,4,-1
640 640 m 1,8,-1
 640 256 l 1,9,-1
 512 256 l 1,10,-1
 512 640 l 1,11,-1
 640 640 l 1,8,-1
256 640 m 1,12,-1
 384 640 l 1,13,-1
 384 256 l 1,14,-1
 256 256 l 1,15,-1
 256 640 l 1,12,-1
512 256 m 1,16,-1
 512 0 l 1,17,-1
 384 0 l 1,18,-1
 384 256 l 1,19,-1
 512 256 l 1,16,-1
EndSplineSet
Validated: 5
EndChar

StartChar: w
Encoding: 119 119 90
Width: 896
GlyphClass: 2
Flags: W
LayerCount: 2
Fore
SplineSet
128 384 m 1,0,-1
 128 896 l 1,1,-1
 256 896 l 1,2,-1
 256 384 l 1,3,-1
 128 384 l 1,0,-1
640 384 m 1,4,-1
 640 896 l 1,5,-1
 768 896 l 1,6,-1
 768 384 l 1,7,-1
 640 384 l 1,4,-1
640 384 m 1,8,-1
 640 0 l 1,9,-1
 512 0 l 1,10,-1
 512 384 l 1,11,-1
 384 384 l 1,12,-1
 384 896 l 1,13,-1
 512 896 l 1,14,-1
 512 384 l 1,15,-1
 640 384 l 1,8,-1
384 384 m 1,16,-1
 384 0 l 1,17,-1
 256 0 l 1,18,-1
 256 384 l 1,19,-1
 384 384 l 1,16,-1
EndSplineSet
Validated: 5
EndChar

StartChar: x
Encoding: 120 120 91
Width: 896
GlyphClass: 2
Flags: W
LayerCount: 2
Fore
SplineSet
128 768 m 1,0,-1
 128 896 l 1,1,-1
 256 896 l 1,2,-1
 256 768 l 1,3,-1
 128 768 l 1,0,-1
128 0 m 1,4,-1
 128 128 l 1,5,-1
 256 128 l 1,6,-1
 256 384 l 1,7,-1
 384 384 l 1,8,-1
 384 512 l 1,9,-1
 256 512 l 1,10,-1
 256 768 l 1,11,-1
 384 768 l 1,12,-1
 384 512 l 1,13,-1
 512 512 l 1,14,-1
 512 768 l 1,15,-1
 640 768 l 1,16,-1
 640 896 l 1,17,-1
 768 896 l 1,18,-1
 768 768 l 1,19,-1
 640 768 l 1,20,-1
 640 512 l 1,21,-1
 512 512 l 1,22,-1
 512 384 l 1,23,-1
 384 384 l 1,24,-1
 384 128 l 1,25,-1
 256 128 l 1,26,-1
 256 0 l 1,27,-1
 128 0 l 1,4,-1
512 384 m 1,28,-1
 640 384 l 1,29,-1
 640 128 l 1,30,-1
 512 128 l 1,31,-1
 512 384 l 1,28,-1
640 128 m 1,32,-1
 768 128 l 1,33,-1
 768 0 l 1,34,-1
 640 0 l 1,35,-1
 640 128 l 1,32,-1
EndSplineSet
Validated: 5
EndChar

StartChar: y
Encoding: 121 121 92
Width: 896
GlyphClass: 2
Flags: W
LayerCount: 2
Fore
SplineSet
128 640 m 1,0,-1
 128 896 l 1,1,-1
 256 896 l 1,2,-1
 256 640 l 1,3,-1
 128 640 l 1,0,-1
128 -128 m 1,4,-1
 128 0 l 1,5,-1
 256 0 l 1,6,-1
 256 128 l 1,7,-1
 384 128 l 1,8,-1
 384 384 l 1,9,-1
 256 384 l 1,10,-1
 256 640 l 1,11,-1
 384 640 l 1,12,-1
 384 384 l 1,13,-1
 512 384 l 1,14,-1
 512 640 l 1,15,-1
 640 640 l 1,16,-1
 640 896 l 1,17,-1
 768 896 l 1,18,-1
 768 640 l 1,19,-1
 640 640 l 1,20,-1
 640 384 l 1,21,-1
 512 384 l 1,22,-1
 512 128 l 1,23,-1
 384 128 l 1,24,-1
 384 0 l 1,25,-1
 256 0 l 1,26,-1
 256 -128 l 1,27,-1
 128 -128 l 1,4,-1
EndSplineSet
Validated: 5
EndChar

StartChar: z
Encoding: 122 122 93
Width: 896
GlyphClass: 2
Flags: W
LayerCount: 2
Fore
SplineSet
128 0 m 1,0,-1
 128 256 l 1,1,-1
 256 256 l 1,2,-1
 256 384 l 1,3,-1
 384 384 l 1,4,-1
 384 512 l 1,5,-1
 512 512 l 1,6,-1
 512 640 l 1,7,-1
 640 640 l 1,8,-1
 640 768 l 1,9,-1
 128 768 l 1,10,-1
 128 896 l 1,11,-1
 768 896 l 1,12,-1
 768 640 l 1,13,-1
 640 640 l 1,14,-1
 640 512 l 1,15,-1
 512 512 l 1,16,-1
 512 384 l 1,17,-1
 384 384 l 1,18,-1
 384 256 l 1,19,-1
 256 256 l 1,20,-1
 256 128 l 1,21,-1
 768 128 l 1,22,-1
 768 0 l 1,23,-1
 128 0 l 1,0,-1
EndSplineSet
Validated: 5
EndChar

StartChar: braceleft
Encoding: 123 123 94
Width: 896
GlyphClass: 2
Flags: W
LayerCount: 2
Fore
SplineSet
384 1280 m 1024,0,-1
640 1408 m 1024,1,-1
640 -256 m 1,2,-1
 384 -256 l 1,3,-1
 384 -128 l 1,4,-1
 640 -128 l 1,5,-1
 640 -256 l 1,2,-1
384 1280 m 1,6,-1
 384 640 l 1,7,-1
 256 640 l 1,8,-1
 256 512 l 1,9,-1
 384 512 l 1,10,-1
 384 -128 l 1,11,-1
 256 -128 l 1,12,-1
 256 512 l 1,13,-1
 128 512 l 1,14,-1
 128 640 l 1,15,-1
 256 640 l 1,16,-1
 256 1280 l 1,17,-1
 384 1280 l 1,6,-1
384 1280 m 1,18,-1
 384 1408 l 1,19,-1
 640 1408 l 1,20,-1
 640 1280 l 1,21,-1
 384 1280 l 1,18,-1
EndSplineSet
Validated: 5
EndChar

StartChar: bar
Encoding: 124 124 95
Width: 896
GlyphClass: 2
Flags: W
LayerCount: 2
Fore
SplineSet
256 1536 m 1,0,-1
 256 -128 l 1,1,-1
 128 -128 l 1,2,-1
 128 1536 l 1,3,-1
 256 1536 l 1,0,-1
EndSplineSet
Validated: 1
EndChar

StartChar: braceright
Encoding: 125 125 96
Width: 896
GlyphClass: 2
Flags: W
LayerCount: 2
Fore
SplineSet
384 -128 m 1024,0,-1
128 -256 m 1024,1,-1
128 1408 m 1,2,-1
 384 1408 l 1,3,-1
 384 1280 l 1,4,-1
 128 1280 l 1,5,-1
 128 1408 l 1,2,-1
384 -128 m 1,6,-1
 384 512 l 1,7,-1
 512 512 l 1,8,-1
 512 640 l 1,9,-1
 384 640 l 1,10,-1
 384 1280 l 1,11,-1
 512 1280 l 1,12,-1
 512 640 l 1,13,-1
 640 640 l 1,14,-1
 640 512 l 1,15,-1
 512 512 l 1,16,-1
 512 -128 l 1,17,-1
 384 -128 l 1,6,-1
384 -128 m 1,18,-1
 384 -256 l 1,19,-1
 128 -256 l 1,20,-1
 128 -128 l 1,21,-1
 384 -128 l 1,18,-1
EndSplineSet
Validated: 5
EndChar

StartChar: asciitilde
Encoding: 126 126 97
Width: 896
GlyphClass: 2
Flags: W
LayerCount: 2
Fore
SplineSet
128 640 m 1,0,-1
 128 768 l 1,1,-1
 256 768 l 1,2,-1
 256 896 l 1,3,-1
 512 896 l 1,4,-1
 512 768 l 1,5,-1
 256 768 l 1,6,-1
 256 640 l 1,7,-1
 128 640 l 1,0,-1
768 768 m 1,8,-1
 768 896 l 1,9,-1
 896 896 l 1,10,-1
 896 768 l 1,11,-1
 768 768 l 1,8,-1
768 768 m 1,12,-1
 768 640 l 1,13,-1
 512 640 l 1,14,-1
 512 768 l 1,15,-1
 768 768 l 1,12,-1
EndSplineSet
Validated: 5
EndChar

StartChar: exclamdown
Encoding: 161 161 99
Width: 896
GlyphClass: 2
Flags: W
LayerCount: 2
Fore
SplineSet
256 768 m 1,0,-1
 256 -128 l 1,1,-1
 128 -128 l 1,2,-1
 128 768 l 1,3,-1
 256 768 l 1,0,-1
256 1280 m 1,4,-1
 256 1024 l 1,5,-1
 128 1024 l 1,6,-1
 128 1280 l 1,7,-1
 256 1280 l 1,4,-1
EndSplineSet
Validated: 1
EndChar

StartChar: cent
Encoding: 162 162 100
Width: 896
GlyphClass: 2
Flags: W
LayerCount: 2
Fore
SplineSet
128 256 m 1,0,-1
 128 896 l 1,1,-1
 256 896 l 1,2,-1
 256 256 l 1,3,-1
 640 256 l 1,4,-1
 640 128 l 1,5,-1
 512 128 l 1,6,-1
 512 -128 l 1,7,-1
 384 -128 l 1,8,-1
 384 128 l 1,9,-1
 256 128 l 1,10,-1
 256 256 l 1,11,-1
 128 256 l 1,0,-1
640 256 m 1,12,-1
 640 384 l 1,13,-1
 768 384 l 1,14,-1
 768 256 l 1,15,-1
 640 256 l 1,12,-1
640 896 m 1,16,-1
 768 896 l 1,17,-1
 768 768 l 1,18,-1
 640 768 l 1,19,-1
 640 896 l 1,16,-1
640 896 m 1,20,-1
 256 896 l 1,21,-1
 256 1024 l 1,22,-1
 384 1024 l 1,23,-1
 384 1280 l 1,24,-1
 512 1280 l 1,25,-1
 512 1024 l 1,26,-1
 640 1024 l 1,27,-1
 640 896 l 1,20,-1
EndSplineSet
Validated: 5
EndChar

StartChar: sterling
Encoding: 163 163 101
Width: 896
GlyphClass: 2
Flags: W
LayerCount: 2
Fore
SplineSet
768 128 m 1,0,-1
 768 256 l 1,1,-1
 896 256 l 1,2,-1
 896 128 l 1,3,-1
 768 128 l 1,0,-1
384 1280 m 1024,4,-1
640 1152 m 1,5,-1
 512 1152 l 1,6,-1
 512 1280 l 1,7,-1
 640 1280 l 1,8,-1
 640 1152 l 1,5,-1
384 1408 m 1,9,-1
 512 1408 l 1,10,-1
 512 1280 l 1,11,-1
 384 1280 l 1,12,-1
 384 1408 l 1,9,-1
128 0 m 1,13,-1
 128 128 l 1,14,-1
 256 128 l 1,15,-1
 256 640 l 1,16,-1
 128 640 l 1,17,-1
 128 768 l 1,18,-1
 256 768 l 1,19,-1
 256 1280 l 1,20,-1
 384 1280 l 1,21,-1
 384 768 l 1,22,-1
 512 768 l 1,23,-1
 512 640 l 1,24,-1
 384 640 l 1,25,-1
 384 128 l 1,26,-1
 768 128 l 1,27,-1
 768 0 l 1,28,-1
 128 0 l 1,13,-1
EndSplineSet
Validated: 5
EndChar

StartChar: currency
Encoding: 164 164 102
Width: 896
GlyphClass: 2
Flags: W
LayerCount: 2
Fore
SplineSet
640 512 m 1,0,-1
 640 768 l 1,1,-1
 384 768 l 1,2,-1
 384 512 l 1,3,-1
 640 512 l 1,0,-1
128 1024 m 1,4,-1
 256 1024 l 1,5,-1
 256 896 l 1,6,-1
 128 896 l 1,7,-1
 128 1024 l 1,4,-1
768 1024 m 1,8,-1
 896 1024 l 1,9,-1
 896 896 l 1,10,-1
 768 896 l 1,11,-1
 768 1024 l 1,8,-1
256 896 m 1,12,-1
 768 896 l 1,13,-1
 768 384 l 1,14,-1
 896 384 l 1,15,-1
 896 256 l 1,16,-1
 768 256 l 1,17,-1
 768 384 l 1,18,-1
 256 384 l 1,19,-1
 256 256 l 1,20,-1
 128 256 l 1,21,-1
 128 384 l 1,22,-1
 256 384 l 1,23,-1
 256 896 l 1,12,-1
EndSplineSet
Validated: 5
EndChar

StartChar: yen
Encoding: 165 165 103
Width: 896
GlyphClass: 2
Flags: W
LayerCount: 2
Fore
SplineSet
128 1024 m 1,0,-1
 128 1408 l 1,1,-1
 256 1408 l 1,2,-1
 256 1024 l 1,3,-1
 128 1024 l 1,0,-1
640 1024 m 1,4,-1
 640 1408 l 1,5,-1
 768 1408 l 1,6,-1
 768 1024 l 1,7,-1
 640 1024 l 1,4,-1
640 1024 m 1,8,-1
 640 768 l 1,9,-1
 512 768 l 1,10,-1
 512 1024 l 1,11,-1
 640 1024 l 1,8,-1
256 1024 m 1,12,-1
 384 1024 l 1,13,-1
 384 768 l 1,14,-1
 256 768 l 1,15,-1
 256 1024 l 1,12,-1
512 768 m 1,16,-1
 512 640 l 1,17,-1
 640 640 l 1,18,-1
 640 512 l 1,19,-1
 512 512 l 1,20,-1
 512 384 l 1,21,-1
 640 384 l 1,22,-1
 640 256 l 1,23,-1
 512 256 l 1,24,-1
 512 0 l 1,25,-1
 384 0 l 1,26,-1
 384 256 l 1,27,-1
 256 256 l 1,28,-1
 256 384 l 1,29,-1
 384 384 l 1,30,-1
 384 512 l 1,31,-1
 256 512 l 1,32,-1
 256 640 l 1,33,-1
 384 640 l 1,34,-1
 384 768 l 1,35,-1
 512 768 l 1,16,-1
EndSplineSet
Validated: 5
EndChar

StartChar: brokenbar
Encoding: 166 166 104
Width: 896
GlyphClass: 2
Flags: W
LayerCount: 2
Fore
SplineSet
256 1536 m 1,0,-1
 256 896 l 1,1,-1
 128 896 l 1,2,-1
 128 1536 l 1,3,-1
 256 1536 l 1,0,-1
256 512 m 1,4,-1
 256 -128 l 1,5,-1
 128 -128 l 1,6,-1
 128 512 l 1,7,-1
 256 512 l 1,4,-1
EndSplineSet
Validated: 1
EndChar

StartChar: section
Encoding: 167 167 105
Width: 896
GlyphClass: 2
Flags: W
LayerCount: 2
Fore
SplineSet
256 896 m 1024,0,-1
128 512 m 1,1,-1
 128 768 l 1,2,-1
 256 768 l 1,3,-1
 256 896 l 1,4,-1
 640 896 l 1,5,-1
 640 768 l 1,6,-1
 256 768 l 1,7,-1
 256 512 l 1,8,-1
 128 512 l 1,1,-1
128 128 m 1,9,-1
 128 256 l 1,10,-1
 256 256 l 1,11,-1
 256 128 l 1,12,-1
 128 128 l 1,9,-1
128 896 m 1,13,-1
 128 1152 l 1,14,-1
 256 1152 l 1,15,-1
 256 1280 l 1,16,-1
 640 1280 l 1,17,-1
 640 1152 l 1,18,-1
 256 1152 l 1,19,-1
 256 896 l 1,20,-1
 128 896 l 1,13,-1
640 768 m 1,21,-1
 768 768 l 1,22,-1
 768 512 l 1,23,-1
 640 512 l 1,24,-1
 640 768 l 1,21,-1
640 512 m 1,25,-1
 640 384 l 1,26,-1
 256 384 l 1,27,-1
 256 512 l 1,28,-1
 640 512 l 1,25,-1
640 384 m 1,29,-1
 768 384 l 1,30,-1
 768 128 l 1,31,-1
 640 128 l 1,32,-1
 640 384 l 1,29,-1
640 128 m 1,33,-1
 640 0 l 1,34,-1
 256 0 l 1,35,-1
 256 128 l 1,36,-1
 640 128 l 1,33,-1
640 1152 m 1,37,-1
 768 1152 l 1,38,-1
 768 1024 l 1,39,-1
 640 1024 l 1,40,-1
 640 1152 l 1,37,-1
EndSplineSet
Validated: 5
EndChar

StartChar: dieresis
Encoding: 168 168 106
Width: 896
GlyphClass: 2
Flags: W
LayerCount: 2
Fore
SplineSet
384 1408 m 1,0,-1
 384 1536 l 1,1,-1
 512 1536 l 1,2,-1
 512 1408 l 1,3,-1
 384 1408 l 1,0,-1
128 1408 m 1,4,-1
 128 1536 l 1,5,-1
 256 1536 l 1,6,-1
 256 1408 l 1,7,-1
 128 1408 l 1,4,-1
EndSplineSet
Validated: 1
EndChar

StartChar: copyright
Encoding: 169 169 107
Width: 896
GlyphClass: 2
Flags: W
LayerCount: 2
Fore
SplineSet
128 384 m 1,0,-1
 128 1024 l 1,1,-1
 256 1024 l 1,2,-1
 256 384 l 1,3,-1
 128 384 l 1,0,-1
384 128 m 1,4,-1
 384 256 l 1,5,-1
 896 256 l 1,6,-1
 896 128 l 1,7,-1
 384 128 l 1,4,-1
512 1023 m 1,8,-1
 768 1023 l 1,9,-1
 768 895 l 1,10,-1
 512 895 l 1,11,-1
 512 513 l 1,12,-1
 384 513 l 1,13,-1
 384 895 l 1,14,-1
 512 895 l 1,15,-1
 512 1023 l 1,8,-1
1024 384 m 1,16,-1
 1024 1024 l 1,17,-1
 896 1024 l 1,18,-1
 896 1152 l 1,19,-1
 1024 1152 l 1,20,-1
 1024 1024 l 1,21,-1
 1152 1024 l 1,22,-1
 1152 384 l 1,23,-1
 1024 384 l 1,16,-1
1024 384 m 1,24,-1
 1024 256 l 1,25,-1
 896 256 l 1,26,-1
 896 384 l 1,27,-1
 1024 384 l 1,24,-1
896 1152 m 1,28,-1
 384 1152 l 1,29,-1
 384 1024 l 1,30,-1
 256 1024 l 1,31,-1
 256 1152 l 1,32,-1
 384 1152 l 1,33,-1
 384 1280 l 1,34,-1
 896 1280 l 1,35,-1
 896 1152 l 1,28,-1
384 256 m 1,36,-1
 256 256 l 1,37,-1
 256 384 l 1,38,-1
 384 384 l 1,39,-1
 384 256 l 1,36,-1
512 513 m 1,40,-1
 768 513 l 1,41,-1
 768 385 l 1,42,-1
 512 385 l 1,43,-1
 512 513 l 1,40,-1
EndSplineSet
Validated: 5
EndChar

StartChar: guillemotleft
Encoding: 171 171 108
Width: 896
GlyphClass: 2
Flags: W
LayerCount: 2
Fore
SplineSet
1018 896 m 1,0,-1
 1018 768 l 1,1,-1
 890 768 l 1,2,-1
 890 640 l 1,3,-1
 765 640 l 1,4,-1
 764 512 l 1,5,-1
 636 512 l 1,6,-1
 636 384 l 1,7,-1
 508 384 l 1,8,-1
 508 512 l 1,9,-1
 636 512 l 1,10,-1
 636 640 l 1,11,-1
 764 640 l 1,12,-1
 764 768 l 1,13,-1
 890 768 l 1,14,-1
 890 896 l 1,15,-1
 1018 896 l 1,0,-1
1018 128 m 1,16,-1
 1018 0 l 1,17,-1
 890 0 l 1,18,-1
 890 128 l 1,19,-1
 764 128 l 1,20,-1
 764 256 l 1,21,-1
 636 256 l 1,22,-1
 636 384 l 1,23,-1
 764 384 l 1,24,-1
 764 256 l 1,25,-1
 890 256 l 1,26,-1
 890 128 l 1,27,-1
 1018 128 l 1,16,-1
638 896 m 1,28,-1
 638 768 l 1,29,-1
 510 768 l 1,30,-1
 510 640 l 1,31,-1
 385 640 l 1,32,-1
 384 512 l 1,33,-1
 256 512 l 1,34,-1
 256 384 l 1,35,-1
 128 384 l 1,36,-1
 128 512 l 1,37,-1
 256 512 l 1,38,-1
 256 640 l 1,39,-1
 384 640 l 1,40,-1
 384 768 l 1,41,-1
 510 768 l 1,42,-1
 510 896 l 1,43,-1
 638 896 l 1,28,-1
638 128 m 1,44,-1
 638 0 l 1,45,-1
 510 0 l 1,46,-1
 510 128 l 1,47,-1
 384 128 l 1,48,-1
 384 256 l 1,49,-1
 256 256 l 1,50,-1
 256 384 l 1,51,-1
 384 384 l 1,52,-1
 384 256 l 1,53,-1
 510 256 l 1,54,-1
 510 128 l 1,55,-1
 638 128 l 1,44,-1
EndSplineSet
Validated: 5
EndChar

StartChar: registered
Encoding: 174 174 109
Width: 896
GlyphClass: 2
Flags: W
LayerCount: 2
Fore
SplineSet
512 384 m 1024,0,-1
384 128 m 1,1,-1
 384 256 l 1,2,-1
 896 256 l 1,3,-1
 896 128 l 1,4,-1
 384 128 l 1,1,-1
128 384 m 1,5,-1
 128 1024 l 1,6,-1
 256 1024 l 1,7,-1
 256 1152 l 1,8,-1
 384 1152 l 1,9,-1
 384 1280 l 1,10,-1
 896 1280 l 1,11,-1
 896 1152 l 1,12,-1
 384 1152 l 1,13,-1
 384 1024 l 1,14,-1
 256 1024 l 1,15,-1
 256 384 l 1,16,-1
 384 384 l 1,17,-1
 384 1024 l 1,18,-1
 512 1023 l 1,19,-1
 768 1023 l 1,20,-1
 768 895 l 1,21,-1
 898 896 l 1,22,-1
 898 640 l 1,23,-1
 768 640 l 1,24,-1
 768 512 l 1,25,-1
 896 512 l 1,26,-1
 896 384 l 1,27,-1
 768 384 l 1,28,-1
 768 512 l 1,29,-1
 512 512 l 1,30,-1
 512 384 l 1,31,-1
 384 384 l 1,32,-1
 384 256 l 1,33,-1
 256 256 l 1,34,-1
 256 384 l 1,35,-1
 128 384 l 1,5,-1
768 640 m 1,36,-1
 768 895 l 1,37,-1
 512 895 l 1,38,-1
 512 640 l 1,39,-1
 768 640 l 1,36,-1
896 384 m 1,40,-1
 1024 384 l 1,41,-1
 1024 256 l 1,42,-1
 896 256 l 1,43,-1
 896 384 l 1,40,-1
896 1152 m 1,44,-1
 1024 1152 l 1,45,-1
 1024 1024 l 1,46,-1
 1152 1024 l 1,47,-1
 1152 384 l 1,48,-1
 1024 384 l 1,49,-1
 1024 1024 l 1,50,-1
 896 1024 l 1,51,-1
 896 1152 l 1,44,-1
EndSplineSet
Validated: 5
EndChar

StartChar: degree
Encoding: 176 176 110
Width: 896
GlyphClass: 2
Flags: W
LayerCount: 2
Fore
SplineSet
128 1024 m 1,0,-1
 128 1280 l 1,1,-1
 256 1280 l 1,2,-1
 256 1408 l 1,3,-1
 512 1408 l 1,4,-1
 512 1280 l 1,5,-1
 256 1280 l 1,6,-1
 256 1024 l 1,7,-1
 128 1024 l 1,0,-1
512 1280 m 1,8,-1
 640 1280 l 1,9,-1
 640 1024 l 1,10,-1
 512 1024 l 1,11,-1
 512 1280 l 1,8,-1
512 1024 m 1,12,-1
 512 896 l 1,13,-1
 256 896 l 1,14,-1
 256 1024 l 1,15,-1
 512 1024 l 1,12,-1
EndSplineSet
Validated: 5
EndChar

StartChar: plusminus
Encoding: 177 177 111
Width: 896
GlyphClass: 2
Flags: W
LayerCount: 2
Fore
SplineSet
128 256 m 1,0,-1
 768 256 l 1,1,-1
 768 128 l 1,2,-1
 128 128 l 1,3,-1
 128 256 l 1,0,-1
128 640 m 1,4,-1
 128 768 l 1,5,-1
 384 768 l 1,6,-1
 384 1024 l 1,7,-1
 512 1024 l 1,8,-1
 512 768 l 1,9,-1
 768 768 l 1,10,-1
 768 640 l 1,11,-1
 512 640 l 1,12,-1
 512 384 l 1,13,-1
 384 384 l 1,14,-1
 384 640 l 1,15,-1
 128 640 l 1,4,-1
EndSplineSet
Validated: 1
EndChar

StartChar: uni00B2
Encoding: 178 178 112
Width: 896
GlyphClass: 2
Flags: W
LayerCount: 2
Fore
SplineSet
256 896 m 1,0,-1
 256 1023 l 1,1,-1
 384 1024 l 1,2,-1
 384 896 l 1,3,-1
 640 896 l 1,4,-1
 640 768 l 1,5,-1
 128 768 l 1,6,-1
 128 896 l 1,7,-1
 256 896 l 1,0,-1
256 1408 m 1,8,-1
 512 1408 l 1,9,-1
 512 1280 l 1,10,-1
 256 1280 l 1,11,-1
 256 1152 l 1,12,-1
 128 1152 l 1,13,-1
 128 1280 l 1,14,-1
 256 1280 l 1,15,-1
 256 1408 l 1,8,-1
384 1024 m 1,16,-1
 384 1152 l 1,17,-1
 512 1152 l 1,18,-1
 512 1024 l 1,19,-1
 384 1024 l 1,16,-1
512 1152 m 1,20,-1
 512 1280 l 1,21,-1
 640 1280 l 1,22,-1
 640 1152 l 1,23,-1
 512 1152 l 1,20,-1
EndSplineSet
Validated: 5
EndChar

StartChar: uni00B3
Encoding: 179 179 113
Width: 896
GlyphClass: 2
Flags: W
LayerCount: 2
Fore
SplineSet
384 1024 m 1024,0,-1
384 896 m 1024,1,-1
384 1280 m 1024,2,-1
256 1024 m 1,3,-1
 256 1152 l 1,4,-1
 384 1152 l 1,5,-1
 384 1024 l 1,6,-1
 256 1024 l 1,3,-1
128 1408 m 1,7,-1
 384 1408 l 1,8,-1
 384 1280 l 1,9,-1
 512 1280 l 1,10,-1
 512 1152 l 1,11,-1
 384 1152 l 1,12,-1
 384 1280 l 1,13,-1
 128 1280 l 1,14,-1
 128 1408 l 1,7,-1
384 1024 m 1,15,-1
 512 1024 l 1,16,-1
 512 896 l 1,17,-1
 384 896 l 1,18,-1
 384 1024 l 1,15,-1
384 896 m 1,19,-1
 384 770 l 1,20,-1
 128 768 l 1,21,-1
 128 896 l 1,22,-1
 384 896 l 1,19,-1
EndSplineSet
Validated: 5
EndChar

StartChar: acute
Encoding: 180 180 114
Width: 896
GlyphClass: 2
Flags: W
LayerCount: 2
Fore
SplineSet
384 1536 m 1,0,-1
 256 1536 l 1,1,-1
 256 1664 l 1,2,-1
 384 1664 l 1,3,-1
 384 1536 l 1,0,-1
256 1536 m 1,4,-1
 256 1408 l 1,5,-1
 128 1408 l 1,6,-1
 128 1536 l 1,7,-1
 256 1536 l 1,4,-1
EndSplineSet
Validated: 5
EndChar

StartChar: mu
Encoding: 181 181 115
Width: 896
GlyphClass: 2
Flags: W
LayerCount: 2
Fore
SplineSet
256 -128 m 1,0,-1
 128 -128 l 1,1,-1
 128 896 l 1,2,-1
 256 896 l 1,3,-1
 256 256 l 1,4,-1
 384 256 l 1,5,-1
 384 128 l 1,6,-1
 256 128 l 1,7,-1
 256 -128 l 1,0,-1
768 128 m 1,8,-1
 640 128 l 1,9,-1
 640 896 l 1,10,-1
 768 896 l 1,11,-1
 768 128 l 1,8,-1
384 128 m 1,12,-1
 640 128 l 1,13,-1
 640 0 l 1,14,-1
 384 0 l 1,15,-1
 384 128 l 1,12,-1
EndSplineSet
Validated: 5
EndChar

StartChar: periodcentered
Encoding: 183 183 116
Width: 896
GlyphClass: 2
Flags: W
LayerCount: 2
Fore
SplineSet
128 512 m 1,0,-1
 128 768 l 1,1,-1
 384 768 l 1,2,-1
 384 512 l 1,3,-1
 128 512 l 1,0,-1
EndSplineSet
Validated: 1
EndChar

StartChar: cedilla
Encoding: 184 184 117
Width: 896
GlyphClass: 2
Flags: W
LayerCount: 2
Fore
SplineSet
128 256 m 1024,0,-1
512 256 m 1024,1,-1
128 -256 m 1,2,-1
 128 -128 l 1,3,-1
 384 -128 l 1,4,-1
 384 0 l 1,5,-1
 512 0 l 1,6,-1
 512 -256 l 1,7,-1
 128 -256 l 1,2,-1
256 0 m 1,8,-1
 256 128 l 1,9,-1
 128 128 l 1,10,-1
 128 256 l 1,11,-1
 512 256 l 1,12,-1
 512 128 l 1,13,-1
 384 128 l 1,14,-1
 384 0 l 1,15,-1
 256 0 l 1,8,-1
EndSplineSet
Validated: 5
EndChar

StartChar: uni00B9
Encoding: 185 185 118
Width: 896
GlyphClass: 2
Flags: W
LayerCount: 2
Fore
SplineSet
256 1408 m 1,0,-1
 384 1408 l 1,1,-1
 384 896 l 1,2,-1
 512 896 l 1,3,-1
 512 768 l 1,4,-1
 128 768 l 1,5,-1
 128 896 l 1,6,-1
 256 896 l 1,7,-1
 256 1152 l 1,8,-1
 128 1152 l 1,9,-1
 128 1280 l 1,10,-1
 256 1280 l 1,11,-1
 256 1408 l 1,0,-1
EndSplineSet
Validated: 1
EndChar

StartChar: ordmasculine
Encoding: 186 186 119
Width: 896
GlyphClass: 2
Flags: W
LayerCount: 2
Fore
SplineSet
128 896 m 1,0,-1
 128 1280 l 1,1,-1
 256 1280 l 1,2,-1
 256 1408 l 1,3,-1
 512 1408 l 1,4,-1
 512 1280 l 1,5,-1
 256 1280 l 1,6,-1
 256 896 l 1,7,-1
 128 896 l 1,0,-1
512 1280 m 1,8,-1
 640 1280 l 1,9,-1
 640 896 l 1,10,-1
 512 896 l 1,11,-1
 512 1280 l 1,8,-1
512 896 m 1,12,-1
 512 768 l 1,13,-1
 256 768 l 1,14,-1
 256 896 l 1,15,-1
 512 896 l 1,12,-1
EndSplineSet
Validated: 5
EndChar

StartChar: guillemotright
Encoding: 187 187 120
Width: 896
GlyphClass: 2
Flags: W
LayerCount: 2
Fore
SplineSet
128 0 m 1,0,-1
 128 128 l 1,1,-1
 256 128 l 1,2,-1
 256 256 l 1,3,-1
 381 256 l 1,4,-1
 382 384 l 1,5,-1
 510 384 l 1,6,-1
 510 512 l 1,7,-1
 638 512 l 1,8,-1
 638 384 l 1,9,-1
 510 384 l 1,10,-1
 510 256 l 1,11,-1
 382 256 l 1,12,-1
 382 128 l 1,13,-1
 256 128 l 1,14,-1
 256 0 l 1,15,-1
 128 0 l 1,0,-1
128 768 m 1,16,-1
 128 896 l 1,17,-1
 256 896 l 1,18,-1
 256 768 l 1,19,-1
 382 768 l 1,20,-1
 382 640 l 1,21,-1
 510 640 l 1,22,-1
 510 512 l 1,23,-1
 382 512 l 1,24,-1
 382 640 l 1,25,-1
 256 640 l 1,26,-1
 256 768 l 1,27,-1
 128 768 l 1,16,-1
508 0 m 1,28,-1
 508 128 l 1,29,-1
 636 128 l 1,30,-1
 636 256 l 1,31,-1
 761 256 l 1,32,-1
 762 384 l 1,33,-1
 890 384 l 1,34,-1
 890 512 l 1,35,-1
 1018 512 l 1,36,-1
 1018 384 l 1,37,-1
 890 384 l 1,38,-1
 890 256 l 1,39,-1
 762 256 l 1,40,-1
 762 128 l 1,41,-1
 636 128 l 1,42,-1
 636 0 l 1,43,-1
 508 0 l 1,28,-1
508 768 m 1,44,-1
 508 896 l 1,45,-1
 636 896 l 1,46,-1
 636 768 l 1,47,-1
 762 768 l 1,48,-1
 762 640 l 1,49,-1
 890 640 l 1,50,-1
 890 512 l 1,51,-1
 762 512 l 1,52,-1
 762 640 l 1,53,-1
 636 640 l 1,54,-1
 636 768 l 1,55,-1
 508 768 l 1,44,-1
EndSplineSet
Validated: 5
EndChar

StartChar: questiondown
Encoding: 191 191 121
Width: 896
GlyphClass: 2
Flags: W
LayerCount: 2
Fore
SplineSet
640 -128 m 1,0,-1
 256 -128 l 1,1,-1
 256 0 l 1,2,-1
 640 0 l 1,3,-1
 640 383 l 1,4,-1
 768 383 l 1,5,-1
 768 0 l 1,6,-1
 640 0 l 1,7,-1
 640 -128 l 1,0,-1
512 1280 m 1,8,-1
 512 1024 l 1,9,-1
 384 1024 l 1,10,-1
 384 1280 l 1,11,-1
 512 1280 l 1,8,-1
512 768 m 1,12,-1
 512 512 l 1,13,-1
 384 512 l 1,14,-1
 384 384 l 1,15,-1
 256 384 l 1,16,-1
 256 0 l 1,17,-1
 128 0 l 1,18,-1
 128 384 l 1,19,-1
 256 384 l 1,20,-1
 256 512 l 1,21,-1
 384 512 l 1,22,-1
 384 768 l 1,23,-1
 512 768 l 1,12,-1
EndSplineSet
Validated: 5
EndChar

StartChar: Agrave
Encoding: 192 192 122
Width: 896
GlyphClass: 2
Flags: W
LayerCount: 2
Fore
SplineSet
256 1536 m 1,0,-1
 256 1664 l 1,1,-1
 384 1664 l 1,2,-1
 384 1536 l 1,3,-1
 256 1536 l 1,0,-1
128 0 m 1,4,-1
 128 512 l 1,5,-1
 256 512 l 1,6,-1
 256 1024 l 1,7,-1
 384 1024 l 1,8,-1
 384 1280 l 1,9,-1
 512 1280 l 1,10,-1
 512 1024 l 1,11,-1
 384 1024 l 1,12,-1
 384 512 l 1,13,-1
 512 512 l 1,14,-1
 512 1024 l 1,15,-1
 640 1024 l 1,16,-1
 640 512 l 1,17,-1
 768 512 l 1,18,-1
 768 0 l 1,19,-1
 640 0 l 1,20,-1
 640 384 l 1,21,-1
 256 384 l 1,22,-1
 256 0 l 1,23,-1
 128 0 l 1,4,-1
384 1536 m 1,24,-1
 512 1536 l 1,25,-1
 512 1408 l 1,26,-1
 384 1408 l 1,27,-1
 384 1536 l 1,24,-1
EndSplineSet
Validated: 5
EndChar

StartChar: Aacute
Encoding: 193 193 123
Width: 896
GlyphClass: 2
Flags: W
LayerCount: 2
Fore
SplineSet
384 1408 m 1,0,-1
 384 1536 l 1,1,-1
 512 1536 l 1,2,-1
 512 1664 l 1,3,-1
 640 1664 l 1,4,-1
 640 1536 l 1,5,-1
 512 1536 l 1,6,-1
 512 1408 l 1,7,-1
 384 1408 l 1,0,-1
128 0 m 1,8,-1
 128 512 l 1,9,-1
 256 512 l 1,10,-1
 256 1024 l 1,11,-1
 384 1024 l 1,12,-1
 384 1280 l 1,13,-1
 512 1280 l 1,14,-1
 512 1024 l 1,15,-1
 384 1024 l 1,16,-1
 384 512 l 1,17,-1
 512 512 l 1,18,-1
 512 1024 l 1,19,-1
 640 1024 l 1,20,-1
 640 512 l 1,21,-1
 768 512 l 1,22,-1
 768 0 l 1,23,-1
 640 0 l 1,24,-1
 640 384 l 1,25,-1
 256 384 l 1,26,-1
 256 0 l 1,27,-1
 128 0 l 1,8,-1
EndSplineSet
Validated: 5
EndChar

StartChar: Acircumflex
Encoding: 194 194 124
Width: 896
GlyphClass: 2
Flags: W
LayerCount: 2
Fore
SplineSet
256 1408 m 1,0,-1
 256 1536 l 1,1,-1
 384 1536 l 1,2,-1
 384 1664 l 1,3,-1
 512 1664 l 1,4,-1
 512 1536 l 1,5,-1
 384 1536 l 1,6,-1
 384 1408 l 1,7,-1
 256 1408 l 1,0,-1
128 0 m 1,8,-1
 128 512 l 1,9,-1
 256 512 l 1,10,-1
 256 1024 l 1,11,-1
 384 1024 l 1,12,-1
 384 1280 l 1,13,-1
 512 1280 l 1,14,-1
 512 1024 l 1,15,-1
 384 1024 l 1,16,-1
 384 512 l 1,17,-1
 512 512 l 1,18,-1
 512 1024 l 1,19,-1
 640 1024 l 1,20,-1
 640 512 l 1,21,-1
 768 512 l 1,22,-1
 768 0 l 1,23,-1
 640 0 l 1,24,-1
 640 384 l 1,25,-1
 256 384 l 1,26,-1
 256 0 l 1,27,-1
 128 0 l 1,8,-1
512 1536 m 1,28,-1
 640 1536 l 1,29,-1
 640 1408 l 1,30,-1
 512 1408 l 1,31,-1
 512 1536 l 1,28,-1
EndSplineSet
Validated: 5
EndChar

StartChar: Atilde
Encoding: 195 195 125
Width: 896
GlyphClass: 2
Flags: W
LayerCount: 2
Fore
SplineSet
128 1536 m 1,0,-1
 128 1664 l 1,1,-1
 256 1664 l 1,2,-1
 256 1536 l 1,3,-1
 128 1536 l 1,0,-1
128 0 m 1,4,-1
 128 512 l 1,5,-1
 256 512 l 1,6,-1
 256 1024 l 1,7,-1
 384 1024 l 1,8,-1
 384 1280 l 1,9,-1
 512 1280 l 1,10,-1
 512 1024 l 1,11,-1
 384 1024 l 1,12,-1
 384 512 l 1,13,-1
 512 512 l 1,14,-1
 512 1024 l 1,15,-1
 640 1024 l 1,16,-1
 640 512 l 1,17,-1
 768 512 l 1,18,-1
 768 0 l 1,19,-1
 640 0 l 1,20,-1
 640 384 l 1,21,-1
 256 384 l 1,22,-1
 256 0 l 1,23,-1
 128 0 l 1,4,-1
256 1536 m 1,24,-1
 384 1536 l 1,25,-1
 384 1408 l 1,26,-1
 256 1408 l 1,27,-1
 256 1536 l 1,24,-1
384 1536 m 1,28,-1
 384 1664 l 1,29,-1
 512 1664 l 1,30,-1
 512 1536 l 1,31,-1
 384 1536 l 1,28,-1
512 1536 m 1,32,-1
 640 1536 l 1,33,-1
 640 1408 l 1,34,-1
 512 1408 l 1,35,-1
 512 1536 l 1,32,-1
EndSplineSet
Validated: 5
EndChar

StartChar: Adieresis
Encoding: 196 196 126
Width: 896
GlyphClass: 2
Flags: W
LayerCount: 2
Fore
SplineSet
512 1408 m 1,0,-1
 512 1536 l 1,1,-1
 640 1536 l 1,2,-1
 640 1408 l 1,3,-1
 512 1408 l 1,0,-1
256 1408 m 1,4,-1
 256 1536 l 1,5,-1
 384 1536 l 1,6,-1
 384 1408 l 1,7,-1
 256 1408 l 1,4,-1
128 0 m 1,8,-1
 128 512 l 1,9,-1
 256 512 l 1,10,-1
 256 1024 l 1,11,-1
 384 1024 l 1,12,-1
 384 1280 l 1,13,-1
 512 1280 l 1,14,-1
 512 1024 l 1,15,-1
 384 1024 l 1,16,-1
 384 512 l 1,17,-1
 512 512 l 1,18,-1
 512 1024 l 1,19,-1
 640 1024 l 1,20,-1
 640 512 l 1,21,-1
 768 512 l 1,22,-1
 768 0 l 1,23,-1
 640 0 l 1,24,-1
 640 384 l 1,25,-1
 256 384 l 1,26,-1
 256 0 l 1,27,-1
 128 0 l 1,8,-1
EndSplineSet
Validated: 5
EndChar

StartChar: Aring
Encoding: 197 197 127
Width: 896
GlyphClass: 2
Flags: W
LayerCount: 2
Fore
SplineSet
256 1536 m 1,0,-1
 256 1664 l 1,1,-1
 384 1664 l 1,2,-1
 384 1536 l 1,3,-1
 256 1536 l 1,0,-1
128 0 m 1,4,-1
 128 512 l 1,5,-1
 256 512 l 1,6,-1
 256 1024 l 1,7,-1
 384 1024 l 1,8,-1
 384 1280 l 1,9,-1
 512 1280 l 1,10,-1
 512 1024 l 1,11,-1
 384 1024 l 1,12,-1
 384 512 l 1,13,-1
 512 512 l 1,14,-1
 512 1024 l 1,15,-1
 640 1024 l 1,16,-1
 640 512 l 1,17,-1
 768 512 l 1,18,-1
 768 0 l 1,19,-1
 640 0 l 1,20,-1
 640 384 l 1,21,-1
 256 384 l 1,22,-1
 256 0 l 1,23,-1
 128 0 l 1,4,-1
512 1664 m 1,24,-1
 640 1664 l 1,25,-1
 640 1536 l 1,26,-1
 512 1536 l 1,27,-1
 512 1664 l 1,24,-1
512 1664 m 1,28,-1
 384 1664 l 1,29,-1
 384 1792 l 1,30,-1
 512 1792 l 1,31,-1
 512 1664 l 1,28,-1
512 1536 m 1,32,-1
 512 1408 l 1,33,-1
 384 1408 l 1,34,-1
 384 1536 l 1,35,-1
 512 1536 l 1,32,-1
EndSplineSet
Validated: 5
EndChar

StartChar: AE
Encoding: 198 198 128
Width: 896
GlyphClass: 2
Flags: W
LayerCount: 2
Fore
SplineSet
128 0 m 1,0,-1
 128 512 l 1,1,-1
 256 512 l 1,2,-1
 256 1024 l 1,3,-1
 384 1024 l 1,4,-1
 384 1280 l 1,5,-1
 512 1280 l 1,6,-1
 512 1024 l 1,7,-1
 384 1024 l 1,8,-1
 384 512 l 1,9,-1
 512 512 l 1,10,-1
 512 1024 l 1,11,-1
 640 1024 l 1,12,-1
 640 1152 l 1,13,-1
 1024 1152 l 1,14,-1
 1024 1024 l 1,15,-1
 640 1024 l 1,16,-1
 640 512 l 1,17,-1
 896 512 l 1,18,-1
 896 384 l 1,19,-1
 640 384 l 1,20,-1
 640 128 l 1,21,-1
 1024 128 l 1,22,-1
 1024 0 l 1,23,-1
 512 0 l 1,24,-1
 512 384 l 1,25,-1
 256 384 l 1,26,-1
 256 0 l 1,27,-1
 128 0 l 1,0,-1
EndSplineSet
Validated: 5
EndChar

StartChar: Ccedilla
Encoding: 199 199 129
Width: 896
GlyphClass: 2
Flags: W
LayerCount: 2
Fore
SplineSet
128 384 m 1,0,-1
 128 1024 l 1,1,-1
 256 1024 l 1,2,-1
 256 1152 l 1,3,-1
 384 1152 l 1,4,-1
 384 1280 l 1,5,-1
 768 1280 l 1,6,-1
 768 1152 l 1,7,-1
 384 1152 l 1,8,-1
 384 1024 l 1,9,-1
 256 1024 l 1,10,-1
 256 384 l 1,11,-1
 128 384 l 1,0,-1
512 0 m 1,12,-1
 512 128 l 1,13,-1
 384 128 l 1,14,-1
 384 256 l 1,15,-1
 256 256 l 1,16,-1
 256 384 l 1,17,-1
 384 384 l 1,18,-1
 384 256 l 1,19,-1
 768 256 l 1,20,-1
 768 384 l 1,21,-1
 896 384 l 1,22,-1
 896 512 l 1,23,-1
 1024 512 l 1,24,-1
 1024 384 l 1,25,-1
 896 384 l 1,26,-1
 896 256 l 1,27,-1
 768 256 l 1,28,-1
 768 128 l 1,29,-1
 640 128 l 1,30,-1
 640 0 l 1,31,-1
 512 0 l 1,12,-1
384 -256 m 1,32,-1
 384 -128 l 1,33,-1
 640 -128 l 1,34,-1
 640 0 l 1,35,-1
 768 0 l 1,36,-1
 768 -256 l 1,37,-1
 384 -256 l 1,32,-1
768 1152 m 1,38,-1
 896 1152 l 1,39,-1
 896 1024 l 1,40,-1
 768 1024 l 1,41,-1
 768 1152 l 1,38,-1
896 1024 m 1,42,-1
 1024 1024 l 1,43,-1
 1024 896 l 1,44,-1
 896 896 l 1,45,-1
 896 1024 l 1,42,-1
EndSplineSet
Validated: 5
EndChar

StartChar: Egrave
Encoding: 200 200 130
Width: 896
GlyphClass: 2
Flags: W
LayerCount: 2
Fore
SplineSet
256 1536 m 1,0,-1
 256 1664 l 1,1,-1
 384 1664 l 1,2,-1
 384 1536 l 1,3,-1
 256 1536 l 1,0,-1
128 0 m 1,4,-1
 128 1280 l 1,5,-1
 768 1280 l 1,6,-1
 768 1152 l 1,7,-1
 256 1152 l 1,8,-1
 256 768 l 1,9,-1
 640 768 l 1,10,-1
 640 640 l 1,11,-1
 256 640 l 1,12,-1
 256 128 l 1,13,-1
 768 128 l 1,14,-1
 768 0 l 1,15,-1
 128 0 l 1,4,-1
384 1536 m 1,16,-1
 512 1536 l 1,17,-1
 512 1408 l 1,18,-1
 384 1408 l 1,19,-1
 384 1536 l 1,16,-1
EndSplineSet
Validated: 5
EndChar

StartChar: Eacute
Encoding: 201 201 131
Width: 896
GlyphClass: 2
Flags: W
LayerCount: 2
Fore
SplineSet
384 1408 m 1,0,-1
 384 1536 l 1,1,-1
 512 1536 l 1,2,-1
 512 1664 l 1,3,-1
 640 1664 l 1,4,-1
 640 1536 l 1,5,-1
 512 1536 l 1,6,-1
 512 1408 l 1,7,-1
 384 1408 l 1,0,-1
128 0 m 1,8,-1
 128 1280 l 1,9,-1
 768 1280 l 1,10,-1
 768 1152 l 1,11,-1
 256 1152 l 1,12,-1
 256 768 l 1,13,-1
 640 768 l 1,14,-1
 640 640 l 1,15,-1
 256 640 l 1,16,-1
 256 128 l 1,17,-1
 768 128 l 1,18,-1
 768 0 l 1,19,-1
 128 0 l 1,8,-1
EndSplineSet
Validated: 5
EndChar

StartChar: Ecircumflex
Encoding: 202 202 132
Width: 896
GlyphClass: 2
Flags: W
LayerCount: 2
Fore
SplineSet
256 1408 m 1,0,-1
 256 1536 l 1,1,-1
 384 1536 l 1,2,-1
 384 1664 l 1,3,-1
 512 1664 l 1,4,-1
 512 1536 l 1,5,-1
 384 1536 l 1,6,-1
 384 1408 l 1,7,-1
 256 1408 l 1,0,-1
128 0 m 1,8,-1
 128 1280 l 1,9,-1
 768 1280 l 1,10,-1
 768 1152 l 1,11,-1
 256 1152 l 1,12,-1
 256 768 l 1,13,-1
 640 768 l 1,14,-1
 640 640 l 1,15,-1
 256 640 l 1,16,-1
 256 128 l 1,17,-1
 768 128 l 1,18,-1
 768 0 l 1,19,-1
 128 0 l 1,8,-1
512 1536 m 1,20,-1
 640 1536 l 1,21,-1
 640 1408 l 1,22,-1
 512 1408 l 1,23,-1
 512 1536 l 1,20,-1
EndSplineSet
Validated: 5
EndChar

StartChar: Edieresis
Encoding: 203 203 133
Width: 896
GlyphClass: 2
Flags: W
LayerCount: 2
Fore
SplineSet
512 1408 m 1,0,-1
 512 1536 l 1,1,-1
 640 1536 l 1,2,-1
 640 1408 l 1,3,-1
 512 1408 l 1,0,-1
256 1408 m 1,4,-1
 256 1536 l 1,5,-1
 384 1536 l 1,6,-1
 384 1408 l 1,7,-1
 256 1408 l 1,4,-1
128 0 m 1,8,-1
 128 1280 l 1,9,-1
 768 1280 l 1,10,-1
 768 1152 l 1,11,-1
 256 1152 l 1,12,-1
 256 768 l 1,13,-1
 640 768 l 1,14,-1
 640 640 l 1,15,-1
 256 640 l 1,16,-1
 256 128 l 1,17,-1
 768 128 l 1,18,-1
 768 0 l 1,19,-1
 128 0 l 1,8,-1
EndSplineSet
Validated: 1
EndChar

StartChar: Igrave
Encoding: 204 204 134
Width: 896
GlyphClass: 2
Flags: W
LayerCount: 2
Fore
SplineSet
256 1536 m 1,0,-1
 256 1664 l 1,1,-1
 384 1664 l 1,2,-1
 384 1536 l 1,3,-1
 256 1536 l 1,0,-1
256 0 m 1,4,-1
 256 128 l 1,5,-1
 384 128 l 1,6,-1
 384 1152 l 1,7,-1
 256 1152 l 1,8,-1
 256 1280 l 1,9,-1
 640 1280 l 1,10,-1
 640 1152 l 1,11,-1
 512 1152 l 1,12,-1
 512 128 l 1,13,-1
 640 128 l 1,14,-1
 640 0 l 1,15,-1
 256 0 l 1,4,-1
384 1536 m 1,16,-1
 512 1536 l 1,17,-1
 512 1408 l 1,18,-1
 384 1408 l 1,19,-1
 384 1536 l 1,16,-1
EndSplineSet
Validated: 5
EndChar

StartChar: Iacute
Encoding: 205 205 135
Width: 896
GlyphClass: 2
Flags: W
LayerCount: 2
Fore
SplineSet
384 1536 m 1,0,-1
 384 1664 l 1,1,-1
 512 1664 l 1,2,-1
 512 1792 l 1,3,-1
 640 1792 l 1,4,-1
 640 1664 l 1,5,-1
 512 1664 l 1,6,-1
 512 1536 l 1,7,-1
 384 1536 l 1,0,-1
256 0 m 1,8,-1
 256 128 l 1,9,-1
 384 128 l 1,10,-1
 384 1280 l 1,11,-1
 256 1280 l 1,12,-1
 256 1408 l 1,13,-1
 640 1408 l 1,14,-1
 640 1280 l 1,15,-1
 512 1280 l 1,16,-1
 512 128 l 1,17,-1
 640 128 l 1,18,-1
 640 0 l 1,19,-1
 256 0 l 1,8,-1
EndSplineSet
Validated: 5
EndChar

StartChar: Icircumflex
Encoding: 206 206 136
Width: 896
GlyphClass: 2
Flags: W
LayerCount: 2
Fore
SplineSet
256 1536 m 1,0,-1
 256 1664 l 1,1,-1
 384 1664 l 1,2,-1
 384 1792 l 1,3,-1
 512 1792 l 1,4,-1
 512 1664 l 1,5,-1
 384 1664 l 1,6,-1
 384 1536 l 1,7,-1
 256 1536 l 1,0,-1
256 0 m 1,8,-1
 256 128 l 1,9,-1
 384 128 l 1,10,-1
 384 1280 l 1,11,-1
 256 1280 l 1,12,-1
 256 1408 l 1,13,-1
 640 1408 l 1,14,-1
 640 1280 l 1,15,-1
 512 1280 l 1,16,-1
 512 128 l 1,17,-1
 640 128 l 1,18,-1
 640 0 l 1,19,-1
 256 0 l 1,8,-1
512 1664 m 1,20,-1
 640 1664 l 1,21,-1
 640 1536 l 1,22,-1
 512 1536 l 1,23,-1
 512 1664 l 1,20,-1
EndSplineSet
Validated: 5
EndChar

StartChar: Idieresis
Encoding: 207 207 137
Width: 896
GlyphClass: 2
Flags: W
LayerCount: 2
Fore
SplineSet
512 1536 m 1,0,-1
 512 1664 l 1,1,-1
 640 1664 l 1,2,-1
 640 1536 l 1,3,-1
 512 1536 l 1,0,-1
256 1536 m 1,4,-1
 256 1664 l 1,5,-1
 384 1664 l 1,6,-1
 384 1536 l 1,7,-1
 256 1536 l 1,4,-1
256 0 m 1,8,-1
 256 128 l 1,9,-1
 384 128 l 1,10,-1
 384 1280 l 1,11,-1
 256 1280 l 1,12,-1
 256 1408 l 1,13,-1
 640 1408 l 1,14,-1
 640 1280 l 1,15,-1
 512 1280 l 1,16,-1
 512 128 l 1,17,-1
 640 128 l 1,18,-1
 640 0 l 1,19,-1
 256 0 l 1,8,-1
EndSplineSet
Validated: 1
EndChar

StartChar: Eth
Encoding: 208 208 138
Width: 896
GlyphClass: 2
Flags: W
LayerCount: 2
Fore
SplineSet
256 0 m 1,0,-1
 256 640 l 1,1,-1
 128 640 l 1,2,-1
 128 768 l 1,3,-1
 256 768 l 1,4,-1
 256 1408 l 1,5,-1
 640 1408 l 1,6,-1
 640 1280 l 1,7,-1
 384 1280 l 1,8,-1
 384 768 l 1,9,-1
 512 768 l 1,10,-1
 512 640 l 1,11,-1
 384 640 l 1,12,-1
 384 128 l 1,13,-1
 640 128 l 1,14,-1
 640 0 l 1,15,-1
 256 0 l 1,0,-1
640 1280 m 1,16,-1
 768 1280 l 1,17,-1
 768 1152 l 1,18,-1
 640 1152 l 1,19,-1
 640 1280 l 1,16,-1
768 1152 m 1,20,-1
 896 1152 l 1,21,-1
 896 256 l 1,22,-1
 768 256 l 1,23,-1
 768 1152 l 1,20,-1
768 256 m 1,24,-1
 768 128 l 1,25,-1
 640 128 l 1,26,-1
 640 256 l 1,27,-1
 768 256 l 1,24,-1
EndSplineSet
Validated: 5
EndChar

StartChar: Ntilde
Encoding: 209 209 139
Width: 896
GlyphClass: 2
Flags: W
LayerCount: 2
Fore
SplineSet
256 1408 m 1,0,-1
 256 1536 l 1,1,-1
 384 1536 l 1,2,-1
 384 1664 l 1,3,-1
 512 1664 l 1,4,-1
 512 1536 l 1,5,-1
 384 1536 l 1,6,-1
 384 1408 l 1,7,-1
 256 1408 l 1,0,-1
640 0 m 1,8,-1
 640 256 l 1,9,-1
 512 256 l 1,10,-1
 512 512 l 1,11,-1
 640 512 l 1,12,-1
 640 1280 l 1,13,-1
 768 1280 l 1,14,-1
 768 0 l 1,15,-1
 640 0 l 1,8,-1
128 0 m 1,16,-1
 128 1280 l 1,17,-1
 256 1280 l 1,18,-1
 256 1024 l 1,19,-1
 384 1024 l 1,20,-1
 384 768 l 1,21,-1
 256 768 l 1,22,-1
 256 0 l 1,23,-1
 128 0 l 1,16,-1
640 1536 m 1,24,-1
 640 1664 l 1,25,-1
 768 1664 l 1,26,-1
 768 1536 l 1,27,-1
 640 1536 l 1,24,-1
640 1536 m 1,28,-1
 640 1408 l 1,29,-1
 512 1408 l 1,30,-1
 512 1536 l 1,31,-1
 640 1536 l 1,28,-1
512 512 m 1,32,-1
 384 512 l 1,33,-1
 384 768 l 1,34,-1
 512 768 l 1,35,-1
 512 512 l 1,32,-1
EndSplineSet
Validated: 5
EndChar

StartChar: Ograve
Encoding: 210 210 140
Width: 896
GlyphClass: 2
Flags: W
LayerCount: 2
Fore
SplineSet
384 1536 m 1,0,-1
 384 1664 l 1,1,-1
 512 1664 l 1,2,-1
 512 1536 l 1,3,-1
 384 1536 l 1,0,-1
128 256 m 1,4,-1
 128 1024 l 1,5,-1
 256 1024 l 1,6,-1
 256 1152 l 1,7,-1
 384 1152 l 1,8,-1
 384 1280 l 1,9,-1
 640 1280 l 1,10,-1
 640 1152 l 1,11,-1
 384 1152 l 1,12,-1
 384 1024 l 1,13,-1
 256 1024 l 1,14,-1
 256 256 l 1,15,-1
 128 256 l 1,4,-1
512 1536 m 1,16,-1
 640 1536 l 1,17,-1
 640 1408 l 1,18,-1
 512 1408 l 1,19,-1
 512 1536 l 1,16,-1
640 1152 m 1,20,-1
 768 1152 l 1,21,-1
 768 1024 l 1,22,-1
 640 1024 l 1,23,-1
 640 1152 l 1,20,-1
768 1024 m 1,24,-1
 896 1024 l 1,25,-1
 896 256 l 1,26,-1
 768 256 l 1,27,-1
 768 1024 l 1,24,-1
768 256 m 1,28,-1
 768 128 l 1,29,-1
 640 128 l 1,30,-1
 640 256 l 1,31,-1
 768 256 l 1,28,-1
256 256 m 1,32,-1
 384 256 l 1,33,-1
 384 128 l 1,34,-1
 256 128 l 1,35,-1
 256 256 l 1,32,-1
640 128 m 1,36,-1
 640 0 l 1,37,-1
 384 0 l 1,38,-1
 384 128 l 1,39,-1
 640 128 l 1,36,-1
EndSplineSet
Validated: 5
EndChar

StartChar: Oacute
Encoding: 211 211 141
Width: 896
GlyphClass: 2
Flags: W
LayerCount: 2
Fore
SplineSet
384 1408 m 1,0,-1
 384 1536 l 1,1,-1
 512 1536 l 1,2,-1
 512 1664 l 1,3,-1
 640 1664 l 1,4,-1
 640 1536 l 1,5,-1
 512 1536 l 1,6,-1
 512 1408 l 1,7,-1
 384 1408 l 1,0,-1
128 256 m 1,8,-1
 128 1024 l 1,9,-1
 256 1024 l 1,10,-1
 256 1152 l 1,11,-1
 384 1152 l 1,12,-1
 384 1280 l 1,13,-1
 640 1280 l 1,14,-1
 640 1152 l 1,15,-1
 384 1152 l 1,16,-1
 384 1024 l 1,17,-1
 256 1024 l 1,18,-1
 256 256 l 1,19,-1
 128 256 l 1,8,-1
640 1152 m 1,20,-1
 768 1152 l 1,21,-1
 768 1024 l 1,22,-1
 640 1024 l 1,23,-1
 640 1152 l 1,20,-1
768 1024 m 1,24,-1
 896 1024 l 1,25,-1
 896 256 l 1,26,-1
 768 256 l 1,27,-1
 768 1024 l 1,24,-1
768 256 m 1,28,-1
 768 128 l 1,29,-1
 640 128 l 1,30,-1
 640 256 l 1,31,-1
 768 256 l 1,28,-1
256 256 m 1,32,-1
 384 256 l 1,33,-1
 384 128 l 1,34,-1
 256 128 l 1,35,-1
 256 256 l 1,32,-1
640 128 m 1,36,-1
 640 0 l 1,37,-1
 384 0 l 1,38,-1
 384 128 l 1,39,-1
 640 128 l 1,36,-1
EndSplineSet
Validated: 5
EndChar

StartChar: Ocircumflex
Encoding: 212 212 142
Width: 896
GlyphClass: 2
Flags: W
LayerCount: 2
Fore
SplineSet
256 1408 m 1,0,-1
 256 1536 l 1,1,-1
 384 1536 l 1,2,-1
 384 1664 l 1,3,-1
 640 1664 l 1,4,-1
 640 1536 l 1,5,-1
 384 1536 l 1,6,-1
 384 1408 l 1,7,-1
 256 1408 l 1,0,-1
128 256 m 1,8,-1
 128 1024 l 1,9,-1
 256 1024 l 1,10,-1
 256 1152 l 1,11,-1
 384 1152 l 1,12,-1
 384 1280 l 1,13,-1
 640 1280 l 1,14,-1
 640 1152 l 1,15,-1
 384 1152 l 1,16,-1
 384 1024 l 1,17,-1
 256 1024 l 1,18,-1
 256 256 l 1,19,-1
 128 256 l 1,8,-1
640 1536 m 1,20,-1
 768 1536 l 1,21,-1
 768 1408 l 1,22,-1
 640 1408 l 1,23,-1
 640 1536 l 1,20,-1
640 1152 m 1,24,-1
 768 1152 l 1,25,-1
 768 1024 l 1,26,-1
 640 1024 l 1,27,-1
 640 1152 l 1,24,-1
768 1024 m 1,28,-1
 896 1024 l 1,29,-1
 896 256 l 1,30,-1
 768 256 l 1,31,-1
 768 1024 l 1,28,-1
768 256 m 1,32,-1
 768 128 l 1,33,-1
 640 128 l 1,34,-1
 640 256 l 1,35,-1
 768 256 l 1,32,-1
256 256 m 1,36,-1
 384 256 l 1,37,-1
 384 128 l 1,38,-1
 256 128 l 1,39,-1
 256 256 l 1,36,-1
640 128 m 1,40,-1
 640 0 l 1,41,-1
 384 0 l 1,42,-1
 384 128 l 1,43,-1
 640 128 l 1,40,-1
EndSplineSet
Validated: 5
EndChar

StartChar: Otilde
Encoding: 213 213 143
Width: 896
GlyphClass: 2
Flags: W
LayerCount: 2
Fore
SplineSet
256 1536 m 1024,0,-1
512 1536 m 1024,1,-1
256 1536 m 1,2,-1
 256 1664 l 1,3,-1
 384 1664 l 1,4,-1
 384 1536 l 1,5,-1
 256 1536 l 1,2,-1
128 256 m 1,6,-1
 128 1024 l 1,7,-1
 256 1024 l 1,8,-1
 256 1152 l 1,9,-1
 384 1152 l 1,10,-1
 384 1280 l 1,11,-1
 640 1280 l 1,12,-1
 640 1152 l 1,13,-1
 384 1152 l 1,14,-1
 384 1024 l 1,15,-1
 256 1024 l 1,16,-1
 256 256 l 1,17,-1
 128 256 l 1,6,-1
384 1536 m 1,18,-1
 512 1536 l 1,19,-1
 512 1408 l 1,20,-1
 384 1408 l 1,21,-1
 384 1536 l 1,18,-1
640 1152 m 1,22,-1
 768 1152 l 1,23,-1
 768 1024 l 1,24,-1
 640 1024 l 1,25,-1
 640 1152 l 1,22,-1
768 1024 m 1,26,-1
 896 1024 l 1,27,-1
 896 256 l 1,28,-1
 768 256 l 1,29,-1
 768 1024 l 1,26,-1
768 256 m 1,30,-1
 768 128 l 1,31,-1
 640 128 l 1,32,-1
 640 256 l 1,33,-1
 768 256 l 1,30,-1
256 256 m 1,34,-1
 384 256 l 1,35,-1
 384 128 l 1,36,-1
 256 128 l 1,37,-1
 256 256 l 1,34,-1
640 128 m 1,38,-1
 640 0 l 1,39,-1
 384 0 l 1,40,-1
 384 128 l 1,41,-1
 640 128 l 1,38,-1
512 1536 m 1,42,-1
 512 1664 l 1,43,-1
 640 1664 l 1,44,-1
 640 1536 l 1,45,-1
 512 1536 l 1,42,-1
640 1536 m 1,46,-1
 768 1536 l 1,47,-1
 768 1408 l 1,48,-1
 640 1408 l 1,49,-1
 640 1536 l 1,46,-1
EndSplineSet
Validated: 5
EndChar

StartChar: Odieresis
Encoding: 214 214 144
Width: 896
GlyphClass: 2
Flags: W
LayerCount: 2
Fore
SplineSet
640 1408 m 1,0,-1
 640 1536 l 1,1,-1
 768 1536 l 1,2,-1
 768 1408 l 1,3,-1
 640 1408 l 1,0,-1
256 1408 m 1,4,-1
 256 1536 l 1,5,-1
 384 1536 l 1,6,-1
 384 1408 l 1,7,-1
 256 1408 l 1,4,-1
128 256 m 1,8,-1
 128 1024 l 1,9,-1
 256 1024 l 1,10,-1
 256 1152 l 1,11,-1
 384 1152 l 1,12,-1
 384 1280 l 1,13,-1
 640 1280 l 1,14,-1
 640 1152 l 1,15,-1
 384 1152 l 1,16,-1
 384 1024 l 1,17,-1
 256 1024 l 1,18,-1
 256 256 l 1,19,-1
 128 256 l 1,8,-1
640 1152 m 1,20,-1
 768 1152 l 1,21,-1
 768 1024 l 1,22,-1
 640 1024 l 1,23,-1
 640 1152 l 1,20,-1
768 1024 m 1,24,-1
 896 1024 l 1,25,-1
 896 256 l 1,26,-1
 768 256 l 1,27,-1
 768 1024 l 1,24,-1
768 256 m 1,28,-1
 768 128 l 1,29,-1
 640 128 l 1,30,-1
 640 256 l 1,31,-1
 768 256 l 1,28,-1
256 256 m 1,32,-1
 384 256 l 1,33,-1
 384 128 l 1,34,-1
 256 128 l 1,35,-1
 256 256 l 1,32,-1
640 128 m 1,36,-1
 640 0 l 1,37,-1
 384 0 l 1,38,-1
 384 128 l 1,39,-1
 640 128 l 1,36,-1
EndSplineSet
Validated: 5
EndChar

StartChar: multiply
Encoding: 215 215 145
Width: 896
GlyphClass: 2
Flags: W
LayerCount: 2
Fore
SplineSet
128 640 m 1,0,-1
 128 768 l 1,1,-1
 256 768 l 1,2,-1
 256 640 l 1,3,-1
 128 640 l 1,0,-1
128 128 m 1,4,-1
 128 256 l 1,5,-1
 256 256 l 1,6,-1
 256 384 l 1,7,-1
 384 384 l 1,8,-1
 384 512 l 1,9,-1
 256 512 l 1,10,-1
 256 640 l 1,11,-1
 384 640 l 1,12,-1
 384 512 l 1,13,-1
 512 512 l 1,14,-1
 512 640 l 1,15,-1
 640 640 l 1,16,-1
 640 768 l 1,17,-1
 768 768 l 1,18,-1
 768 640 l 1,19,-1
 640 640 l 1,20,-1
 640 512 l 1,21,-1
 512 512 l 1,22,-1
 512 384 l 1,23,-1
 384 384 l 1,24,-1
 384 256 l 1,25,-1
 256 256 l 1,26,-1
 256 128 l 1,27,-1
 128 128 l 1,4,-1
512 384 m 1,28,-1
 640 384 l 1,29,-1
 640 256 l 1,30,-1
 512 256 l 1,31,-1
 512 384 l 1,28,-1
640 256 m 1,32,-1
 768 256 l 1,33,-1
 768 128 l 1,34,-1
 640 128 l 1,35,-1
 640 256 l 1,32,-1
EndSplineSet
Validated: 5
EndChar

StartChar: Oslash
Encoding: 216 216 146
Width: 896
GlyphClass: 2
Flags: W
LayerCount: 2
Fore
SplineSet
384 640 m 1024,0,-1
512 384 m 1024,1,-1
512 1024 m 1024,2,-1
640 640 m 1024,3,-1
128 256 m 1,4,-1
 128 1152 l 1,5,-1
 256 1152 l 1,6,-1
 256 1280 l 1,7,-1
 384 1280 l 1,8,-1
 384 1408 l 1,9,-1
 640 1408 l 1,10,-1
 640 1280 l 1,11,-1
 384 1280 l 1,12,-1
 384 1152 l 1,13,-1
 256 1152 l 1,14,-1
 256 384 l 1,15,-1
 384 384 l 1,16,-1
 384 128 l 1,17,-1
 256 128 l 1,18,-1
 256 256 l 1,19,-1
 128 256 l 1,4,-1
768 1408 m 1,20,-1
 896 1408 l 1,21,-1
 896 1280 l 1,22,-1
 768 1280 l 1,23,-1
 768 1152 l 1,24,-1
 896 1152 l 1,25,-1
 896 256 l 1,26,-1
 768 256 l 1,27,-1
 768 1024 l 1,28,-1
 640 1024 l 1,29,-1
 640 1280 l 1,30,-1
 768 1280 l 1,31,-1
 768 1408 l 1,20,-1
768 256 m 1,32,-1
 768 128 l 1,33,-1
 640 128 l 1,34,-1
 640 256 l 1,35,-1
 768 256 l 1,32,-1
640 128 m 1,36,-1
 640 0 l 1,37,-1
 384 0 l 1,38,-1
 384 128 l 1,39,-1
 640 128 l 1,36,-1
384 384 m 1,40,-1
 384 640 l 1,41,-1
 512 640 l 1,42,-1
 512 384 l 1,43,-1
 384 384 l 1,40,-1
640 1024 m 1,44,-1
 640 640 l 1,45,-1
 512 640 l 1,46,-1
 512 1024 l 1,47,-1
 640 1024 l 1,44,-1
256 128 m 1,48,-1
 256 0 l 1,49,-1
 128 0 l 1,50,-1
 128 128 l 1,51,-1
 256 128 l 1,48,-1
EndSplineSet
Validated: 5
EndChar

StartChar: Ugrave
Encoding: 217 217 147
Width: 896
GlyphClass: 2
Flags: W
LayerCount: 2
Fore
SplineSet
256 1536 m 1,0,-1
 256 1664 l 1,1,-1
 384 1664 l 1,2,-1
 384 1536 l 1,3,-1
 256 1536 l 1,0,-1
128 128 m 1,4,-1
 128 1280 l 1,5,-1
 256 1280 l 1,6,-1
 256 128 l 1,7,-1
 128 128 l 1,4,-1
384 1536 m 1,8,-1
 512 1536 l 1,9,-1
 512 1408 l 1,10,-1
 384 1408 l 1,11,-1
 384 1536 l 1,8,-1
640 128 m 1,12,-1
 640 1280 l 1,13,-1
 768 1280 l 1,14,-1
 768 128 l 1,15,-1
 640 128 l 1,12,-1
640 128 m 1,16,-1
 640 0 l 1,17,-1
 256 0 l 1,18,-1
 256 128 l 1,19,-1
 640 128 l 1,16,-1
EndSplineSet
Validated: 5
EndChar

StartChar: Uacute
Encoding: 218 218 148
Width: 896
GlyphClass: 2
Flags: W
LayerCount: 2
Fore
SplineSet
384 1408 m 1,0,-1
 384 1536 l 1,1,-1
 512 1536 l 1,2,-1
 512 1664 l 1,3,-1
 640 1664 l 1,4,-1
 640 1536 l 1,5,-1
 512 1536 l 1,6,-1
 512 1408 l 1,7,-1
 384 1408 l 1,0,-1
128 128 m 1,8,-1
 128 1280 l 1,9,-1
 256 1280 l 1,10,-1
 256 128 l 1,11,-1
 128 128 l 1,8,-1
640 128 m 1,12,-1
 640 1280 l 1,13,-1
 768 1280 l 1,14,-1
 768 128 l 1,15,-1
 640 128 l 1,12,-1
640 128 m 1,16,-1
 640 0 l 1,17,-1
 256 0 l 1,18,-1
 256 128 l 1,19,-1
 640 128 l 1,16,-1
EndSplineSet
Validated: 5
EndChar

StartChar: Ucircumflex
Encoding: 219 219 149
Width: 896
GlyphClass: 2
Flags: W
LayerCount: 2
Fore
SplineSet
256 1408 m 1,0,-1
 256 1536 l 1,1,-1
 384 1536 l 1,2,-1
 384 1664 l 1,3,-1
 512 1664 l 1,4,-1
 512 1536 l 1,5,-1
 384 1536 l 1,6,-1
 384 1408 l 1,7,-1
 256 1408 l 1,0,-1
128 128 m 1,8,-1
 128 1280 l 1,9,-1
 256 1280 l 1,10,-1
 256 128 l 1,11,-1
 128 128 l 1,8,-1
512 1536 m 1,12,-1
 640 1536 l 1,13,-1
 640 1408 l 1,14,-1
 512 1408 l 1,15,-1
 512 1536 l 1,12,-1
640 128 m 1,16,-1
 640 1280 l 1,17,-1
 768 1280 l 1,18,-1
 768 128 l 1,19,-1
 640 128 l 1,16,-1
640 128 m 1,20,-1
 640 0 l 1,21,-1
 256 0 l 1,22,-1
 256 128 l 1,23,-1
 640 128 l 1,20,-1
EndSplineSet
Validated: 5
EndChar

StartChar: Udieresis
Encoding: 220 220 150
Width: 896
GlyphClass: 2
Flags: W
LayerCount: 2
Fore
SplineSet
512 1408 m 1,0,-1
 512 1536 l 1,1,-1
 640 1536 l 1,2,-1
 640 1408 l 1,3,-1
 512 1408 l 1,0,-1
256 1408 m 1,4,-1
 256 1536 l 1,5,-1
 384 1536 l 1,6,-1
 384 1408 l 1,7,-1
 256 1408 l 1,4,-1
128 128 m 1,8,-1
 128 1280 l 1,9,-1
 256 1280 l 1,10,-1
 256 128 l 1,11,-1
 128 128 l 1,8,-1
640 128 m 1,12,-1
 640 1280 l 1,13,-1
 768 1280 l 1,14,-1
 768 128 l 1,15,-1
 640 128 l 1,12,-1
640 128 m 1,16,-1
 640 0 l 1,17,-1
 256 0 l 1,18,-1
 256 128 l 1,19,-1
 640 128 l 1,16,-1
EndSplineSet
Validated: 5
EndChar

StartChar: Yacute
Encoding: 221 221 151
Width: 896
GlyphClass: 2
Flags: W
LayerCount: 2
Fore
SplineSet
128 1024 m 1,0,-1
 128 1408 l 1,1,-1
 256 1408 l 1,2,-1
 256 1024 l 1,3,-1
 128 1024 l 1,0,-1
384 1408 m 1,4,-1
 384 1536 l 1,5,-1
 512 1536 l 1,6,-1
 512 1664 l 1,7,-1
 640 1664 l 1,8,-1
 640 1536 l 1,9,-1
 512 1536 l 1,10,-1
 512 1408 l 1,11,-1
 384 1408 l 1,4,-1
640 1024 m 1,12,-1
 640 1408 l 1,13,-1
 768 1408 l 1,14,-1
 768 1024 l 1,15,-1
 640 1024 l 1,12,-1
640 1024 m 1,16,-1
 640 768 l 1,17,-1
 512 768 l 1,18,-1
 512 1024 l 1,19,-1
 640 1024 l 1,16,-1
256 1024 m 1,20,-1
 384 1024 l 1,21,-1
 384 768 l 1,22,-1
 256 768 l 1,23,-1
 256 1024 l 1,20,-1
512 768 m 1,24,-1
 512 0 l 1,25,-1
 384 0 l 1,26,-1
 384 768 l 1,27,-1
 512 768 l 1,24,-1
EndSplineSet
Validated: 5
EndChar

StartChar: Thorn
Encoding: 222 222 152
Width: 896
GlyphClass: 2
Flags: W
LayerCount: 2
Fore
SplineSet
128 1408 m 1,0,-1
 256 1408 l 1,1,-1
 256 1152 l 1,2,-1
 640 1152 l 1,3,-1
 640 1024 l 1,4,-1
 256 1024 l 1,5,-1
 256 384 l 1,6,-1
 640 384 l 1,7,-1
 640 1024 l 1,8,-1
 768 1024 l 1,9,-1
 768 384 l 1,10,-1
 640 384 l 1,11,-1
 640 256 l 1,12,-1
 256 256 l 1,13,-1
 256 0 l 1,14,-1
 128 0 l 1,15,-1
 128 1408 l 1,0,-1
EndSplineSet
Validated: 5
EndChar

StartChar: germandbls
Encoding: 223 223 153
Width: 896
GlyphClass: 2
Flags: W
LayerCount: 2
Fore
SplineSet
128 0 m 1,0,-1
 128 1536 l 1,1,-1
 256 1536 l 1,2,-1
 256 1664 l 1,3,-1
 512 1664 l 1,4,-1
 512 1536 l 1,5,-1
 256 1536 l 1,6,-1
 256 0 l 1,7,-1
 128 0 l 1,0,-1
384 896 m 1,8,-1
 384 1024 l 1,9,-1
 640 1024 l 1,10,-1
 640 1408 l 1,11,-1
 512 1408 l 1,12,-1
 512 1536 l 1,13,-1
 640 1536 l 1,14,-1
 640 1408 l 1,15,-1
 768 1408 l 1,16,-1
 768 1024 l 1,17,-1
 640 1024 l 1,18,-1
 640 896 l 1,19,-1
 384 896 l 1,8,-1
384 128 m 1,20,-1
 384 256 l 1,21,-1
 768 256 l 1,22,-1
 768 768 l 1,23,-1
 640 768 l 1,24,-1
 640 896 l 1,25,-1
 768 896 l 1,26,-1
 768 768 l 1,27,-1
 896 768 l 1,28,-1
 896 256 l 1,29,-1
 768 256 l 1,30,-1
 768 128 l 1,31,-1
 384 128 l 1,20,-1
EndSplineSet
Validated: 5
EndChar

StartChar: agrave
Encoding: 224 224 154
Width: 896
GlyphClass: 2
Flags: W
LayerCount: 2
Fore
SplineSet
256 1152 m 1,0,-1
 256 1280 l 1,1,-1
 384 1280 l 1,2,-1
 384 1152 l 1,3,-1
 256 1152 l 1,0,-1
128 640 m 1,4,-1
 128 768 l 1,5,-1
 256 768 l 1,6,-1
 256 896 l 1,7,-1
 640 896 l 1,8,-1
 640 768 l 1,9,-1
 256 768 l 1,10,-1
 256 640 l 1,11,-1
 128 640 l 1,4,-1
128 128 m 1,12,-1
 128 384 l 1,13,-1
 256 384 l 1,14,-1
 256 512 l 1,15,-1
 640 512 l 1,16,-1
 640 768 l 1,17,-1
 768 768 l 1,18,-1
 768 128 l 1,19,-1
 640 128 l 1,20,-1
 640 384 l 1,21,-1
 256 384 l 1,22,-1
 256 128 l 1,23,-1
 128 128 l 1,12,-1
384 1152 m 1,24,-1
 512 1152 l 1,25,-1
 512 1024 l 1,26,-1
 384 1024 l 1,27,-1
 384 1152 l 1,24,-1
768 128 m 1,28,-1
 896 128 l 1,29,-1
 896 0 l 1,30,-1
 768 0 l 1,31,-1
 768 128 l 1,28,-1
640 128 m 1,32,-1
 640 0 l 1,33,-1
 256 0 l 1,34,-1
 256 128 l 1,35,-1
 640 128 l 1,32,-1
EndSplineSet
Validated: 5
EndChar

StartChar: aacute
Encoding: 225 225 155
Width: 896
GlyphClass: 2
Flags: W
LayerCount: 2
Fore
SplineSet
384 1024 m 1,0,-1
 384 1152 l 1,1,-1
 512 1152 l 1,2,-1
 512 1280 l 1,3,-1
 640 1280 l 1,4,-1
 640 1152 l 1,5,-1
 512 1152 l 1,6,-1
 512 1024 l 1,7,-1
 384 1024 l 1,0,-1
128 640 m 1,8,-1
 128 768 l 1,9,-1
 256 768 l 1,10,-1
 256 896 l 1,11,-1
 640 896 l 1,12,-1
 640 768 l 1,13,-1
 256 768 l 1,14,-1
 256 640 l 1,15,-1
 128 640 l 1,8,-1
128 128 m 1,16,-1
 128 384 l 1,17,-1
 256 384 l 1,18,-1
 256 512 l 1,19,-1
 640 512 l 1,20,-1
 640 768 l 1,21,-1
 768 768 l 1,22,-1
 768 128 l 1,23,-1
 640 128 l 1,24,-1
 640 384 l 1,25,-1
 256 384 l 1,26,-1
 256 128 l 1,27,-1
 128 128 l 1,16,-1
768 128 m 1,28,-1
 896 128 l 1,29,-1
 896 0 l 1,30,-1
 768 0 l 1,31,-1
 768 128 l 1,28,-1
640 128 m 1,32,-1
 640 0 l 1,33,-1
 256 0 l 1,34,-1
 256 128 l 1,35,-1
 640 128 l 1,32,-1
EndSplineSet
Validated: 5
EndChar

StartChar: acircumflex
Encoding: 226 226 156
Width: 896
GlyphClass: 2
Flags: W
LayerCount: 2
Fore
SplineSet
256 1024 m 1,0,-1
 256 1152 l 1,1,-1
 384 1152 l 1,2,-1
 384 1280 l 1,3,-1
 512 1280 l 1,4,-1
 512 1152 l 1,5,-1
 384 1152 l 1,6,-1
 384 1024 l 1,7,-1
 256 1024 l 1,0,-1
128 640 m 1,8,-1
 128 768 l 1,9,-1
 256 768 l 1,10,-1
 256 896 l 1,11,-1
 640 896 l 1,12,-1
 640 768 l 1,13,-1
 256 768 l 1,14,-1
 256 640 l 1,15,-1
 128 640 l 1,8,-1
128 128 m 1,16,-1
 128 384 l 1,17,-1
 256 384 l 1,18,-1
 256 512 l 1,19,-1
 640 512 l 1,20,-1
 640 768 l 1,21,-1
 768 768 l 1,22,-1
 768 128 l 1,23,-1
 640 128 l 1,24,-1
 640 384 l 1,25,-1
 256 384 l 1,26,-1
 256 128 l 1,27,-1
 128 128 l 1,16,-1
512 1152 m 1,28,-1
 640 1152 l 1,29,-1
 640 1024 l 1,30,-1
 512 1024 l 1,31,-1
 512 1152 l 1,28,-1
768 128 m 1,32,-1
 896 128 l 1,33,-1
 896 0 l 1,34,-1
 768 0 l 1,35,-1
 768 128 l 1,32,-1
640 128 m 1,36,-1
 640 0 l 1,37,-1
 256 0 l 1,38,-1
 256 128 l 1,39,-1
 640 128 l 1,36,-1
EndSplineSet
Validated: 5
EndChar

StartChar: atilde
Encoding: 227 227 157
Width: 896
GlyphClass: 2
Flags: W
LayerCount: 2
Fore
SplineSet
256 1024 m 1,0,-1
 256 1152 l 1,1,-1
 384 1152 l 1,2,-1
 384 1280 l 1,3,-1
 512 1280 l 1,4,-1
 512 1152 l 1,5,-1
 384 1152 l 1,6,-1
 384 1024 l 1,7,-1
 256 1024 l 1,0,-1
128 640 m 1,8,-1
 128 768 l 1,9,-1
 256 768 l 1,10,-1
 256 896 l 1,11,-1
 640 896 l 1,12,-1
 640 768 l 1,13,-1
 256 768 l 1,14,-1
 256 640 l 1,15,-1
 128 640 l 1,8,-1
128 128 m 1,16,-1
 128 384 l 1,17,-1
 256 384 l 1,18,-1
 256 512 l 1,19,-1
 640 512 l 1,20,-1
 640 768 l 1,21,-1
 768 768 l 1,22,-1
 768 128 l 1,23,-1
 640 128 l 1,24,-1
 640 384 l 1,25,-1
 256 384 l 1,26,-1
 256 128 l 1,27,-1
 128 128 l 1,16,-1
640 1280 m 1,28,-1
 768 1280 l 1,29,-1
 768 1152 l 1,30,-1
 640 1152 l 1,31,-1
 640 1024 l 1,32,-1
 512 1024 l 1,33,-1
 512 1152 l 1,34,-1
 640 1152 l 1,35,-1
 640 1280 l 1,28,-1
768 128 m 1,36,-1
 896 128 l 1,37,-1
 896 0 l 1,38,-1
 768 0 l 1,39,-1
 768 128 l 1,36,-1
640 128 m 1,40,-1
 640 0 l 1,41,-1
 256 0 l 1,42,-1
 256 128 l 1,43,-1
 640 128 l 1,40,-1
EndSplineSet
Validated: 5
EndChar

StartChar: adieresis
Encoding: 228 228 158
Width: 896
GlyphClass: 2
Flags: W
LayerCount: 2
Fore
SplineSet
512 1024 m 1,0,-1
 512 1152 l 1,1,-1
 640 1152 l 1,2,-1
 640 1024 l 1,3,-1
 512 1024 l 1,0,-1
256 1024 m 1,4,-1
 256 1152 l 1,5,-1
 384 1152 l 1,6,-1
 384 1024 l 1,7,-1
 256 1024 l 1,4,-1
128 640 m 1,8,-1
 128 768 l 1,9,-1
 256 768 l 1,10,-1
 256 896 l 1,11,-1
 640 896 l 1,12,-1
 640 768 l 1,13,-1
 256 768 l 1,14,-1
 256 640 l 1,15,-1
 128 640 l 1,8,-1
128 128 m 1,16,-1
 128 384 l 1,17,-1
 256 384 l 1,18,-1
 256 512 l 1,19,-1
 640 512 l 1,20,-1
 640 768 l 1,21,-1
 768 768 l 1,22,-1
 768 128 l 1,23,-1
 640 128 l 1,24,-1
 640 384 l 1,25,-1
 256 384 l 1,26,-1
 256 128 l 1,27,-1
 128 128 l 1,16,-1
768 128 m 1,28,-1
 896 128 l 1,29,-1
 896 0 l 1,30,-1
 768 0 l 1,31,-1
 768 128 l 1,28,-1
640 128 m 1,32,-1
 640 0 l 1,33,-1
 256 0 l 1,34,-1
 256 128 l 1,35,-1
 640 128 l 1,32,-1
EndSplineSet
Validated: 5
EndChar

StartChar: aring
Encoding: 229 229 159
Width: 896
GlyphClass: 2
Flags: W
LayerCount: 2
Fore
SplineSet
256 1152 m 1,0,-1
 256 1280 l 1,1,-1
 384 1280 l 1,2,-1
 384 1152 l 1,3,-1
 256 1152 l 1,0,-1
128 640 m 1,4,-1
 128 768 l 1,5,-1
 256 768 l 1,6,-1
 256 896 l 1,7,-1
 640 896 l 1,8,-1
 640 768 l 1,9,-1
 256 768 l 1,10,-1
 256 640 l 1,11,-1
 128 640 l 1,4,-1
128 128 m 1,12,-1
 128 384 l 1,13,-1
 256 384 l 1,14,-1
 256 512 l 1,15,-1
 640 512 l 1,16,-1
 640 768 l 1,17,-1
 768 768 l 1,18,-1
 768 128 l 1,19,-1
 640 128 l 1,20,-1
 640 384 l 1,21,-1
 256 384 l 1,22,-1
 256 128 l 1,23,-1
 128 128 l 1,12,-1
384 1408 m 1,24,-1
 512 1408 l 1,25,-1
 512 1280 l 1,26,-1
 640 1280 l 1,27,-1
 640 1152 l 1,28,-1
 512 1152 l 1,29,-1
 512 1280 l 1,30,-1
 384 1280 l 1,31,-1
 384 1408 l 1,24,-1
768 128 m 1,32,-1
 896 128 l 1,33,-1
 896 0 l 1,34,-1
 768 0 l 1,35,-1
 768 128 l 1,32,-1
640 128 m 1,36,-1
 640 0 l 1,37,-1
 256 0 l 1,38,-1
 256 128 l 1,39,-1
 640 128 l 1,36,-1
384 1152 m 1,40,-1
 512 1152 l 1,41,-1
 512 1024 l 1,42,-1
 384 1024 l 1,43,-1
 384 1152 l 1,40,-1
EndSplineSet
Validated: 5
EndChar

StartChar: ae
Encoding: 230 230 160
Width: 896
GlyphClass: 2
Flags: W
LayerCount: 2
Fore
SplineSet
128 640 m 1,0,-1
 128 768 l 1,1,-1
 256 768 l 1,2,-1
 256 896 l 1,3,-1
 512 896 l 1,4,-1
 512 768 l 1,5,-1
 256 768 l 1,6,-1
 256 640 l 1,7,-1
 128 640 l 1,0,-1
128 128 m 1,8,-1
 128 384 l 1,9,-1
 256 384 l 1,10,-1
 256 512 l 1,11,-1
 512 512 l 1,12,-1
 512 768 l 1,13,-1
 640 768 l 1,14,-1
 640 896 l 1,15,-1
 896 896 l 1,16,-1
 896 768 l 1,17,-1
 640 768 l 1,18,-1
 640 512 l 1,19,-1
 896 512 l 1,20,-1
 896 768 l 1,21,-1
 1024 768 l 1,22,-1
 1024 384 l 1,23,-1
 640 384 l 1,24,-1
 640 128 l 1,25,-1
 512 128 l 1,26,-1
 512 384 l 1,27,-1
 256 384 l 1,28,-1
 256 128 l 1,29,-1
 128 128 l 1,8,-1
896 128 m 1,30,-1
 896 256 l 1,31,-1
 1024 256 l 1,32,-1
 1024 128 l 1,33,-1
 896 128 l 1,30,-1
896 128 m 1,34,-1
 896 0 l 1,35,-1
 640 0 l 1,36,-1
 640 128 l 1,37,-1
 896 128 l 1,34,-1
512 128 m 1,38,-1
 512 0 l 1,39,-1
 256 0 l 1,40,-1
 256 128 l 1,41,-1
 512 128 l 1,38,-1
EndSplineSet
Validated: 5
EndChar

StartChar: ccedilla
Encoding: 231 231 161
Width: 896
GlyphClass: 2
Flags: W
LayerCount: 2
Fore
SplineSet
128 256 m 1,0,-1
 128 896 l 1,1,-1
 256 896 l 1,2,-1
 256 1024 l 1,3,-1
 640 1024 l 1,4,-1
 640 896 l 1,5,-1
 256 896 l 1,6,-1
 256 256 l 1,7,-1
 128 256 l 1,0,-1
384 0 m 1,8,-1
 384 128 l 1,9,-1
 256 128 l 1,10,-1
 256 256 l 1,11,-1
 640 256 l 1,12,-1
 640 384 l 1,13,-1
 768 384 l 1,14,-1
 768 256 l 1,15,-1
 640 256 l 1,16,-1
 640 128 l 1,17,-1
 512 128 l 1,18,-1
 512 0 l 1,19,-1
 384 0 l 1,8,-1
384 -256 m 1,20,-1
 384 -128 l 1,21,-1
 512 -128 l 1,22,-1
 512 0 l 1,23,-1
 640 0 l 1,24,-1
 640 -256 l 1,25,-1
 384 -256 l 1,20,-1
640 896 m 1,26,-1
 768 896 l 1,27,-1
 768 768 l 1,28,-1
 640 768 l 1,29,-1
 640 896 l 1,26,-1
EndSplineSet
Validated: 5
EndChar

StartChar: egrave
Encoding: 232 232 162
Width: 896
GlyphClass: 2
Flags: W
LayerCount: 2
Fore
SplineSet
256 1152 m 1,0,-1
 256 1280 l 1,1,-1
 384 1280 l 1,2,-1
 384 1152 l 1,3,-1
 256 1152 l 1,0,-1
128 128 m 1,4,-1
 128 768 l 1,5,-1
 256 768 l 1,6,-1
 256 896 l 1,7,-1
 640 896 l 1,8,-1
 640 768 l 1,9,-1
 256 768 l 1,10,-1
 256 512 l 1,11,-1
 640 512 l 1,12,-1
 640 768 l 1,13,-1
 768 768 l 1,14,-1
 768 384 l 1,15,-1
 256 384 l 1,16,-1
 256 128 l 1,17,-1
 128 128 l 1,4,-1
384 1152 m 1,18,-1
 512 1152 l 1,19,-1
 512 1024 l 1,20,-1
 384 1024 l 1,21,-1
 384 1152 l 1,18,-1
640 128 m 1,22,-1
 640 256 l 1,23,-1
 768 256 l 1,24,-1
 768 128 l 1,25,-1
 640 128 l 1,22,-1
640 128 m 1,26,-1
 640 0 l 1,27,-1
 256 0 l 1,28,-1
 256 128 l 1,29,-1
 640 128 l 1,26,-1
EndSplineSet
Validated: 5
EndChar

StartChar: eacute
Encoding: 233 233 163
Width: 896
GlyphClass: 2
Flags: W
LayerCount: 2
Fore
SplineSet
384 1024 m 1,0,-1
 384 1152 l 1,1,-1
 512 1152 l 1,2,-1
 512 1280 l 1,3,-1
 640 1280 l 1,4,-1
 640 1152 l 1,5,-1
 512 1152 l 1,6,-1
 512 1024 l 1,7,-1
 384 1024 l 1,0,-1
128 128 m 1,8,-1
 128 768 l 1,9,-1
 256 768 l 1,10,-1
 256 896 l 1,11,-1
 640 896 l 1,12,-1
 640 768 l 1,13,-1
 256 768 l 1,14,-1
 256 512 l 1,15,-1
 640 512 l 1,16,-1
 640 768 l 1,17,-1
 768 768 l 1,18,-1
 768 384 l 1,19,-1
 256 384 l 1,20,-1
 256 128 l 1,21,-1
 128 128 l 1,8,-1
640 128 m 1,22,-1
 640 256 l 1,23,-1
 768 256 l 1,24,-1
 768 128 l 1,25,-1
 640 128 l 1,22,-1
640 128 m 1,26,-1
 640 0 l 1,27,-1
 256 0 l 1,28,-1
 256 128 l 1,29,-1
 640 128 l 1,26,-1
EndSplineSet
Validated: 5
EndChar

StartChar: ecircumflex
Encoding: 234 234 164
Width: 896
GlyphClass: 2
Flags: W
LayerCount: 2
Fore
SplineSet
256 1024 m 1,0,-1
 256 1152 l 1,1,-1
 384 1152 l 1,2,-1
 384 1280 l 1,3,-1
 512 1280 l 1,4,-1
 512 1152 l 1,5,-1
 384 1152 l 1,6,-1
 384 1024 l 1,7,-1
 256 1024 l 1,0,-1
128 128 m 1,8,-1
 128 768 l 1,9,-1
 256 768 l 1,10,-1
 256 896 l 1,11,-1
 640 896 l 1,12,-1
 640 768 l 1,13,-1
 256 768 l 1,14,-1
 256 512 l 1,15,-1
 640 512 l 1,16,-1
 640 768 l 1,17,-1
 768 768 l 1,18,-1
 768 384 l 1,19,-1
 256 384 l 1,20,-1
 256 128 l 1,21,-1
 128 128 l 1,8,-1
512 1152 m 1,22,-1
 640 1152 l 1,23,-1
 640 1024 l 1,24,-1
 512 1024 l 1,25,-1
 512 1152 l 1,22,-1
640 128 m 1,26,-1
 640 256 l 1,27,-1
 768 256 l 1,28,-1
 768 128 l 1,29,-1
 640 128 l 1,26,-1
640 128 m 1,30,-1
 640 0 l 1,31,-1
 256 0 l 1,32,-1
 256 128 l 1,33,-1
 640 128 l 1,30,-1
EndSplineSet
Validated: 5
EndChar

StartChar: edieresis
Encoding: 235 235 165
Width: 896
GlyphClass: 2
Flags: W
LayerCount: 2
Fore
SplineSet
512 1024 m 1,0,-1
 512 1152 l 1,1,-1
 640 1152 l 1,2,-1
 640 1024 l 1,3,-1
 512 1024 l 1,0,-1
256 1024 m 1,4,-1
 256 1152 l 1,5,-1
 384 1152 l 1,6,-1
 384 1024 l 1,7,-1
 256 1024 l 1,4,-1
128 128 m 1,8,-1
 128 768 l 1,9,-1
 256 768 l 1,10,-1
 256 896 l 1,11,-1
 640 896 l 1,12,-1
 640 768 l 1,13,-1
 256 768 l 1,14,-1
 256 512 l 1,15,-1
 640 512 l 1,16,-1
 640 768 l 1,17,-1
 768 768 l 1,18,-1
 768 384 l 1,19,-1
 256 384 l 1,20,-1
 256 128 l 1,21,-1
 128 128 l 1,8,-1
640 128 m 1,22,-1
 640 256 l 1,23,-1
 768 256 l 1,24,-1
 768 128 l 1,25,-1
 640 128 l 1,22,-1
640 128 m 1,26,-1
 640 0 l 1,27,-1
 256 0 l 1,28,-1
 256 128 l 1,29,-1
 640 128 l 1,26,-1
EndSplineSet
Validated: 5
EndChar

StartChar: igrave
Encoding: 236 236 166
Width: 896
GlyphClass: 2
Flags: W
LayerCount: 2
Fore
SplineSet
128 1152 m 1,0,-1
 128 1280 l 1,1,-1
 256 1280 l 1,2,-1
 256 1152 l 1,3,-1
 128 1152 l 1,0,-1
256 0 m 1,4,-1
 256 896 l 1,5,-1
 384 896 l 1,6,-1
 384 0 l 1,7,-1
 256 0 l 1,4,-1
256 1152 m 1,8,-1
 384 1152 l 1,9,-1
 384 1024 l 1,10,-1
 256 1024 l 1,11,-1
 256 1152 l 1,8,-1
EndSplineSet
Validated: 5
EndChar

StartChar: iacute
Encoding: 237 237 167
Width: 896
GlyphClass: 2
Flags: W
LayerCount: 2
Fore
SplineSet
128 1024 m 1,0,-1
 128 1152 l 1,1,-1
 256 1152 l 1,2,-1
 256 1280 l 1,3,-1
 384 1280 l 1,4,-1
 384 1152 l 1,5,-1
 256 1152 l 1,6,-1
 256 1024 l 1,7,-1
 128 1024 l 1,0,-1
128 0 m 1,8,-1
 128 896 l 1,9,-1
 256 896 l 1,10,-1
 256 0 l 1,11,-1
 128 0 l 1,8,-1
EndSplineSet
Validated: 5
EndChar

StartChar: icircumflex
Encoding: 238 238 168
Width: 896
GlyphClass: 2
Flags: W
LayerCount: 2
Fore
SplineSet
128 1024 m 1,0,-1
 128 1152 l 1,1,-1
 256 1152 l 1,2,-1
 256 1280 l 1,3,-1
 384 1280 l 1,4,-1
 384 1152 l 1,5,-1
 256 1152 l 1,6,-1
 256 1024 l 1,7,-1
 128 1024 l 1,0,-1
256 0 m 1,8,-1
 256 896 l 1,9,-1
 384 896 l 1,10,-1
 384 0 l 1,11,-1
 256 0 l 1,8,-1
384 1152 m 1,12,-1
 512 1152 l 1,13,-1
 512 1024 l 1,14,-1
 384 1024 l 1,15,-1
 384 1152 l 1,12,-1
EndSplineSet
Validated: 5
EndChar

StartChar: idieresis
Encoding: 239 239 169
Width: 896
GlyphClass: 2
Flags: W
LayerCount: 2
Fore
SplineSet
384 1024 m 1,0,-1
 384 1152 l 1,1,-1
 512 1152 l 1,2,-1
 512 1024 l 1,3,-1
 384 1024 l 1,0,-1
128 1024 m 1,4,-1
 128 1152 l 1,5,-1
 256 1152 l 1,6,-1
 256 1024 l 1,7,-1
 128 1024 l 1,4,-1
256 0 m 1,8,-1
 256 896 l 1,9,-1
 384 896 l 1,10,-1
 384 0 l 1,11,-1
 256 0 l 1,8,-1
EndSplineSet
Validated: 1
EndChar

StartChar: eth
Encoding: 240 240 170
Width: 896
GlyphClass: 2
Flags: W
LayerCount: 2
Fore
SplineSet
256 1152 m 1,0,-1
 256 1280 l 1,1,-1
 384 1280 l 1,2,-1
 384 1152 l 1,3,-1
 256 1152 l 1,0,-1
256 896 m 1,4,-1
 256 1024 l 1,5,-1
 384 1024 l 1,6,-1
 384 1152 l 1,7,-1
 512 1152 l 1,8,-1
 512 1280 l 1,9,-1
 640 1280 l 1,10,-1
 640 1152 l 1,11,-1
 512 1152 l 1,12,-1
 512 1024 l 1,13,-1
 384 1024 l 1,14,-1
 384 896 l 1,15,-1
 256 896 l 1,4,-1
128 128 m 1,16,-1
 128 640 l 1,17,-1
 256 640 l 1,18,-1
 256 768 l 1,19,-1
 640 768 l 1,20,-1
 640 896 l 1,21,-1
 512 896 l 1,22,-1
 512 1024 l 1,23,-1
 640 1024 l 1,24,-1
 640 896 l 1,25,-1
 768 896 l 1,26,-1
 768 128 l 1,27,-1
 640 128 l 1,28,-1
 640 640 l 1,29,-1
 256 640 l 1,30,-1
 256 128 l 1,31,-1
 128 128 l 1,16,-1
640 128 m 1,32,-1
 640 0 l 1,33,-1
 256 0 l 1,34,-1
 256 128 l 1,35,-1
 640 128 l 1,32,-1
EndSplineSet
Validated: 5
EndChar

StartChar: ntilde
Encoding: 241 241 171
Width: 896
GlyphClass: 2
Flags: W
LayerCount: 2
Fore
SplineSet
256 1024 m 1,0,-1
 256 1152 l 1,1,-1
 384 1152 l 1,2,-1
 384 1280 l 1,3,-1
 512 1280 l 1,4,-1
 512 1152 l 1,5,-1
 384 1152 l 1,6,-1
 384 1024 l 1,7,-1
 256 1024 l 1,0,-1
128 0 m 1,8,-1
 128 896 l 1,9,-1
 256 896 l 1,10,-1
 256 768 l 1,11,-1
 384 768 l 1,12,-1
 384 896 l 1,13,-1
 640 896 l 1,14,-1
 640 768 l 1,15,-1
 384 768 l 1,16,-1
 384 640 l 1,17,-1
 256 640 l 1,18,-1
 256 0 l 1,19,-1
 128 0 l 1,8,-1
640 1152 m 1,20,-1
 640 1280 l 1,21,-1
 768 1280 l 1,22,-1
 768 1152 l 1,23,-1
 640 1152 l 1,20,-1
640 1152 m 1,24,-1
 640 1024 l 1,25,-1
 512 1024 l 1,26,-1
 512 1152 l 1,27,-1
 640 1152 l 1,24,-1
640 768 m 1,28,-1
 768 768 l 1,29,-1
 768 0 l 1,30,-1
 640 0 l 1,31,-1
 640 768 l 1,28,-1
EndSplineSet
Validated: 5
EndChar

StartChar: ograve
Encoding: 242 242 172
Width: 896
GlyphClass: 2
Flags: W
LayerCount: 2
Fore
SplineSet
256 1152 m 1,0,-1
 256 1280 l 1,1,-1
 384 1280 l 1,2,-1
 384 1152 l 1,3,-1
 256 1152 l 1,0,-1
128 128 m 1,4,-1
 128 768 l 1,5,-1
 256 768 l 1,6,-1
 256 896 l 1,7,-1
 640 896 l 1,8,-1
 640 768 l 1,9,-1
 256 768 l 1,10,-1
 256 128 l 1,11,-1
 128 128 l 1,4,-1
384 1152 m 1,12,-1
 512 1152 l 1,13,-1
 512 1024 l 1,14,-1
 384 1024 l 1,15,-1
 384 1152 l 1,12,-1
640 768 m 1,16,-1
 768 768 l 1,17,-1
 768 128 l 1,18,-1
 640 128 l 1,19,-1
 640 768 l 1,16,-1
640 128 m 1,20,-1
 640 0 l 1,21,-1
 256 0 l 1,22,-1
 256 128 l 1,23,-1
 640 128 l 1,20,-1
EndSplineSet
Validated: 5
EndChar

StartChar: oacute
Encoding: 243 243 173
Width: 896
GlyphClass: 2
Flags: W
LayerCount: 2
Fore
SplineSet
384 1024 m 1,0,-1
 384 1152 l 1,1,-1
 512 1152 l 1,2,-1
 512 1280 l 1,3,-1
 640 1280 l 1,4,-1
 640 1152 l 1,5,-1
 512 1152 l 1,6,-1
 512 1024 l 1,7,-1
 384 1024 l 1,0,-1
128 128 m 1,8,-1
 128 768 l 1,9,-1
 256 768 l 1,10,-1
 256 896 l 1,11,-1
 640 896 l 1,12,-1
 640 768 l 1,13,-1
 256 768 l 1,14,-1
 256 128 l 1,15,-1
 128 128 l 1,8,-1
640 768 m 1,16,-1
 768 768 l 1,17,-1
 768 128 l 1,18,-1
 640 128 l 1,19,-1
 640 768 l 1,16,-1
640 128 m 1,20,-1
 640 0 l 1,21,-1
 256 0 l 1,22,-1
 256 128 l 1,23,-1
 640 128 l 1,20,-1
EndSplineSet
Validated: 5
EndChar

StartChar: ocircumflex
Encoding: 244 244 174
Width: 896
GlyphClass: 2
Flags: W
LayerCount: 2
Fore
SplineSet
256 1024 m 1,0,-1
 256 1152 l 1,1,-1
 384 1152 l 1,2,-1
 384 1280 l 1,3,-1
 512 1280 l 1,4,-1
 512 1152 l 1,5,-1
 384 1152 l 1,6,-1
 384 1024 l 1,7,-1
 256 1024 l 1,0,-1
128 128 m 1,8,-1
 128 768 l 1,9,-1
 256 768 l 1,10,-1
 256 896 l 1,11,-1
 640 896 l 1,12,-1
 640 768 l 1,13,-1
 256 768 l 1,14,-1
 256 128 l 1,15,-1
 128 128 l 1,8,-1
512 1152 m 1,16,-1
 640 1152 l 1,17,-1
 640 1024 l 1,18,-1
 512 1024 l 1,19,-1
 512 1152 l 1,16,-1
640 768 m 1,20,-1
 768 768 l 1,21,-1
 768 128 l 1,22,-1
 640 128 l 1,23,-1
 640 768 l 1,20,-1
640 128 m 1,24,-1
 640 0 l 1,25,-1
 256 0 l 1,26,-1
 256 128 l 1,27,-1
 640 128 l 1,24,-1
EndSplineSet
Validated: 5
EndChar

StartChar: otilde
Encoding: 245 245 175
Width: 896
GlyphClass: 2
Flags: W
LayerCount: 2
Fore
SplineSet
256 1024 m 1,0,-1
 256 1152 l 1,1,-1
 384 1152 l 1,2,-1
 384 1280 l 1,3,-1
 512 1280 l 1,4,-1
 512 1152 l 1,5,-1
 384 1152 l 1,6,-1
 384 1024 l 1,7,-1
 256 1024 l 1,0,-1
128 128 m 1,8,-1
 128 768 l 1,9,-1
 256 768 l 1,10,-1
 256 896 l 1,11,-1
 640 896 l 1,12,-1
 640 768 l 1,13,-1
 256 768 l 1,14,-1
 256 128 l 1,15,-1
 128 128 l 1,8,-1
640 1280 m 1,16,-1
 768 1280 l 1,17,-1
 768 1152 l 1,18,-1
 640 1152 l 1,19,-1
 640 1024 l 1,20,-1
 512 1024 l 1,21,-1
 512 1152 l 1,22,-1
 640 1152 l 1,23,-1
 640 1280 l 1,16,-1
640 768 m 1,24,-1
 768 768 l 1,25,-1
 768 128 l 1,26,-1
 640 128 l 1,27,-1
 640 768 l 1,24,-1
640 128 m 1,28,-1
 640 0 l 1,29,-1
 256 0 l 1,30,-1
 256 128 l 1,31,-1
 640 128 l 1,28,-1
EndSplineSet
Validated: 5
EndChar

StartChar: odieresis
Encoding: 246 246 176
Width: 896
GlyphClass: 2
Flags: W
LayerCount: 2
Fore
SplineSet
512 1024 m 1,0,-1
 512 1152 l 1,1,-1
 640 1152 l 1,2,-1
 640 1024 l 1,3,-1
 512 1024 l 1,0,-1
256 1024 m 1,4,-1
 256 1152 l 1,5,-1
 384 1152 l 1,6,-1
 384 1024 l 1,7,-1
 256 1024 l 1,4,-1
128 128 m 1,8,-1
 128 768 l 1,9,-1
 256 768 l 1,10,-1
 256 896 l 1,11,-1
 640 896 l 1,12,-1
 640 768 l 1,13,-1
 256 768 l 1,14,-1
 256 128 l 1,15,-1
 128 128 l 1,8,-1
640 768 m 1,16,-1
 768 768 l 1,17,-1
 768 128 l 1,18,-1
 640 128 l 1,19,-1
 640 768 l 1,16,-1
640 128 m 1,20,-1
 640 0 l 1,21,-1
 256 0 l 1,22,-1
 256 128 l 1,23,-1
 640 128 l 1,20,-1
EndSplineSet
Validated: 5
EndChar

StartChar: divide
Encoding: 247 247 177
Width: 896
GlyphClass: 2
Flags: W
LayerCount: 2
Fore
SplineSet
128 640 m 1,0,-1
 128 768 l 1,1,-1
 768 768 l 1,2,-1
 768 640 l 1,3,-1
 128 640 l 1,0,-1
384 512 m 1,4,-1
 512 512 l 1,5,-1
 512 384 l 1,6,-1
 384 384 l 1,7,-1
 384 512 l 1,4,-1
384 1024 m 1,8,-1
 512 1024 l 1,9,-1
 512 896 l 1,10,-1
 384 896 l 1,11,-1
 384 1024 l 1,8,-1
EndSplineSet
Validated: 1
EndChar

StartChar: oslash
Encoding: 248 248 178
Width: 896
GlyphClass: 2
Flags: W
LayerCount: 2
Fore
SplineSet
896 896 m 1,0,-1
 1024 896 l 1,1,-1
 1024 768 l 1,2,-1
 896 768 l 1,3,-1
 896 128 l 1,4,-1
 768 128 l 1,5,-1
 768 512 l 1,6,-1
 640 512 l 1,7,-1
 640 384 l 1,8,-1
 512 384 l 1,9,-1
 512 512 l 1,10,-1
 640 512 l 1,11,-1
 640 640 l 1,12,-1
 768 640 l 1,13,-1
 768 768 l 1,14,-1
 384 768 l 1,15,-1
 384 896 l 1,16,-1
 768 896 l 1,17,-1
 768 768 l 1,18,-1
 896 768 l 1,19,-1
 896 896 l 1,0,-1
384 768 m 1,20,-1
 384 384 l 1,21,-1
 512 384 l 1,22,-1
 512 256 l 1,23,-1
 384 256 l 1,24,-1
 384 128 l 1,25,-1
 256 128 l 1,26,-1
 256 768 l 1,27,-1
 384 768 l 1,20,-1
768 128 m 1,28,-1
 768 0 l 1,29,-1
 384 0 l 1,30,-1
 384 128 l 1,31,-1
 768 128 l 1,28,-1
256 128 m 1,32,-1
 256 0 l 1,33,-1
 128 0 l 1,34,-1
 128 128 l 1,35,-1
 256 128 l 1,32,-1
EndSplineSet
Validated: 5
EndChar

StartChar: ugrave
Encoding: 249 249 179
Width: 896
GlyphClass: 2
Flags: W
LayerCount: 2
Fore
SplineSet
256 1152 m 1,0,-1
 256 1280 l 1,1,-1
 384 1280 l 1,2,-1
 384 1152 l 1,3,-1
 256 1152 l 1,0,-1
640 0 m 1,4,-1
 640 128 l 1,5,-1
 512 128 l 1,6,-1
 512 256 l 1,7,-1
 640 256 l 1,8,-1
 640 896 l 1,9,-1
 768 896 l 1,10,-1
 768 0 l 1,11,-1
 640 0 l 1,4,-1
128 128 m 1,12,-1
 128 896 l 1,13,-1
 256 896 l 1,14,-1
 256 128 l 1,15,-1
 128 128 l 1,12,-1
384 1152 m 1,16,-1
 512 1152 l 1,17,-1
 512 1024 l 1,18,-1
 384 1024 l 1,19,-1
 384 1152 l 1,16,-1
512 128 m 1,20,-1
 512 0 l 1,21,-1
 256 0 l 1,22,-1
 256 128 l 1,23,-1
 512 128 l 1,20,-1
EndSplineSet
Validated: 5
EndChar

StartChar: uacute
Encoding: 250 250 180
Width: 896
GlyphClass: 2
Flags: W
LayerCount: 2
Fore
SplineSet
384 1024 m 1,0,-1
 384 1152 l 1,1,-1
 512 1152 l 1,2,-1
 512 1280 l 1,3,-1
 640 1280 l 1,4,-1
 640 1152 l 1,5,-1
 512 1152 l 1,6,-1
 512 1024 l 1,7,-1
 384 1024 l 1,0,-1
640 0 m 1,8,-1
 640 128 l 1,9,-1
 512 128 l 1,10,-1
 512 256 l 1,11,-1
 640 256 l 1,12,-1
 640 896 l 1,13,-1
 768 896 l 1,14,-1
 768 0 l 1,15,-1
 640 0 l 1,8,-1
128 128 m 1,16,-1
 128 896 l 1,17,-1
 256 896 l 1,18,-1
 256 128 l 1,19,-1
 128 128 l 1,16,-1
512 128 m 1,20,-1
 512 0 l 1,21,-1
 256 0 l 1,22,-1
 256 128 l 1,23,-1
 512 128 l 1,20,-1
EndSplineSet
Validated: 5
EndChar

StartChar: ucircumflex
Encoding: 251 251 181
Width: 896
GlyphClass: 2
Flags: W
LayerCount: 2
Fore
SplineSet
256 1024 m 1,0,-1
 256 1152 l 1,1,-1
 384 1152 l 1,2,-1
 384 1280 l 1,3,-1
 512 1280 l 1,4,-1
 512 1152 l 1,5,-1
 384 1152 l 1,6,-1
 384 1024 l 1,7,-1
 256 1024 l 1,0,-1
640 0 m 1,8,-1
 640 128 l 1,9,-1
 512 128 l 1,10,-1
 512 256 l 1,11,-1
 640 256 l 1,12,-1
 640 896 l 1,13,-1
 768 896 l 1,14,-1
 768 0 l 1,15,-1
 640 0 l 1,8,-1
128 128 m 1,16,-1
 128 896 l 1,17,-1
 256 896 l 1,18,-1
 256 128 l 1,19,-1
 128 128 l 1,16,-1
512 1152 m 1,20,-1
 640 1152 l 1,21,-1
 640 1024 l 1,22,-1
 512 1024 l 1,23,-1
 512 1152 l 1,20,-1
512 128 m 1,24,-1
 512 0 l 1,25,-1
 256 0 l 1,26,-1
 256 128 l 1,27,-1
 512 128 l 1,24,-1
EndSplineSet
Validated: 5
EndChar

StartChar: udieresis
Encoding: 252 252 182
Width: 896
GlyphClass: 2
Flags: W
LayerCount: 2
Fore
SplineSet
512 1024 m 1,0,-1
 512 1152 l 1,1,-1
 640 1152 l 1,2,-1
 640 1024 l 1,3,-1
 512 1024 l 1,0,-1
256 1024 m 1,4,-1
 256 1152 l 1,5,-1
 384 1152 l 1,6,-1
 384 1024 l 1,7,-1
 256 1024 l 1,4,-1
640 0 m 1,8,-1
 640 128 l 1,9,-1
 512 128 l 1,10,-1
 512 256 l 1,11,-1
 640 256 l 1,12,-1
 640 896 l 1,13,-1
 768 896 l 1,14,-1
 768 0 l 1,15,-1
 640 0 l 1,8,-1
128 128 m 1,16,-1
 128 896 l 1,17,-1
 256 896 l 1,18,-1
 256 128 l 1,19,-1
 128 128 l 1,16,-1
512 128 m 1,20,-1
 512 0 l 1,21,-1
 256 0 l 1,22,-1
 256 128 l 1,23,-1
 512 128 l 1,20,-1
EndSplineSet
Validated: 5
EndChar

StartChar: yacute
Encoding: 253 253 183
Width: 896
GlyphClass: 2
Flags: W
LayerCount: 2
Fore
SplineSet
128 640 m 1,0,-1
 128 896 l 1,1,-1
 256 896 l 1,2,-1
 256 640 l 1,3,-1
 128 640 l 1,0,-1
128 -128 m 1,4,-1
 128 0 l 1,5,-1
 256 0 l 1,6,-1
 256 128 l 1,7,-1
 384 128 l 1,8,-1
 384 384 l 1,9,-1
 256 384 l 1,10,-1
 256 640 l 1,11,-1
 384 640 l 1,12,-1
 384 384 l 1,13,-1
 512 384 l 1,14,-1
 512 640 l 1,15,-1
 640 640 l 1,16,-1
 640 896 l 1,17,-1
 768 896 l 1,18,-1
 768 640 l 1,19,-1
 640 640 l 1,20,-1
 640 384 l 1,21,-1
 512 384 l 1,22,-1
 512 128 l 1,23,-1
 384 128 l 1,24,-1
 384 0 l 1,25,-1
 256 0 l 1,26,-1
 256 -128 l 1,27,-1
 128 -128 l 1,4,-1
384 896 m 1,28,-1
 384 1024 l 1,29,-1
 512 1024 l 1,30,-1
 512 1152 l 1,31,-1
 640 1152 l 1,32,-1
 640 1024 l 1,33,-1
 512 1024 l 1,34,-1
 512 896 l 1,35,-1
 384 896 l 1,28,-1
EndSplineSet
Validated: 5
EndChar

StartChar: thorn
Encoding: 254 254 184
Width: 896
GlyphClass: 2
Flags: W
LayerCount: 2
Fore
SplineSet
128 -128 m 1,0,-1
 128 1408 l 1,1,-1
 256 1408 l 1,2,-1
 256 768 l 1,3,-1
 384 768 l 1,4,-1
 384 896 l 1,5,-1
 640 896 l 1,6,-1
 640 768 l 1,7,-1
 384 768 l 1,8,-1
 384 640 l 1,9,-1
 256 640 l 1,10,-1
 256 384 l 1,11,-1
 384 384 l 1,12,-1
 384 256 l 1,13,-1
 256 256 l 1,14,-1
 256 -128 l 1,15,-1
 128 -128 l 1,0,-1
640 768 m 1,16,-1
 768 768 l 1,17,-1
 768 256 l 1,18,-1
 640 256 l 1,19,-1
 640 768 l 1,16,-1
640 256 m 1,20,-1
 640 128 l 1,21,-1
 384 128 l 1,22,-1
 384 256 l 1,23,-1
 640 256 l 1,20,-1
EndSplineSet
Validated: 5
EndChar

StartChar: ydieresis
Encoding: 255 255 185
Width: 896
GlyphClass: 2
Flags: W
LayerCount: 2
Fore
SplineSet
128 640 m 1,0,-1
 128 896 l 1,1,-1
 256 896 l 1,2,-1
 256 640 l 1,3,-1
 128 640 l 1,0,-1
128 -128 m 1,4,-1
 128 0 l 1,5,-1
 256 0 l 1,6,-1
 256 128 l 1,7,-1
 384 128 l 1,8,-1
 384 384 l 1,9,-1
 256 384 l 1,10,-1
 256 640 l 1,11,-1
 384 640 l 1,12,-1
 384 384 l 1,13,-1
 512 384 l 1,14,-1
 512 640 l 1,15,-1
 640 640 l 1,16,-1
 640 896 l 1,17,-1
 768 896 l 1,18,-1
 768 640 l 1,19,-1
 640 640 l 1,20,-1
 640 384 l 1,21,-1
 512 384 l 1,22,-1
 512 128 l 1,23,-1
 384 128 l 1,24,-1
 384 0 l 1,25,-1
 256 0 l 1,26,-1
 256 -128 l 1,27,-1
 128 -128 l 1,4,-1
512 1024 m 1,28,-1
 512 1152 l 1,29,-1
 640 1152 l 1,30,-1
 640 1024 l 1,31,-1
 512 1024 l 1,28,-1
256 1024 m 1,32,-1
 256 1152 l 1,33,-1
 384 1152 l 1,34,-1
 384 1024 l 1,35,-1
 256 1024 l 1,32,-1
EndSplineSet
Validated: 5
EndChar

StartChar: Dcroat
Encoding: 272 272 186
Width: 896
GlyphClass: 2
Flags: W
LayerCount: 2
Fore
SplineSet
256 0 m 1,0,-1
 256 640 l 1,1,-1
 128 640 l 1,2,-1
 128 768 l 1,3,-1
 256 768 l 1,4,-1
 256 1408 l 1,5,-1
 640 1408 l 1,6,-1
 640 1280 l 1,7,-1
 384 1280 l 1,8,-1
 384 768 l 1,9,-1
 512 768 l 1,10,-1
 512 640 l 1,11,-1
 384 640 l 1,12,-1
 384 128 l 1,13,-1
 640 128 l 1,14,-1
 640 0 l 1,15,-1
 256 0 l 1,0,-1
640 1280 m 1,16,-1
 768 1280 l 1,17,-1
 768 1152 l 1,18,-1
 640 1152 l 1,19,-1
 640 1280 l 1,16,-1
768 1152 m 1,20,-1
 896 1152 l 1,21,-1
 896 256 l 1,22,-1
 768 256 l 1,23,-1
 768 1152 l 1,20,-1
768 256 m 1,24,-1
 768 128 l 1,25,-1
 640 128 l 1,26,-1
 640 256 l 1,27,-1
 768 256 l 1,24,-1
EndSplineSet
Validated: 5
EndChar

StartChar: dcroat
Encoding: 273 273 187
Width: 896
GlyphClass: 2
Flags: W
LayerCount: 2
Fore
SplineSet
128 128 m 1,0,-1
 128 768 l 1,1,-1
 256 768 l 1,2,-1
 256 128 l 1,3,-1
 512 128 l 1,4,-1
 512 0 l 1,5,-1
 256 0 l 1,6,-1
 256 128 l 1,7,-1
 128 128 l 1,0,-1
640 0 m 1,8,-1
 640 128 l 1,9,-1
 512 128 l 1,10,-1
 512 256 l 1,11,-1
 640 256 l 1,12,-1
 640 640 l 1,13,-1
 512 640 l 1,14,-1
 512 768 l 1,15,-1
 256 768 l 1,16,-1
 256 896 l 1,17,-1
 512 896 l 1,18,-1
 512 768 l 1,19,-1
 640 768 l 1,20,-1
 640 1024 l 1,21,-1
 384 1024 l 1,22,-1
 384 1152 l 1,23,-1
 640 1152 l 1,24,-1
 640 1408 l 1,25,-1
 768 1408 l 1,26,-1
 768 1152 l 1,27,-1
 896 1152 l 1,28,-1
 896 1024 l 1,29,-1
 768 1024 l 1,30,-1
 768 0 l 1,31,-1
 640 0 l 1,8,-1
EndSplineSet
Validated: 5
EndChar

StartChar: OE
Encoding: 338 338 188
Width: 896
GlyphClass: 2
Flags: W
LayerCount: 2
Fore
SplineSet
128 128 m 1,0,-1
 128 1152 l 1,1,-1
 256 1152 l 1,2,-1
 256 1280 l 1,3,-1
 512 1280 l 1,4,-1
 512 1152 l 1,5,-1
 256 1152 l 1,6,-1
 256 128 l 1,7,-1
 128 128 l 1,0,-1
640 1152 m 1,8,-1
 640 1280 l 1,9,-1
 1024 1280 l 1,10,-1
 1024 1152 l 1,11,-1
 640 1152 l 1,8,-1
640 1152 m 1,12,-1
 640 640 l 1,13,-1
 896 640 l 1,14,-1
 896 512 l 1,15,-1
 640 512 l 1,16,-1
 640 128 l 1,17,-1
 512 128 l 1,18,-1
 512 1152 l 1,19,-1
 640 1152 l 1,12,-1
640 128 m 1,20,-1
 1024 128 l 1,21,-1
 1024 0 l 1,22,-1
 640 0 l 1,23,-1
 640 128 l 1,20,-1
512 128 m 1,24,-1
 512 0 l 1,25,-1
 256 0 l 1,26,-1
 256 128 l 1,27,-1
 512 128 l 1,24,-1
EndSplineSet
Validated: 5
EndChar

StartChar: oe
Encoding: 339 339 189
Width: 896
GlyphClass: 2
Flags: W
LayerCount: 2
Fore
SplineSet
128 128 m 1,0,-1
 128 768 l 1,1,-1
 256 768 l 1,2,-1
 256 896 l 1,3,-1
 512 896 l 1,4,-1
 512 768 l 1,5,-1
 256 768 l 1,6,-1
 256 128 l 1,7,-1
 128 128 l 1,0,-1
896 768 m 1,8,-1
 640 768 l 1,9,-1
 640 896 l 1,10,-1
 896 896 l 1,11,-1
 896 768 l 1,8,-1
896 768 m 1,12,-1
 1024 768 l 1,13,-1
 1024 384 l 1,14,-1
 640 384 l 1,15,-1
 640 128 l 1,16,-1
 512 128 l 1,17,-1
 512 768 l 1,18,-1
 640 768 l 1,19,-1
 640 512 l 1,20,-1
 896 512 l 1,21,-1
 896 768 l 1,12,-1
896 128 m 1,22,-1
 896 256 l 1,23,-1
 1024 256 l 1,24,-1
 1024 128 l 1,25,-1
 896 128 l 1,22,-1
896 128 m 1,26,-1
 896 0 l 1,27,-1
 640 0 l 1,28,-1
 640 128 l 1,29,-1
 896 128 l 1,26,-1
512 128 m 1,30,-1
 512 0 l 1,31,-1
 256 0 l 1,32,-1
 256 128 l 1,33,-1
 512 128 l 1,30,-1
EndSplineSet
Validated: 5
EndChar

StartChar: quoteleft
Encoding: 8216 8216 190
Width: 896
GlyphClass: 2
Flags: W
LayerCount: 2
Fore
SplineSet
0 1024 m 1,0,-1
 0 1152 l 1,1,-1
 128 1152 l 1,2,-1
 128 1280 l 1,3,-1
 0 1280 l 1,4,-1
 0 1536 l 1,5,-1
 256 1536 l 1,6,-1
 256 1152 l 1,7,-1
 128 1152 l 1,8,-1
 128 1024 l 1,9,-1
 0 1024 l 1,0,-1
EndSplineSet
Validated: 5
EndChar

StartChar: quoteright
Encoding: 8217 8217 191
Width: 896
GlyphClass: 2
Flags: W
LayerCount: 2
Fore
SplineSet
0 1024 m 1,0,-1
 0 1152 l 1,1,-1
 128 1152 l 1,2,-1
 128 1280 l 1,3,-1
 0 1280 l 1,4,-1
 0 1536 l 1,5,-1
 256 1536 l 1,6,-1
 256 1152 l 1,7,-1
 128 1152 l 1,8,-1
 128 1024 l 1,9,-1
 0 1024 l 1,0,-1
EndSplineSet
Validated: 5
EndChar

StartChar: quotedblleft
Encoding: 8220 8220 192
Width: 896
GlyphClass: 2
Flags: W
LayerCount: 2
Fore
SplineSet
384 1024 m 1,0,-1
 384 1152 l 1,1,-1
 512 1152 l 1,2,-1
 512 1280 l 1,3,-1
 384 1280 l 1,4,-1
 384 1536 l 1,5,-1
 640 1536 l 1,6,-1
 640 1152 l 1,7,-1
 512 1152 l 1,8,-1
 512 1024 l 1,9,-1
 384 1024 l 1,0,-1
0 1024 m 1,10,-1
 0 1152 l 1,11,-1
 128 1152 l 1,12,-1
 128 1280 l 1,13,-1
 0 1280 l 1,14,-1
 0 1536 l 1,15,-1
 256 1536 l 1,16,-1
 256 1152 l 1,17,-1
 128 1152 l 1,18,-1
 128 1024 l 1,19,-1
 0 1024 l 1,10,-1
EndSplineSet
Validated: 5
EndChar

StartChar: quotedblright
Encoding: 8221 8221 193
Width: 896
GlyphClass: 2
Flags: W
LayerCount: 2
Fore
SplineSet
384 1024 m 1,0,-1
 384 1152 l 1,1,-1
 512 1152 l 1,2,-1
 512 1280 l 1,3,-1
 384 1280 l 1,4,-1
 384 1536 l 1,5,-1
 640 1536 l 1,6,-1
 640 1152 l 1,7,-1
 512 1152 l 1,8,-1
 512 1024 l 1,9,-1
 384 1024 l 1,0,-1
0 1024 m 1,10,-1
 0 1152 l 1,11,-1
 128 1152 l 1,12,-1
 128 1280 l 1,13,-1
 0 1280 l 1,14,-1
 0 1536 l 1,15,-1
 256 1536 l 1,16,-1
 256 1152 l 1,17,-1
 128 1152 l 1,18,-1
 128 1024 l 1,19,-1
 0 1024 l 1,10,-1
EndSplineSet
Validated: 5
EndChar

StartChar: Euro
Encoding: 8364 8364 194
Width: 896
GlyphClass: 2
Flags: W
LayerCount: 2
Fore
SplineSet
768 256 m 1024,0,-1
768 1152 m 1024,1,-1
640 128 m 1,2,-1
 640 0 l 1,3,-1
 384 0 l 1,4,-1
 384 128 l 1,5,-1
 640 128 l 1,2,-1
640 128 m 1,6,-1
 640 256 l 1,7,-1
 768 256 l 1,8,-1
 768 128 l 1,9,-1
 640 128 l 1,6,-1
384 128 m 1,10,-1
 256 128 l 1,11,-1
 256 256 l 1,12,-1
 384 256 l 1,13,-1
 384 128 l 1,10,-1
256 256 m 1,14,-1
 128 256 l 1,15,-1
 128 512 l 1,16,-1
 0 512 l 1,17,-1
 0 640 l 1,18,-1
 128 640 l 1,19,-1
 128 768 l 1,20,-1
 0 768 l 1,21,-1
 0 896 l 1,22,-1
 128 896 l 1,23,-1
 128 1152 l 1,24,-1
 256 1152 l 1,25,-1
 256 896 l 1,26,-1
 640 896 l 1,27,-1
 640 768 l 1,28,-1
 256 768 l 1,29,-1
 256 640 l 1,30,-1
 640 640 l 1,31,-1
 640 512 l 1,32,-1
 256 512 l 1,33,-1
 256 256 l 1,14,-1
256 1152 m 1,34,-1
 256 1280 l 1,35,-1
 384 1280 l 1,36,-1
 384 1152 l 1,37,-1
 256 1152 l 1,34,-1
640 1280 m 1,38,-1
 768 1280 l 1,39,-1
 768 1152 l 1,40,-1
 640 1152 l 1,41,-1
 640 1280 l 1,38,-1
640 1280 m 1,42,-1
 384 1280 l 1,43,-1
 384 1408 l 1,44,-1
 640 1408 l 1,45,-1
 640 1280 l 1,42,-1
EndSplineSet
Validated: 5
EndChar

